%FSLAX45Y45*%
G04 Gerber Fmt 4.5, Leading zero omitted, Abs format (unit mm)*
G04 Created by KiCad (PCBNEW 5.99.0+really5.1.10+dfsg1-1) date 2022-01-15 17:01:51*
%MOMM*%
%LPD*%
G01*
G04 APERTURE LIST*
%TA.AperFunction,Profile*%
%ADD10C,0.150000*%
%TD*%
%ADD11C,0.200000*%
%ADD12C,0.300000*%
G04 APERTURE END LIST*
D10*
X15613288Y-11524457D02*
G75*
G02*
X15458440Y-11673840I-165924J17047D01*
G01*
X12626347Y-11676623D02*
G75*
G02*
X12476480Y-11525250I17832J167529D01*
G01*
X12467325Y-8465820D02*
G75*
G02*
X12626340Y-8315960I166189J-17047D01*
G01*
X15461457Y-8316052D02*
G75*
G02*
X15610840Y-8470900I-17047J-165924D01*
G01*
X15613288Y-11524457D02*
X15610840Y-8470900D01*
X12626347Y-11676623D02*
X15458440Y-11673840D01*
X12626340Y-8315960D02*
X15461457Y-8316052D01*
X12476480Y-11525250D02*
X12467325Y-8465820D01*
D11*
D12*
X12746254Y-12149838D02*
X12746254Y-11849838D01*
X12817682Y-11849838D01*
X12860539Y-11864123D01*
X12889111Y-11892695D01*
X12903396Y-11921266D01*
X12917682Y-11978409D01*
X12917682Y-12021266D01*
X12903396Y-12078409D01*
X12889111Y-12106980D01*
X12860539Y-12135552D01*
X12817682Y-12149838D01*
X12746254Y-12149838D01*
X13046254Y-12149838D02*
X13046254Y-11949838D01*
X13046254Y-12006980D02*
X13060539Y-11978409D01*
X13074825Y-11964123D01*
X13103396Y-11949838D01*
X13131968Y-11949838D01*
X13231968Y-12149838D02*
X13231968Y-11949838D01*
X13231968Y-11849838D02*
X13217682Y-11864123D01*
X13231968Y-11878409D01*
X13246254Y-11864123D01*
X13231968Y-11849838D01*
X13231968Y-11878409D01*
X13417682Y-12149838D02*
X13389111Y-12135552D01*
X13374825Y-12106980D01*
X13374825Y-11849838D01*
X13574825Y-12149838D02*
X13546254Y-12135552D01*
X13531968Y-12106980D01*
X13531968Y-11849838D01*
X13917682Y-12149838D02*
X13917682Y-11849838D01*
X14017682Y-12064123D01*
X14117682Y-11849838D01*
X14117682Y-12149838D01*
X14389111Y-12149838D02*
X14389111Y-11992695D01*
X14374825Y-11964123D01*
X14346254Y-11949838D01*
X14289111Y-11949838D01*
X14260539Y-11964123D01*
X14389111Y-12135552D02*
X14360539Y-12149838D01*
X14289111Y-12149838D01*
X14260539Y-12135552D01*
X14246254Y-12106980D01*
X14246254Y-12078409D01*
X14260539Y-12049838D01*
X14289111Y-12035552D01*
X14360539Y-12035552D01*
X14389111Y-12021266D01*
X14531968Y-11949838D02*
X14531968Y-12249838D01*
X14531968Y-11964123D02*
X14560539Y-11949838D01*
X14617682Y-11949838D01*
X14646254Y-11964123D01*
X14660539Y-11978409D01*
X14674825Y-12006980D01*
X14674825Y-12092695D01*
X14660539Y-12121266D01*
X14646254Y-12135552D01*
X14617682Y-12149838D01*
X14560539Y-12149838D01*
X14531968Y-12135552D01*
X14803396Y-12121266D02*
X14817682Y-12135552D01*
X14803396Y-12149838D01*
X14789111Y-12135552D01*
X14803396Y-12121266D01*
X14803396Y-12149838D01*
X14803396Y-11964123D02*
X14817682Y-11978409D01*
X14803396Y-11992695D01*
X14789111Y-11978409D01*
X14803396Y-11964123D01*
X14803396Y-11992695D01*
M02*
