G04 #@! TF.GenerationSoftware,KiCad,Pcbnew,5.99.0+really5.1.10+dfsg1-1*
G04 #@! TF.CreationDate,2022-01-15T17:01:17+02:00*
G04 #@! TF.ProjectId,tia,7469612e-6b69-4636-9164-5f7063625858,rev?*
G04 #@! TF.SameCoordinates,Original*
G04 #@! TF.FileFunction,Soldermask,Top*
G04 #@! TF.FilePolarity,Negative*
%FSLAX46Y46*%
G04 Gerber Fmt 4.6, Leading zero omitted, Abs format (unit mm)*
G04 Created by KiCad (PCBNEW 5.99.0+really5.1.10+dfsg1-1) date 2022-01-15 17:01:17*
%MOMM*%
%LPD*%
G01*
G04 APERTURE LIST*
%ADD10C,1.400000*%
%ADD11C,5.400000*%
%ADD12O,2.100000X2.100000*%
G04 APERTURE END LIST*
G36*
G01*
X138270300Y-114225000D02*
X138945300Y-114225000D01*
G75*
G02*
X139282800Y-114562500I0J-337500D01*
G01*
X139282800Y-115262500D01*
G75*
G02*
X138945300Y-115600000I-337500J0D01*
G01*
X138270300Y-115600000D01*
G75*
G02*
X137932800Y-115262500I0J337500D01*
G01*
X137932800Y-114562500D01*
G75*
G02*
X138270300Y-114225000I337500J0D01*
G01*
G37*
G36*
G01*
X138270300Y-112400000D02*
X138945300Y-112400000D01*
G75*
G02*
X139282800Y-112737500I0J-337500D01*
G01*
X139282800Y-113437500D01*
G75*
G02*
X138945300Y-113775000I-337500J0D01*
G01*
X138270300Y-113775000D01*
G75*
G02*
X137932800Y-113437500I0J337500D01*
G01*
X137932800Y-112737500D01*
G75*
G02*
X138270300Y-112400000I337500J0D01*
G01*
G37*
G36*
G01*
X136170500Y-114225000D02*
X136845500Y-114225000D01*
G75*
G02*
X137183000Y-114562500I0J-337500D01*
G01*
X137183000Y-115262500D01*
G75*
G02*
X136845500Y-115600000I-337500J0D01*
G01*
X136170500Y-115600000D01*
G75*
G02*
X135833000Y-115262500I0J337500D01*
G01*
X135833000Y-114562500D01*
G75*
G02*
X136170500Y-114225000I337500J0D01*
G01*
G37*
G36*
G01*
X136170500Y-112400000D02*
X136845500Y-112400000D01*
G75*
G02*
X137183000Y-112737500I0J-337500D01*
G01*
X137183000Y-113437500D01*
G75*
G02*
X136845500Y-113775000I-337500J0D01*
G01*
X136170500Y-113775000D01*
G75*
G02*
X135833000Y-113437500I0J337500D01*
G01*
X135833000Y-112737500D01*
G75*
G02*
X136170500Y-112400000I337500J0D01*
G01*
G37*
G36*
G01*
X143655100Y-111339840D02*
X144330100Y-111339840D01*
G75*
G02*
X144667600Y-111677340I0J-337500D01*
G01*
X144667600Y-112377340D01*
G75*
G02*
X144330100Y-112714840I-337500J0D01*
G01*
X143655100Y-112714840D01*
G75*
G02*
X143317600Y-112377340I0J337500D01*
G01*
X143317600Y-111677340D01*
G75*
G02*
X143655100Y-111339840I337500J0D01*
G01*
G37*
G36*
G01*
X143655100Y-109514840D02*
X144330100Y-109514840D01*
G75*
G02*
X144667600Y-109852340I0J-337500D01*
G01*
X144667600Y-110552340D01*
G75*
G02*
X144330100Y-110889840I-337500J0D01*
G01*
X143655100Y-110889840D01*
G75*
G02*
X143317600Y-110552340I0J337500D01*
G01*
X143317600Y-109852340D01*
G75*
G02*
X143655100Y-109514840I337500J0D01*
G01*
G37*
G36*
G01*
X141475780Y-111365240D02*
X142150780Y-111365240D01*
G75*
G02*
X142488280Y-111702740I0J-337500D01*
G01*
X142488280Y-112402740D01*
G75*
G02*
X142150780Y-112740240I-337500J0D01*
G01*
X141475780Y-112740240D01*
G75*
G02*
X141138280Y-112402740I0J337500D01*
G01*
X141138280Y-111702740D01*
G75*
G02*
X141475780Y-111365240I337500J0D01*
G01*
G37*
G36*
G01*
X141475780Y-109540240D02*
X142150780Y-109540240D01*
G75*
G02*
X142488280Y-109877740I0J-337500D01*
G01*
X142488280Y-110577740D01*
G75*
G02*
X142150780Y-110915240I-337500J0D01*
G01*
X141475780Y-110915240D01*
G75*
G02*
X141138280Y-110577740I0J337500D01*
G01*
X141138280Y-109877740D01*
G75*
G02*
X141475780Y-109540240I337500J0D01*
G01*
G37*
G36*
G01*
X146539900Y-110798400D02*
X145864900Y-110798400D01*
G75*
G02*
X145527400Y-110460900I0J337500D01*
G01*
X145527400Y-109760900D01*
G75*
G02*
X145864900Y-109423400I337500J0D01*
G01*
X146539900Y-109423400D01*
G75*
G02*
X146877400Y-109760900I0J-337500D01*
G01*
X146877400Y-110460900D01*
G75*
G02*
X146539900Y-110798400I-337500J0D01*
G01*
G37*
G36*
G01*
X146539900Y-112623400D02*
X145864900Y-112623400D01*
G75*
G02*
X145527400Y-112285900I0J337500D01*
G01*
X145527400Y-111585900D01*
G75*
G02*
X145864900Y-111248400I337500J0D01*
G01*
X146539900Y-111248400D01*
G75*
G02*
X146877400Y-111585900I0J-337500D01*
G01*
X146877400Y-112285900D01*
G75*
G02*
X146539900Y-112623400I-337500J0D01*
G01*
G37*
G36*
G01*
X132816920Y-114225000D02*
X133491920Y-114225000D01*
G75*
G02*
X133829420Y-114562500I0J-337500D01*
G01*
X133829420Y-115262500D01*
G75*
G02*
X133491920Y-115600000I-337500J0D01*
G01*
X132816920Y-115600000D01*
G75*
G02*
X132479420Y-115262500I0J337500D01*
G01*
X132479420Y-114562500D01*
G75*
G02*
X132816920Y-114225000I337500J0D01*
G01*
G37*
G36*
G01*
X132816920Y-112400000D02*
X133491920Y-112400000D01*
G75*
G02*
X133829420Y-112737500I0J-337500D01*
G01*
X133829420Y-113437500D01*
G75*
G02*
X133491920Y-113775000I-337500J0D01*
G01*
X132816920Y-113775000D01*
G75*
G02*
X132479420Y-113437500I0J337500D01*
G01*
X132479420Y-112737500D01*
G75*
G02*
X132816920Y-112400000I337500J0D01*
G01*
G37*
G36*
G01*
X136338100Y-103294500D02*
X136338100Y-103969500D01*
G75*
G02*
X136000600Y-104307000I-337500J0D01*
G01*
X135300600Y-104307000D01*
G75*
G02*
X134963100Y-103969500I0J337500D01*
G01*
X134963100Y-103294500D01*
G75*
G02*
X135300600Y-102957000I337500J0D01*
G01*
X136000600Y-102957000D01*
G75*
G02*
X136338100Y-103294500I0J-337500D01*
G01*
G37*
G36*
G01*
X138163100Y-103294500D02*
X138163100Y-103969500D01*
G75*
G02*
X137825600Y-104307000I-337500J0D01*
G01*
X137125600Y-104307000D01*
G75*
G02*
X136788100Y-103969500I0J337500D01*
G01*
X136788100Y-103294500D01*
G75*
G02*
X137125600Y-102957000I337500J0D01*
G01*
X137825600Y-102957000D01*
G75*
G02*
X138163100Y-103294500I0J-337500D01*
G01*
G37*
G36*
G01*
X131804200Y-105631300D02*
X131804200Y-106306300D01*
G75*
G02*
X131466700Y-106643800I-337500J0D01*
G01*
X130766700Y-106643800D01*
G75*
G02*
X130429200Y-106306300I0J337500D01*
G01*
X130429200Y-105631300D01*
G75*
G02*
X130766700Y-105293800I337500J0D01*
G01*
X131466700Y-105293800D01*
G75*
G02*
X131804200Y-105631300I0J-337500D01*
G01*
G37*
G36*
G01*
X133629200Y-105631300D02*
X133629200Y-106306300D01*
G75*
G02*
X133291700Y-106643800I-337500J0D01*
G01*
X132591700Y-106643800D01*
G75*
G02*
X132254200Y-106306300I0J337500D01*
G01*
X132254200Y-105631300D01*
G75*
G02*
X132591700Y-105293800I337500J0D01*
G01*
X133291700Y-105293800D01*
G75*
G02*
X133629200Y-105631300I0J-337500D01*
G01*
G37*
G36*
G01*
X139662500Y-106975000D02*
X140337500Y-106975000D01*
G75*
G02*
X140675000Y-107312500I0J-337500D01*
G01*
X140675000Y-108012500D01*
G75*
G02*
X140337500Y-108350000I-337500J0D01*
G01*
X139662500Y-108350000D01*
G75*
G02*
X139325000Y-108012500I0J337500D01*
G01*
X139325000Y-107312500D01*
G75*
G02*
X139662500Y-106975000I337500J0D01*
G01*
G37*
G36*
G01*
X139662500Y-105150000D02*
X140337500Y-105150000D01*
G75*
G02*
X140675000Y-105487500I0J-337500D01*
G01*
X140675000Y-106187500D01*
G75*
G02*
X140337500Y-106525000I-337500J0D01*
G01*
X139662500Y-106525000D01*
G75*
G02*
X139325000Y-106187500I0J337500D01*
G01*
X139325000Y-105487500D01*
G75*
G02*
X139662500Y-105150000I337500J0D01*
G01*
G37*
G36*
G01*
X147521720Y-103421500D02*
X147521720Y-104096500D01*
G75*
G02*
X147184220Y-104434000I-337500J0D01*
G01*
X146484220Y-104434000D01*
G75*
G02*
X146146720Y-104096500I0J337500D01*
G01*
X146146720Y-103421500D01*
G75*
G02*
X146484220Y-103084000I337500J0D01*
G01*
X147184220Y-103084000D01*
G75*
G02*
X147521720Y-103421500I0J-337500D01*
G01*
G37*
G36*
G01*
X149346720Y-103421500D02*
X149346720Y-104096500D01*
G75*
G02*
X149009220Y-104434000I-337500J0D01*
G01*
X148309220Y-104434000D01*
G75*
G02*
X147971720Y-104096500I0J337500D01*
G01*
X147971720Y-103421500D01*
G75*
G02*
X148309220Y-103084000I337500J0D01*
G01*
X149009220Y-103084000D01*
G75*
G02*
X149346720Y-103421500I0J-337500D01*
G01*
G37*
G36*
G01*
X147539500Y-87864000D02*
X147539500Y-88539000D01*
G75*
G02*
X147202000Y-88876500I-337500J0D01*
G01*
X146502000Y-88876500D01*
G75*
G02*
X146164500Y-88539000I0J337500D01*
G01*
X146164500Y-87864000D01*
G75*
G02*
X146502000Y-87526500I337500J0D01*
G01*
X147202000Y-87526500D01*
G75*
G02*
X147539500Y-87864000I0J-337500D01*
G01*
G37*
G36*
G01*
X149364500Y-87864000D02*
X149364500Y-88539000D01*
G75*
G02*
X149027000Y-88876500I-337500J0D01*
G01*
X148327000Y-88876500D01*
G75*
G02*
X147989500Y-88539000I0J337500D01*
G01*
X147989500Y-87864000D01*
G75*
G02*
X148327000Y-87526500I337500J0D01*
G01*
X149027000Y-87526500D01*
G75*
G02*
X149364500Y-87864000I0J-337500D01*
G01*
G37*
G36*
G01*
X136370380Y-98914160D02*
X137045380Y-98914160D01*
G75*
G02*
X137382880Y-99251660I0J-337500D01*
G01*
X137382880Y-99951660D01*
G75*
G02*
X137045380Y-100289160I-337500J0D01*
G01*
X136370380Y-100289160D01*
G75*
G02*
X136032880Y-99951660I0J337500D01*
G01*
X136032880Y-99251660D01*
G75*
G02*
X136370380Y-98914160I337500J0D01*
G01*
G37*
G36*
G01*
X136370380Y-97089160D02*
X137045380Y-97089160D01*
G75*
G02*
X137382880Y-97426660I0J-337500D01*
G01*
X137382880Y-98126660D01*
G75*
G02*
X137045380Y-98464160I-337500J0D01*
G01*
X136370380Y-98464160D01*
G75*
G02*
X136032880Y-98126660I0J337500D01*
G01*
X136032880Y-97426660D01*
G75*
G02*
X136370380Y-97089160I337500J0D01*
G01*
G37*
G36*
G01*
X134272340Y-98893840D02*
X134947340Y-98893840D01*
G75*
G02*
X135284840Y-99231340I0J-337500D01*
G01*
X135284840Y-99931340D01*
G75*
G02*
X134947340Y-100268840I-337500J0D01*
G01*
X134272340Y-100268840D01*
G75*
G02*
X133934840Y-99931340I0J337500D01*
G01*
X133934840Y-99231340D01*
G75*
G02*
X134272340Y-98893840I337500J0D01*
G01*
G37*
G36*
G01*
X134272340Y-97068840D02*
X134947340Y-97068840D01*
G75*
G02*
X135284840Y-97406340I0J-337500D01*
G01*
X135284840Y-98106340D01*
G75*
G02*
X134947340Y-98443840I-337500J0D01*
G01*
X134272340Y-98443840D01*
G75*
G02*
X133934840Y-98106340I0J337500D01*
G01*
X133934840Y-97406340D01*
G75*
G02*
X134272340Y-97068840I337500J0D01*
G01*
G37*
G36*
G01*
X144048800Y-98319800D02*
X144723800Y-98319800D01*
G75*
G02*
X145061300Y-98657300I0J-337500D01*
G01*
X145061300Y-99357300D01*
G75*
G02*
X144723800Y-99694800I-337500J0D01*
G01*
X144048800Y-99694800D01*
G75*
G02*
X143711300Y-99357300I0J337500D01*
G01*
X143711300Y-98657300D01*
G75*
G02*
X144048800Y-98319800I337500J0D01*
G01*
G37*
G36*
G01*
X144048800Y-96494800D02*
X144723800Y-96494800D01*
G75*
G02*
X145061300Y-96832300I0J-337500D01*
G01*
X145061300Y-97532300D01*
G75*
G02*
X144723800Y-97869800I-337500J0D01*
G01*
X144048800Y-97869800D01*
G75*
G02*
X143711300Y-97532300I0J337500D01*
G01*
X143711300Y-96832300D01*
G75*
G02*
X144048800Y-96494800I337500J0D01*
G01*
G37*
G36*
G01*
X141775500Y-98096280D02*
X142450500Y-98096280D01*
G75*
G02*
X142788000Y-98433780I0J-337500D01*
G01*
X142788000Y-99133780D01*
G75*
G02*
X142450500Y-99471280I-337500J0D01*
G01*
X141775500Y-99471280D01*
G75*
G02*
X141438000Y-99133780I0J337500D01*
G01*
X141438000Y-98433780D01*
G75*
G02*
X141775500Y-98096280I337500J0D01*
G01*
G37*
G36*
G01*
X141775500Y-96271280D02*
X142450500Y-96271280D01*
G75*
G02*
X142788000Y-96608780I0J-337500D01*
G01*
X142788000Y-97308780D01*
G75*
G02*
X142450500Y-97646280I-337500J0D01*
G01*
X141775500Y-97646280D01*
G75*
G02*
X141438000Y-97308780I0J337500D01*
G01*
X141438000Y-96608780D01*
G75*
G02*
X141775500Y-96271280I337500J0D01*
G01*
G37*
G36*
G01*
X146796440Y-97633580D02*
X146121440Y-97633580D01*
G75*
G02*
X145783940Y-97296080I0J337500D01*
G01*
X145783940Y-96596080D01*
G75*
G02*
X146121440Y-96258580I337500J0D01*
G01*
X146796440Y-96258580D01*
G75*
G02*
X147133940Y-96596080I0J-337500D01*
G01*
X147133940Y-97296080D01*
G75*
G02*
X146796440Y-97633580I-337500J0D01*
G01*
G37*
G36*
G01*
X146796440Y-99458580D02*
X146121440Y-99458580D01*
G75*
G02*
X145783940Y-99121080I0J337500D01*
G01*
X145783940Y-98421080D01*
G75*
G02*
X146121440Y-98083580I337500J0D01*
G01*
X146796440Y-98083580D01*
G75*
G02*
X147133940Y-98421080I0J-337500D01*
G01*
X147133940Y-99121080D01*
G75*
G02*
X146796440Y-99458580I-337500J0D01*
G01*
G37*
G36*
G01*
X132194620Y-98914160D02*
X132869620Y-98914160D01*
G75*
G02*
X133207120Y-99251660I0J-337500D01*
G01*
X133207120Y-99951660D01*
G75*
G02*
X132869620Y-100289160I-337500J0D01*
G01*
X132194620Y-100289160D01*
G75*
G02*
X131857120Y-99951660I0J337500D01*
G01*
X131857120Y-99251660D01*
G75*
G02*
X132194620Y-98914160I337500J0D01*
G01*
G37*
G36*
G01*
X132194620Y-97089160D02*
X132869620Y-97089160D01*
G75*
G02*
X133207120Y-97426660I0J-337500D01*
G01*
X133207120Y-98126660D01*
G75*
G02*
X132869620Y-98464160I-337500J0D01*
G01*
X132194620Y-98464160D01*
G75*
G02*
X131857120Y-98126660I0J337500D01*
G01*
X131857120Y-97426660D01*
G75*
G02*
X132194620Y-97089160I337500J0D01*
G01*
G37*
G36*
G01*
X135919000Y-87610000D02*
X135919000Y-88285000D01*
G75*
G02*
X135581500Y-88622500I-337500J0D01*
G01*
X134881500Y-88622500D01*
G75*
G02*
X134544000Y-88285000I0J337500D01*
G01*
X134544000Y-87610000D01*
G75*
G02*
X134881500Y-87272500I337500J0D01*
G01*
X135581500Y-87272500D01*
G75*
G02*
X135919000Y-87610000I0J-337500D01*
G01*
G37*
G36*
G01*
X137744000Y-87610000D02*
X137744000Y-88285000D01*
G75*
G02*
X137406500Y-88622500I-337500J0D01*
G01*
X136706500Y-88622500D01*
G75*
G02*
X136369000Y-88285000I0J337500D01*
G01*
X136369000Y-87610000D01*
G75*
G02*
X136706500Y-87272500I337500J0D01*
G01*
X137406500Y-87272500D01*
G75*
G02*
X137744000Y-87610000I0J-337500D01*
G01*
G37*
G36*
G01*
X131849920Y-89675020D02*
X131849920Y-90350020D01*
G75*
G02*
X131512420Y-90687520I-337500J0D01*
G01*
X130812420Y-90687520D01*
G75*
G02*
X130474920Y-90350020I0J337500D01*
G01*
X130474920Y-89675020D01*
G75*
G02*
X130812420Y-89337520I337500J0D01*
G01*
X131512420Y-89337520D01*
G75*
G02*
X131849920Y-89675020I0J-337500D01*
G01*
G37*
G36*
G01*
X133674920Y-89675020D02*
X133674920Y-90350020D01*
G75*
G02*
X133337420Y-90687520I-337500J0D01*
G01*
X132637420Y-90687520D01*
G75*
G02*
X132299920Y-90350020I0J337500D01*
G01*
X132299920Y-89675020D01*
G75*
G02*
X132637420Y-89337520I337500J0D01*
G01*
X133337420Y-89337520D01*
G75*
G02*
X133674920Y-89675020I0J-337500D01*
G01*
G37*
G36*
G01*
X139680000Y-92681000D02*
X140355000Y-92681000D01*
G75*
G02*
X140692500Y-93018500I0J-337500D01*
G01*
X140692500Y-93718500D01*
G75*
G02*
X140355000Y-94056000I-337500J0D01*
G01*
X139680000Y-94056000D01*
G75*
G02*
X139342500Y-93718500I0J337500D01*
G01*
X139342500Y-93018500D01*
G75*
G02*
X139680000Y-92681000I337500J0D01*
G01*
G37*
G36*
G01*
X139680000Y-90856000D02*
X140355000Y-90856000D01*
G75*
G02*
X140692500Y-91193500I0J-337500D01*
G01*
X140692500Y-91893500D01*
G75*
G02*
X140355000Y-92231000I-337500J0D01*
G01*
X139680000Y-92231000D01*
G75*
G02*
X139342500Y-91893500I0J337500D01*
G01*
X139342500Y-91193500D01*
G75*
G02*
X139680000Y-90856000I337500J0D01*
G01*
G37*
G36*
G01*
X148174500Y-90150000D02*
X148174500Y-90825000D01*
G75*
G02*
X147837000Y-91162500I-337500J0D01*
G01*
X147137000Y-91162500D01*
G75*
G02*
X146799500Y-90825000I0J337500D01*
G01*
X146799500Y-90150000D01*
G75*
G02*
X147137000Y-89812500I337500J0D01*
G01*
X147837000Y-89812500D01*
G75*
G02*
X148174500Y-90150000I0J-337500D01*
G01*
G37*
G36*
G01*
X149999500Y-90150000D02*
X149999500Y-90825000D01*
G75*
G02*
X149662000Y-91162500I-337500J0D01*
G01*
X148962000Y-91162500D01*
G75*
G02*
X148624500Y-90825000I0J337500D01*
G01*
X148624500Y-90150000D01*
G75*
G02*
X148962000Y-89812500I337500J0D01*
G01*
X149662000Y-89812500D01*
G75*
G02*
X149999500Y-90150000I0J-337500D01*
G01*
G37*
D10*
X149910800Y-93980000D03*
G36*
G01*
X148644800Y-100857706D02*
X148644800Y-102037494D01*
G75*
G02*
X148309694Y-102372600I-335106J0D01*
G01*
X147404906Y-102372600D01*
G75*
G02*
X147069800Y-102037494I0J335106D01*
G01*
X147069800Y-100857706D01*
G75*
G02*
X147404906Y-100522600I335106J0D01*
G01*
X148309694Y-100522600D01*
G75*
G02*
X148644800Y-100857706I0J-335106D01*
G01*
G37*
G36*
G01*
X150719800Y-100857706D02*
X150719800Y-102037494D01*
G75*
G02*
X150384694Y-102372600I-335106J0D01*
G01*
X149479906Y-102372600D01*
G75*
G02*
X149144800Y-102037494I0J335106D01*
G01*
X149144800Y-100857706D01*
G75*
G02*
X149479906Y-100522600I335106J0D01*
G01*
X150384694Y-100522600D01*
G75*
G02*
X150719800Y-100857706I0J-335106D01*
G01*
G37*
D11*
X152848360Y-112457280D03*
X127848360Y-112457280D03*
X152848360Y-87457280D03*
X127848360Y-87457280D03*
G36*
G01*
X144195500Y-88701045D02*
X144195500Y-87574955D01*
G75*
G02*
X144532455Y-87238000I336955J0D01*
G01*
X145408545Y-87238000D01*
G75*
G02*
X145745500Y-87574955I0J-336955D01*
G01*
X145745500Y-88701045D01*
G75*
G02*
X145408545Y-89038000I-336955J0D01*
G01*
X144532455Y-89038000D01*
G75*
G02*
X144195500Y-88701045I0J336955D01*
G01*
G37*
G36*
G01*
X142145500Y-88701045D02*
X142145500Y-87574955D01*
G75*
G02*
X142482455Y-87238000I336955J0D01*
G01*
X143358545Y-87238000D01*
G75*
G02*
X143695500Y-87574955I0J-336955D01*
G01*
X143695500Y-88701045D01*
G75*
G02*
X143358545Y-89038000I-336955J0D01*
G01*
X142482455Y-89038000D01*
G75*
G02*
X142145500Y-88701045I0J336955D01*
G01*
G37*
G36*
G01*
X132345240Y-92776654D02*
X132345240Y-91596866D01*
G75*
G02*
X132680346Y-91261760I335106J0D01*
G01*
X133585134Y-91261760D01*
G75*
G02*
X133920240Y-91596866I0J-335106D01*
G01*
X133920240Y-92776654D01*
G75*
G02*
X133585134Y-93111760I-335106J0D01*
G01*
X132680346Y-93111760D01*
G75*
G02*
X132345240Y-92776654I0J335106D01*
G01*
G37*
G36*
G01*
X130270240Y-92776654D02*
X130270240Y-91596866D01*
G75*
G02*
X130605346Y-91261760I335106J0D01*
G01*
X131510134Y-91261760D01*
G75*
G02*
X131845240Y-91596866I0J-335106D01*
G01*
X131845240Y-92776654D01*
G75*
G02*
X131510134Y-93111760I-335106J0D01*
G01*
X130605346Y-93111760D01*
G75*
G02*
X130270240Y-92776654I0J335106D01*
G01*
G37*
G36*
G01*
X136607500Y-90709000D02*
X135807500Y-90709000D01*
G75*
G02*
X135607500Y-90509000I0J200000D01*
G01*
X135607500Y-89609000D01*
G75*
G02*
X135807500Y-89409000I200000J0D01*
G01*
X136607500Y-89409000D01*
G75*
G02*
X136807500Y-89609000I0J-200000D01*
G01*
X136807500Y-90509000D01*
G75*
G02*
X136607500Y-90709000I-200000J0D01*
G01*
G37*
G36*
G01*
X137557500Y-92709000D02*
X136757500Y-92709000D01*
G75*
G02*
X136557500Y-92509000I0J200000D01*
G01*
X136557500Y-91609000D01*
G75*
G02*
X136757500Y-91409000I200000J0D01*
G01*
X137557500Y-91409000D01*
G75*
G02*
X137757500Y-91609000I0J-200000D01*
G01*
X137757500Y-92509000D01*
G75*
G02*
X137557500Y-92709000I-200000J0D01*
G01*
G37*
G36*
G01*
X135657500Y-92709000D02*
X134857500Y-92709000D01*
G75*
G02*
X134657500Y-92509000I0J200000D01*
G01*
X134657500Y-91609000D01*
G75*
G02*
X134857500Y-91409000I200000J0D01*
G01*
X135657500Y-91409000D01*
G75*
G02*
X135857500Y-91609000I0J-200000D01*
G01*
X135857500Y-92509000D01*
G75*
G02*
X135657500Y-92709000I-200000J0D01*
G01*
G37*
G36*
G01*
X147440600Y-93452200D02*
X146640600Y-93452200D01*
G75*
G02*
X146440600Y-93252200I0J200000D01*
G01*
X146440600Y-92352200D01*
G75*
G02*
X146640600Y-92152200I200000J0D01*
G01*
X147440600Y-92152200D01*
G75*
G02*
X147640600Y-92352200I0J-200000D01*
G01*
X147640600Y-93252200D01*
G75*
G02*
X147440600Y-93452200I-200000J0D01*
G01*
G37*
G36*
G01*
X148390600Y-95452200D02*
X147590600Y-95452200D01*
G75*
G02*
X147390600Y-95252200I0J200000D01*
G01*
X147390600Y-94352200D01*
G75*
G02*
X147590600Y-94152200I200000J0D01*
G01*
X148390600Y-94152200D01*
G75*
G02*
X148590600Y-94352200I0J-200000D01*
G01*
X148590600Y-95252200D01*
G75*
G02*
X148390600Y-95452200I-200000J0D01*
G01*
G37*
G36*
G01*
X146490600Y-95452200D02*
X145690600Y-95452200D01*
G75*
G02*
X145490600Y-95252200I0J200000D01*
G01*
X145490600Y-94352200D01*
G75*
G02*
X145690600Y-94152200I200000J0D01*
G01*
X146490600Y-94152200D01*
G75*
G02*
X146690600Y-94352200I0J-200000D01*
G01*
X146690600Y-95252200D01*
G75*
G02*
X146490600Y-95452200I-200000J0D01*
G01*
G37*
G36*
G01*
X143440100Y-93462360D02*
X142640100Y-93462360D01*
G75*
G02*
X142440100Y-93262360I0J200000D01*
G01*
X142440100Y-92362360D01*
G75*
G02*
X142640100Y-92162360I200000J0D01*
G01*
X143440100Y-92162360D01*
G75*
G02*
X143640100Y-92362360I0J-200000D01*
G01*
X143640100Y-93262360D01*
G75*
G02*
X143440100Y-93462360I-200000J0D01*
G01*
G37*
G36*
G01*
X144390100Y-95462360D02*
X143590100Y-95462360D01*
G75*
G02*
X143390100Y-95262360I0J200000D01*
G01*
X143390100Y-94362360D01*
G75*
G02*
X143590100Y-94162360I200000J0D01*
G01*
X144390100Y-94162360D01*
G75*
G02*
X144590100Y-94362360I0J-200000D01*
G01*
X144590100Y-95262360D01*
G75*
G02*
X144390100Y-95462360I-200000J0D01*
G01*
G37*
G36*
G01*
X142490100Y-95462360D02*
X141690100Y-95462360D01*
G75*
G02*
X141490100Y-95262360I0J200000D01*
G01*
X141490100Y-94362360D01*
G75*
G02*
X141690100Y-94162360I200000J0D01*
G01*
X142490100Y-94162360D01*
G75*
G02*
X142690100Y-94362360I0J-200000D01*
G01*
X142690100Y-95262360D01*
G75*
G02*
X142490100Y-95462360I-200000J0D01*
G01*
G37*
D12*
X152694640Y-92684600D03*
G36*
G01*
X153744640Y-94374600D02*
X153744640Y-96074600D01*
G75*
G02*
X153544640Y-96274600I-200000J0D01*
G01*
X151844640Y-96274600D01*
G75*
G02*
X151644640Y-96074600I0J200000D01*
G01*
X151644640Y-94374600D01*
G75*
G02*
X151844640Y-94174600I200000J0D01*
G01*
X153544640Y-94174600D01*
G75*
G02*
X153744640Y-94374600I0J-200000D01*
G01*
G37*
X128219200Y-92527120D03*
G36*
G01*
X129269200Y-94217120D02*
X129269200Y-95917120D01*
G75*
G02*
X129069200Y-96117120I-200000J0D01*
G01*
X127369200Y-96117120D01*
G75*
G02*
X127169200Y-95917120I0J200000D01*
G01*
X127169200Y-94217120D01*
G75*
G02*
X127369200Y-94017120I200000J0D01*
G01*
X129069200Y-94017120D01*
G75*
G02*
X129269200Y-94217120I0J-200000D01*
G01*
G37*
G36*
G01*
X136485440Y-96256454D02*
X136485440Y-95076666D01*
G75*
G02*
X136820546Y-94741560I335106J0D01*
G01*
X137725334Y-94741560D01*
G75*
G02*
X138060440Y-95076666I0J-335106D01*
G01*
X138060440Y-96256454D01*
G75*
G02*
X137725334Y-96591560I-335106J0D01*
G01*
X136820546Y-96591560D01*
G75*
G02*
X136485440Y-96256454I0J335106D01*
G01*
G37*
G36*
G01*
X134410440Y-96256454D02*
X134410440Y-95076666D01*
G75*
G02*
X134745546Y-94741560I335106J0D01*
G01*
X135650334Y-94741560D01*
G75*
G02*
X135985440Y-95076666I0J-335106D01*
G01*
X135985440Y-96256454D01*
G75*
G02*
X135650334Y-96591560I-335106J0D01*
G01*
X134745546Y-96591560D01*
G75*
G02*
X134410440Y-96256454I0J335106D01*
G01*
G37*
G36*
G01*
X149624394Y-97984500D02*
X148444606Y-97984500D01*
G75*
G02*
X148109500Y-97649394I0J335106D01*
G01*
X148109500Y-96744606D01*
G75*
G02*
X148444606Y-96409500I335106J0D01*
G01*
X149624394Y-96409500D01*
G75*
G02*
X149959500Y-96744606I0J-335106D01*
G01*
X149959500Y-97649394D01*
G75*
G02*
X149624394Y-97984500I-335106J0D01*
G01*
G37*
G36*
G01*
X149624394Y-100059500D02*
X148444606Y-100059500D01*
G75*
G02*
X148109500Y-99724394I0J335106D01*
G01*
X148109500Y-98819606D01*
G75*
G02*
X148444606Y-98484500I335106J0D01*
G01*
X149624394Y-98484500D01*
G75*
G02*
X149959500Y-98819606I0J-335106D01*
G01*
X149959500Y-99724394D01*
G75*
G02*
X149624394Y-100059500I-335106J0D01*
G01*
G37*
G36*
G01*
X131906200Y-94360386D02*
X131906200Y-95540174D01*
G75*
G02*
X131571094Y-95875280I-335106J0D01*
G01*
X130666306Y-95875280D01*
G75*
G02*
X130331200Y-95540174I0J335106D01*
G01*
X130331200Y-94360386D01*
G75*
G02*
X130666306Y-94025280I335106J0D01*
G01*
X131571094Y-94025280D01*
G75*
G02*
X131906200Y-94360386I0J-335106D01*
G01*
G37*
G36*
G01*
X133981200Y-94360386D02*
X133981200Y-95540174D01*
G75*
G02*
X133646094Y-95875280I-335106J0D01*
G01*
X132741306Y-95875280D01*
G75*
G02*
X132406200Y-95540174I0J335106D01*
G01*
X132406200Y-94360386D01*
G75*
G02*
X132741306Y-94025280I335106J0D01*
G01*
X133646094Y-94025280D01*
G75*
G02*
X133981200Y-94360386I0J-335106D01*
G01*
G37*
G36*
G01*
X140480394Y-88015000D02*
X139300606Y-88015000D01*
G75*
G02*
X138965500Y-87679894I0J335106D01*
G01*
X138965500Y-86775106D01*
G75*
G02*
X139300606Y-86440000I335106J0D01*
G01*
X140480394Y-86440000D01*
G75*
G02*
X140815500Y-86775106I0J-335106D01*
G01*
X140815500Y-87679894D01*
G75*
G02*
X140480394Y-88015000I-335106J0D01*
G01*
G37*
G36*
G01*
X140480394Y-90090000D02*
X139300606Y-90090000D01*
G75*
G02*
X138965500Y-89754894I0J335106D01*
G01*
X138965500Y-88850106D01*
G75*
G02*
X139300606Y-88515000I335106J0D01*
G01*
X140480394Y-88515000D01*
G75*
G02*
X140815500Y-88850106I0J-335106D01*
G01*
X140815500Y-89754894D01*
G75*
G02*
X140480394Y-90090000I-335106J0D01*
G01*
G37*
X152679400Y-98958400D03*
G36*
G01*
X153729400Y-100648400D02*
X153729400Y-102348400D01*
G75*
G02*
X153529400Y-102548400I-200000J0D01*
G01*
X151829400Y-102548400D01*
G75*
G02*
X151629400Y-102348400I0J200000D01*
G01*
X151629400Y-100648400D01*
G75*
G02*
X151829400Y-100448400I200000J0D01*
G01*
X153529400Y-100448400D01*
G75*
G02*
X153729400Y-100648400I0J-200000D01*
G01*
G37*
G36*
G01*
X147859700Y-106393500D02*
X147059700Y-106393500D01*
G75*
G02*
X146859700Y-106193500I0J200000D01*
G01*
X146859700Y-105293500D01*
G75*
G02*
X147059700Y-105093500I200000J0D01*
G01*
X147859700Y-105093500D01*
G75*
G02*
X148059700Y-105293500I0J-200000D01*
G01*
X148059700Y-106193500D01*
G75*
G02*
X147859700Y-106393500I-200000J0D01*
G01*
G37*
G36*
G01*
X148809700Y-108393500D02*
X148009700Y-108393500D01*
G75*
G02*
X147809700Y-108193500I0J200000D01*
G01*
X147809700Y-107293500D01*
G75*
G02*
X148009700Y-107093500I200000J0D01*
G01*
X148809700Y-107093500D01*
G75*
G02*
X149009700Y-107293500I0J-200000D01*
G01*
X149009700Y-108193500D01*
G75*
G02*
X148809700Y-108393500I-200000J0D01*
G01*
G37*
G36*
G01*
X146909700Y-108393500D02*
X146109700Y-108393500D01*
G75*
G02*
X145909700Y-108193500I0J200000D01*
G01*
X145909700Y-107293500D01*
G75*
G02*
X146109700Y-107093500I200000J0D01*
G01*
X146909700Y-107093500D01*
G75*
G02*
X147109700Y-107293500I0J-200000D01*
G01*
X147109700Y-108193500D01*
G75*
G02*
X146909700Y-108393500I-200000J0D01*
G01*
G37*
G36*
G01*
X143719500Y-106393500D02*
X142919500Y-106393500D01*
G75*
G02*
X142719500Y-106193500I0J200000D01*
G01*
X142719500Y-105293500D01*
G75*
G02*
X142919500Y-105093500I200000J0D01*
G01*
X143719500Y-105093500D01*
G75*
G02*
X143919500Y-105293500I0J-200000D01*
G01*
X143919500Y-106193500D01*
G75*
G02*
X143719500Y-106393500I-200000J0D01*
G01*
G37*
G36*
G01*
X144669500Y-108393500D02*
X143869500Y-108393500D01*
G75*
G02*
X143669500Y-108193500I0J200000D01*
G01*
X143669500Y-107293500D01*
G75*
G02*
X143869500Y-107093500I200000J0D01*
G01*
X144669500Y-107093500D01*
G75*
G02*
X144869500Y-107293500I0J-200000D01*
G01*
X144869500Y-108193500D01*
G75*
G02*
X144669500Y-108393500I-200000J0D01*
G01*
G37*
G36*
G01*
X142769500Y-108393500D02*
X141969500Y-108393500D01*
G75*
G02*
X141769500Y-108193500I0J200000D01*
G01*
X141769500Y-107293500D01*
G75*
G02*
X141969500Y-107093500I200000J0D01*
G01*
X142769500Y-107093500D01*
G75*
G02*
X142969500Y-107293500I0J-200000D01*
G01*
X142969500Y-108193500D01*
G75*
G02*
X142769500Y-108393500I-200000J0D01*
G01*
G37*
G36*
G01*
X136798000Y-106634800D02*
X135998000Y-106634800D01*
G75*
G02*
X135798000Y-106434800I0J200000D01*
G01*
X135798000Y-105534800D01*
G75*
G02*
X135998000Y-105334800I200000J0D01*
G01*
X136798000Y-105334800D01*
G75*
G02*
X136998000Y-105534800I0J-200000D01*
G01*
X136998000Y-106434800D01*
G75*
G02*
X136798000Y-106634800I-200000J0D01*
G01*
G37*
G36*
G01*
X137748000Y-108634800D02*
X136948000Y-108634800D01*
G75*
G02*
X136748000Y-108434800I0J200000D01*
G01*
X136748000Y-107534800D01*
G75*
G02*
X136948000Y-107334800I200000J0D01*
G01*
X137748000Y-107334800D01*
G75*
G02*
X137948000Y-107534800I0J-200000D01*
G01*
X137948000Y-108434800D01*
G75*
G02*
X137748000Y-108634800I-200000J0D01*
G01*
G37*
G36*
G01*
X135848000Y-108634800D02*
X135048000Y-108634800D01*
G75*
G02*
X134848000Y-108434800I0J200000D01*
G01*
X134848000Y-107534800D01*
G75*
G02*
X135048000Y-107334800I200000J0D01*
G01*
X135848000Y-107334800D01*
G75*
G02*
X136048000Y-107534800I0J-200000D01*
G01*
X136048000Y-108434800D01*
G75*
G02*
X135848000Y-108634800I-200000J0D01*
G01*
G37*
G36*
G01*
X149129094Y-111306800D02*
X147949306Y-111306800D01*
G75*
G02*
X147614200Y-110971694I0J335106D01*
G01*
X147614200Y-110066906D01*
G75*
G02*
X147949306Y-109731800I335106J0D01*
G01*
X149129094Y-109731800D01*
G75*
G02*
X149464200Y-110066906I0J-335106D01*
G01*
X149464200Y-110971694D01*
G75*
G02*
X149129094Y-111306800I-335106J0D01*
G01*
G37*
G36*
G01*
X149129094Y-113381800D02*
X147949306Y-113381800D01*
G75*
G02*
X147614200Y-113046694I0J335106D01*
G01*
X147614200Y-112141906D01*
G75*
G02*
X147949306Y-111806800I335106J0D01*
G01*
X149129094Y-111806800D01*
G75*
G02*
X149464200Y-112141906I0J-335106D01*
G01*
X149464200Y-113046694D01*
G75*
G02*
X149129094Y-113381800I-335106J0D01*
G01*
G37*
G36*
G01*
X140564214Y-102137400D02*
X139384426Y-102137400D01*
G75*
G02*
X139049320Y-101802294I0J335106D01*
G01*
X139049320Y-100897506D01*
G75*
G02*
X139384426Y-100562400I335106J0D01*
G01*
X140564214Y-100562400D01*
G75*
G02*
X140899320Y-100897506I0J-335106D01*
G01*
X140899320Y-101802294D01*
G75*
G02*
X140564214Y-102137400I-335106J0D01*
G01*
G37*
G36*
G01*
X140564214Y-104212400D02*
X139384426Y-104212400D01*
G75*
G02*
X139049320Y-103877294I0J335106D01*
G01*
X139049320Y-102972506D01*
G75*
G02*
X139384426Y-102637400I335106J0D01*
G01*
X140564214Y-102637400D01*
G75*
G02*
X140899320Y-102972506I0J-335106D01*
G01*
X140899320Y-103877294D01*
G75*
G02*
X140564214Y-104212400I-335106J0D01*
G01*
G37*
G36*
G01*
X137949660Y-111303414D02*
X137949660Y-110123626D01*
G75*
G02*
X138284766Y-109788520I335106J0D01*
G01*
X139189554Y-109788520D01*
G75*
G02*
X139524660Y-110123626I0J-335106D01*
G01*
X139524660Y-111303414D01*
G75*
G02*
X139189554Y-111638520I-335106J0D01*
G01*
X138284766Y-111638520D01*
G75*
G02*
X137949660Y-111303414I0J335106D01*
G01*
G37*
G36*
G01*
X135874660Y-111303414D02*
X135874660Y-110123626D01*
G75*
G02*
X136209766Y-109788520I335106J0D01*
G01*
X137114554Y-109788520D01*
G75*
G02*
X137449660Y-110123626I0J-335106D01*
G01*
X137449660Y-111303414D01*
G75*
G02*
X137114554Y-111638520I-335106J0D01*
G01*
X136209766Y-111638520D01*
G75*
G02*
X135874660Y-111303414I0J335106D01*
G01*
G37*
G36*
G01*
X132250000Y-108589894D02*
X132250000Y-107410106D01*
G75*
G02*
X132585106Y-107075000I335106J0D01*
G01*
X133489894Y-107075000D01*
G75*
G02*
X133825000Y-107410106I0J-335106D01*
G01*
X133825000Y-108589894D01*
G75*
G02*
X133489894Y-108925000I-335106J0D01*
G01*
X132585106Y-108925000D01*
G75*
G02*
X132250000Y-108589894I0J335106D01*
G01*
G37*
G36*
G01*
X130175000Y-108589894D02*
X130175000Y-107410106D01*
G75*
G02*
X130510106Y-107075000I335106J0D01*
G01*
X131414894Y-107075000D01*
G75*
G02*
X131750000Y-107410106I0J-335106D01*
G01*
X131750000Y-108589894D01*
G75*
G02*
X131414894Y-108925000I-335106J0D01*
G01*
X130510106Y-108925000D01*
G75*
G02*
X130175000Y-108589894I0J335106D01*
G01*
G37*
G36*
G01*
X131957000Y-109493706D02*
X131957000Y-110673494D01*
G75*
G02*
X131621894Y-111008600I-335106J0D01*
G01*
X130717106Y-111008600D01*
G75*
G02*
X130382000Y-110673494I0J335106D01*
G01*
X130382000Y-109493706D01*
G75*
G02*
X130717106Y-109158600I335106J0D01*
G01*
X131621894Y-109158600D01*
G75*
G02*
X131957000Y-109493706I0J-335106D01*
G01*
G37*
G36*
G01*
X134032000Y-109493706D02*
X134032000Y-110673494D01*
G75*
G02*
X133696894Y-111008600I-335106J0D01*
G01*
X132792106Y-111008600D01*
G75*
G02*
X132457000Y-110673494I0J335106D01*
G01*
X132457000Y-109493706D01*
G75*
G02*
X132792106Y-109158600I335106J0D01*
G01*
X133696894Y-109158600D01*
G75*
G02*
X134032000Y-109493706I0J-335106D01*
G01*
G37*
X152628600Y-105283000D03*
G36*
G01*
X153678600Y-106973000D02*
X153678600Y-108673000D01*
G75*
G02*
X153478600Y-108873000I-200000J0D01*
G01*
X151778600Y-108873000D01*
G75*
G02*
X151578600Y-108673000I0J200000D01*
G01*
X151578600Y-106973000D01*
G75*
G02*
X151778600Y-106773000I200000J0D01*
G01*
X153478600Y-106773000D01*
G75*
G02*
X153678600Y-106973000I0J-200000D01*
G01*
G37*
X128016000Y-105232200D03*
G36*
G01*
X129066000Y-106922200D02*
X129066000Y-108622200D01*
G75*
G02*
X128866000Y-108822200I-200000J0D01*
G01*
X127166000Y-108822200D01*
G75*
G02*
X126966000Y-108622200I0J200000D01*
G01*
X126966000Y-106922200D01*
G75*
G02*
X127166000Y-106722200I200000J0D01*
G01*
X128866000Y-106722200D01*
G75*
G02*
X129066000Y-106922200I0J-200000D01*
G01*
G37*
M02*
