G04 #@! TF.GenerationSoftware,KiCad,Pcbnew,5.99.0+really5.1.10+dfsg1-1*
G04 #@! TF.CreationDate,2022-01-15T17:01:17+02:00*
G04 #@! TF.ProjectId,tia,7469612e-6b69-4636-9164-5f7063625858,rev?*
G04 #@! TF.SameCoordinates,Original*
G04 #@! TF.FileFunction,Legend,Top*
G04 #@! TF.FilePolarity,Positive*
%FSLAX46Y46*%
G04 Gerber Fmt 4.6, Leading zero omitted, Abs format (unit mm)*
G04 Created by KiCad (PCBNEW 5.99.0+really5.1.10+dfsg1-1) date 2022-01-15 17:01:17*
%MOMM*%
%LPD*%
G01*
G04 APERTURE LIST*
%ADD10C,0.187500*%
%ADD11C,0.150000*%
%ADD12C,0.250000*%
%ADD13C,0.120000*%
%ADD14C,1.400000*%
%ADD15C,5.400000*%
%ADD16O,2.100000X2.100000*%
G04 APERTURE END LIST*
D10*
X142256000Y-86597685D02*
X142256000Y-85847685D01*
X142541714Y-85847685D01*
X142613142Y-85883400D01*
X142648857Y-85919114D01*
X142684571Y-85990542D01*
X142684571Y-86097685D01*
X142648857Y-86169114D01*
X142613142Y-86204828D01*
X142541714Y-86240542D01*
X142256000Y-86240542D01*
X142934571Y-85847685D02*
X143113142Y-86597685D01*
X143256000Y-86061971D01*
X143398857Y-86597685D01*
X143577428Y-85847685D01*
X144291714Y-86597685D02*
X144041714Y-86240542D01*
X143863142Y-86597685D02*
X143863142Y-85847685D01*
X144148857Y-85847685D01*
X144220285Y-85883400D01*
X144256000Y-85919114D01*
X144291714Y-85990542D01*
X144291714Y-86097685D01*
X144256000Y-86169114D01*
X144220285Y-86204828D01*
X144148857Y-86240542D01*
X143863142Y-86240542D01*
D11*
X145288000Y-102260400D02*
X146888200Y-101854000D01*
X129489200Y-103708200D02*
X130048000Y-107950000D01*
D12*
X127792219Y-97627700D02*
X127792219Y-96961034D01*
X127792219Y-96627700D02*
X127744600Y-96675320D01*
X127792219Y-96722939D01*
X127839838Y-96675320D01*
X127792219Y-96627700D01*
X127792219Y-96722939D01*
X128268409Y-96961034D02*
X128268409Y-97627700D01*
X128268409Y-97056272D02*
X128316028Y-97008653D01*
X128411266Y-96961034D01*
X128554123Y-96961034D01*
X128649361Y-97008653D01*
X128696980Y-97103891D01*
X128696980Y-97627700D01*
X126339860Y-95590620D02*
X125673194Y-95590620D01*
X125339860Y-95590620D02*
X125387480Y-95638240D01*
X125435099Y-95590620D01*
X125387480Y-95543001D01*
X125339860Y-95590620D01*
X125435099Y-95590620D01*
X125673194Y-95114430D02*
X126339860Y-95114430D01*
X125768432Y-95114430D02*
X125720813Y-95066811D01*
X125673194Y-94971573D01*
X125673194Y-94828716D01*
X125720813Y-94733478D01*
X125816051Y-94685859D01*
X126339860Y-94685859D01*
X125362080Y-92979144D02*
X125314460Y-93074382D01*
X125314460Y-93217240D01*
X125362080Y-93360097D01*
X125457318Y-93455335D01*
X125552556Y-93502954D01*
X125743032Y-93550573D01*
X125885889Y-93550573D01*
X126076365Y-93502954D01*
X126171603Y-93455335D01*
X126266841Y-93360097D01*
X126314460Y-93217240D01*
X126314460Y-93122001D01*
X126266841Y-92979144D01*
X126219222Y-92931525D01*
X125885889Y-92931525D01*
X125885889Y-93122001D01*
X126314460Y-92502954D02*
X125314460Y-92502954D01*
X126314460Y-91931525D01*
X125314460Y-91931525D01*
X126314460Y-91455335D02*
X125314460Y-91455335D01*
X125314460Y-91217240D01*
X125362080Y-91074382D01*
X125457318Y-90979144D01*
X125552556Y-90931525D01*
X125743032Y-90883906D01*
X125885889Y-90883906D01*
X126076365Y-90931525D01*
X126171603Y-90979144D01*
X126266841Y-91074382D01*
X126314460Y-91217240D01*
X126314460Y-91455335D01*
X155265380Y-96318603D02*
X155217761Y-96413841D01*
X155170142Y-96461460D01*
X155074904Y-96509080D01*
X154789190Y-96509080D01*
X154693952Y-96461460D01*
X154646333Y-96413841D01*
X154598714Y-96318603D01*
X154598714Y-96175746D01*
X154646333Y-96080508D01*
X154693952Y-96032889D01*
X154789190Y-95985270D01*
X155074904Y-95985270D01*
X155170142Y-96032889D01*
X155217761Y-96080508D01*
X155265380Y-96175746D01*
X155265380Y-96318603D01*
X154598714Y-95128127D02*
X155265380Y-95128127D01*
X154598714Y-95556699D02*
X155122523Y-95556699D01*
X155217761Y-95509080D01*
X155265380Y-95413841D01*
X155265380Y-95270984D01*
X155217761Y-95175746D01*
X155170142Y-95128127D01*
X154598714Y-94794794D02*
X154598714Y-94413841D01*
X154265380Y-94651937D02*
X155122523Y-94651937D01*
X155217761Y-94604318D01*
X155265380Y-94509080D01*
X155265380Y-94413841D01*
X154399360Y-93106144D02*
X154351740Y-93201382D01*
X154351740Y-93344240D01*
X154399360Y-93487097D01*
X154494598Y-93582335D01*
X154589836Y-93629954D01*
X154780312Y-93677573D01*
X154923169Y-93677573D01*
X155113645Y-93629954D01*
X155208883Y-93582335D01*
X155304121Y-93487097D01*
X155351740Y-93344240D01*
X155351740Y-93249001D01*
X155304121Y-93106144D01*
X155256502Y-93058525D01*
X154923169Y-93058525D01*
X154923169Y-93249001D01*
X155351740Y-92629954D02*
X154351740Y-92629954D01*
X155351740Y-92058525D01*
X154351740Y-92058525D01*
X155351740Y-91582335D02*
X154351740Y-91582335D01*
X154351740Y-91344240D01*
X154399360Y-91201382D01*
X154494598Y-91106144D01*
X154589836Y-91058525D01*
X154780312Y-91010906D01*
X154923169Y-91010906D01*
X155113645Y-91058525D01*
X155208883Y-91106144D01*
X155304121Y-91201382D01*
X155351740Y-91344240D01*
X155351740Y-91582335D01*
X126220480Y-109672380D02*
X125553814Y-109672380D01*
X125220480Y-109672380D02*
X125268100Y-109720000D01*
X125315719Y-109672380D01*
X125268100Y-109624761D01*
X125220480Y-109672380D01*
X125315719Y-109672380D01*
X125553814Y-109196190D02*
X126220480Y-109196190D01*
X125649052Y-109196190D02*
X125601433Y-109148571D01*
X125553814Y-109053333D01*
X125553814Y-108910476D01*
X125601433Y-108815238D01*
X125696671Y-108767619D01*
X126220480Y-108767619D01*
X125369700Y-107187904D02*
X125322080Y-107283142D01*
X125322080Y-107426000D01*
X125369700Y-107568857D01*
X125464938Y-107664095D01*
X125560176Y-107711714D01*
X125750652Y-107759333D01*
X125893509Y-107759333D01*
X126083985Y-107711714D01*
X126179223Y-107664095D01*
X126274461Y-107568857D01*
X126322080Y-107426000D01*
X126322080Y-107330761D01*
X126274461Y-107187904D01*
X126226842Y-107140285D01*
X125893509Y-107140285D01*
X125893509Y-107330761D01*
X126322080Y-106711714D02*
X125322080Y-106711714D01*
X126322080Y-106140285D01*
X125322080Y-106140285D01*
X126322080Y-105664095D02*
X125322080Y-105664095D01*
X125322080Y-105426000D01*
X125369700Y-105283142D01*
X125464938Y-105187904D01*
X125560176Y-105140285D01*
X125750652Y-105092666D01*
X125893509Y-105092666D01*
X126083985Y-105140285D01*
X126179223Y-105187904D01*
X126274461Y-105283142D01*
X126322080Y-105426000D01*
X126322080Y-105664095D01*
X155214580Y-109394523D02*
X155166961Y-109489761D01*
X155119342Y-109537380D01*
X155024104Y-109585000D01*
X154738390Y-109585000D01*
X154643152Y-109537380D01*
X154595533Y-109489761D01*
X154547914Y-109394523D01*
X154547914Y-109251666D01*
X154595533Y-109156428D01*
X154643152Y-109108809D01*
X154738390Y-109061190D01*
X155024104Y-109061190D01*
X155119342Y-109108809D01*
X155166961Y-109156428D01*
X155214580Y-109251666D01*
X155214580Y-109394523D01*
X154547914Y-108204047D02*
X155214580Y-108204047D01*
X154547914Y-108632619D02*
X155071723Y-108632619D01*
X155166961Y-108585000D01*
X155214580Y-108489761D01*
X155214580Y-108346904D01*
X155166961Y-108251666D01*
X155119342Y-108204047D01*
X154547914Y-107870714D02*
X154547914Y-107489761D01*
X154214580Y-107727857D02*
X155071723Y-107727857D01*
X155166961Y-107680238D01*
X155214580Y-107585000D01*
X155214580Y-107489761D01*
X154338400Y-106349704D02*
X154290780Y-106444942D01*
X154290780Y-106587800D01*
X154338400Y-106730657D01*
X154433638Y-106825895D01*
X154528876Y-106873514D01*
X154719352Y-106921133D01*
X154862209Y-106921133D01*
X155052685Y-106873514D01*
X155147923Y-106825895D01*
X155243161Y-106730657D01*
X155290780Y-106587800D01*
X155290780Y-106492561D01*
X155243161Y-106349704D01*
X155195542Y-106302085D01*
X154862209Y-106302085D01*
X154862209Y-106492561D01*
X155290780Y-105873514D02*
X154290780Y-105873514D01*
X155290780Y-105302085D01*
X154290780Y-105302085D01*
X155290780Y-104825895D02*
X154290780Y-104825895D01*
X154290780Y-104587800D01*
X154338400Y-104444942D01*
X154433638Y-104349704D01*
X154528876Y-104302085D01*
X154719352Y-104254466D01*
X154862209Y-104254466D01*
X155052685Y-104302085D01*
X155147923Y-104349704D01*
X155243161Y-104444942D01*
X155290780Y-104587800D01*
X155290780Y-104825895D01*
X154414600Y-99669504D02*
X154366980Y-99764742D01*
X154366980Y-99907600D01*
X154414600Y-100050457D01*
X154509838Y-100145695D01*
X154605076Y-100193314D01*
X154795552Y-100240933D01*
X154938409Y-100240933D01*
X155128885Y-100193314D01*
X155224123Y-100145695D01*
X155319361Y-100050457D01*
X155366980Y-99907600D01*
X155366980Y-99812361D01*
X155319361Y-99669504D01*
X155271742Y-99621885D01*
X154938409Y-99621885D01*
X154938409Y-99812361D01*
X155366980Y-99193314D02*
X154366980Y-99193314D01*
X155366980Y-98621885D01*
X154366980Y-98621885D01*
X155366980Y-98145695D02*
X154366980Y-98145695D01*
X154366980Y-97907600D01*
X154414600Y-97764742D01*
X154509838Y-97669504D01*
X154605076Y-97621885D01*
X154795552Y-97574266D01*
X154938409Y-97574266D01*
X155128885Y-97621885D01*
X155224123Y-97669504D01*
X155319361Y-97764742D01*
X155366980Y-97907600D01*
X155366980Y-98145695D01*
X155366980Y-102752447D02*
X155366980Y-103323876D01*
X155366980Y-103038161D02*
X154366980Y-103038161D01*
X154509838Y-103133400D01*
X154605076Y-103228638D01*
X154652695Y-103323876D01*
X154462219Y-102371495D02*
X154414600Y-102323876D01*
X154366980Y-102228638D01*
X154366980Y-101990542D01*
X154414600Y-101895304D01*
X154462219Y-101847685D01*
X154557457Y-101800066D01*
X154652695Y-101800066D01*
X154795552Y-101847685D01*
X155366980Y-102419114D01*
X155366980Y-101800066D01*
X154366980Y-101514352D02*
X155366980Y-101181019D01*
X154366980Y-100847685D01*
D10*
X129560514Y-83819835D02*
X129989085Y-83819835D01*
X129774800Y-84569835D02*
X129774800Y-83819835D01*
X130239085Y-84176978D02*
X130489085Y-84176978D01*
X130596228Y-84569835D02*
X130239085Y-84569835D01*
X130239085Y-83819835D01*
X130596228Y-83819835D01*
X131346228Y-84569835D02*
X131096228Y-84212692D01*
X130917657Y-84569835D02*
X130917657Y-83819835D01*
X131203371Y-83819835D01*
X131274800Y-83855550D01*
X131310514Y-83891264D01*
X131346228Y-83962692D01*
X131346228Y-84069835D01*
X131310514Y-84141264D01*
X131274800Y-84176978D01*
X131203371Y-84212692D01*
X130917657Y-84212692D01*
X131667657Y-84569835D02*
X131667657Y-83819835D01*
X131917657Y-84355550D01*
X132167657Y-83819835D01*
X132167657Y-84569835D01*
X132524800Y-84569835D02*
X132524800Y-83819835D01*
X132881942Y-84569835D02*
X132881942Y-83819835D01*
X133310514Y-84569835D01*
X133310514Y-83819835D01*
X133631942Y-84355550D02*
X133989085Y-84355550D01*
X133560514Y-84569835D02*
X133810514Y-83819835D01*
X134060514Y-84569835D01*
X134203371Y-83819835D02*
X134631942Y-83819835D01*
X134417657Y-84569835D02*
X134417657Y-83819835D01*
X134881942Y-84569835D02*
X134881942Y-83819835D01*
X135381942Y-83819835D02*
X135524800Y-83819835D01*
X135596228Y-83855550D01*
X135667657Y-83926978D01*
X135703371Y-84069835D01*
X135703371Y-84319835D01*
X135667657Y-84462692D01*
X135596228Y-84534121D01*
X135524800Y-84569835D01*
X135381942Y-84569835D01*
X135310514Y-84534121D01*
X135239085Y-84462692D01*
X135203371Y-84319835D01*
X135203371Y-84069835D01*
X135239085Y-83926978D01*
X135310514Y-83855550D01*
X135381942Y-83819835D01*
X136024800Y-84569835D02*
X136024800Y-83819835D01*
X136453371Y-84569835D01*
X136453371Y-83819835D01*
X137381942Y-84569835D02*
X137381942Y-83819835D01*
X137739085Y-84569835D02*
X137739085Y-83819835D01*
X138167657Y-84569835D01*
X138167657Y-83819835D01*
X138489085Y-84534121D02*
X138596228Y-84569835D01*
X138774800Y-84569835D01*
X138846228Y-84534121D01*
X138881942Y-84498407D01*
X138917657Y-84426978D01*
X138917657Y-84355550D01*
X138881942Y-84284121D01*
X138846228Y-84248407D01*
X138774800Y-84212692D01*
X138631942Y-84176978D01*
X138560514Y-84141264D01*
X138524800Y-84105550D01*
X138489085Y-84034121D01*
X138489085Y-83962692D01*
X138524800Y-83891264D01*
X138560514Y-83855550D01*
X138631942Y-83819835D01*
X138810514Y-83819835D01*
X138917657Y-83855550D01*
X139239085Y-84176978D02*
X139489085Y-84176978D01*
X139596228Y-84569835D02*
X139239085Y-84569835D01*
X139239085Y-83819835D01*
X139596228Y-83819835D01*
X139917657Y-84569835D02*
X139917657Y-83819835D01*
X140346228Y-84569835D01*
X140346228Y-83819835D01*
X140667657Y-84534121D02*
X140774800Y-84569835D01*
X140953371Y-84569835D01*
X141024800Y-84534121D01*
X141060514Y-84498407D01*
X141096228Y-84426978D01*
X141096228Y-84355550D01*
X141060514Y-84284121D01*
X141024800Y-84248407D01*
X140953371Y-84212692D01*
X140810514Y-84176978D01*
X140739085Y-84141264D01*
X140703371Y-84105550D01*
X140667657Y-84034121D01*
X140667657Y-83962692D01*
X140703371Y-83891264D01*
X140739085Y-83855550D01*
X140810514Y-83819835D01*
X140989085Y-83819835D01*
X141096228Y-83855550D01*
X141417657Y-84569835D02*
X141417657Y-83819835D01*
X141667657Y-83819835D02*
X142096228Y-83819835D01*
X141881942Y-84569835D02*
X141881942Y-83819835D01*
X142346228Y-84569835D02*
X142346228Y-83819835D01*
X142596228Y-83819835D02*
X142846228Y-84569835D01*
X143096228Y-83819835D01*
X143346228Y-84176978D02*
X143596228Y-84176978D01*
X143703371Y-84569835D02*
X143346228Y-84569835D01*
X143346228Y-83819835D01*
X143703371Y-83819835D01*
X144596228Y-84569835D02*
X144596228Y-83819835D01*
X145203371Y-84176978D02*
X144953371Y-84176978D01*
X144953371Y-84569835D02*
X144953371Y-83819835D01*
X145310514Y-83819835D01*
X146131942Y-84355550D02*
X146489085Y-84355550D01*
X146060514Y-84569835D02*
X146310514Y-83819835D01*
X146560514Y-84569835D01*
X146810514Y-84569835D02*
X146810514Y-83819835D01*
X147060514Y-84355550D01*
X147310514Y-83819835D01*
X147310514Y-84569835D01*
X147667657Y-84569835D02*
X147667657Y-83819835D01*
X147953371Y-83819835D01*
X148024800Y-83855550D01*
X148060514Y-83891264D01*
X148096228Y-83962692D01*
X148096228Y-84069835D01*
X148060514Y-84141264D01*
X148024800Y-84176978D01*
X147953371Y-84212692D01*
X147667657Y-84212692D01*
X149239085Y-84176978D02*
X149346228Y-84212692D01*
X149381942Y-84248407D01*
X149417657Y-84319835D01*
X149417657Y-84426978D01*
X149381942Y-84498407D01*
X149346228Y-84534121D01*
X149274800Y-84569835D01*
X148989085Y-84569835D01*
X148989085Y-83819835D01*
X149239085Y-83819835D01*
X149310514Y-83855550D01*
X149346228Y-83891264D01*
X149381942Y-83962692D01*
X149381942Y-84034121D01*
X149346228Y-84105550D01*
X149310514Y-84141264D01*
X149239085Y-84176978D01*
X148989085Y-84176978D01*
X149881942Y-83819835D02*
X150024800Y-83819835D01*
X150096228Y-83855550D01*
X150167657Y-83926978D01*
X150203371Y-84069835D01*
X150203371Y-84319835D01*
X150167657Y-84462692D01*
X150096228Y-84534121D01*
X150024800Y-84569835D01*
X149881942Y-84569835D01*
X149810514Y-84534121D01*
X149739085Y-84462692D01*
X149703371Y-84319835D01*
X149703371Y-84069835D01*
X149739085Y-83926978D01*
X149810514Y-83855550D01*
X149881942Y-83819835D01*
X150489085Y-84355550D02*
X150846228Y-84355550D01*
X150417657Y-84569835D02*
X150667657Y-83819835D01*
X150917657Y-84569835D01*
X151596228Y-84569835D02*
X151346228Y-84212692D01*
X151167657Y-84569835D02*
X151167657Y-83819835D01*
X151453371Y-83819835D01*
X151524800Y-83855550D01*
X151560514Y-83891264D01*
X151596228Y-83962692D01*
X151596228Y-84069835D01*
X151560514Y-84141264D01*
X151524800Y-84176978D01*
X151453371Y-84212692D01*
X151167657Y-84212692D01*
X151917657Y-84569835D02*
X151917657Y-83819835D01*
X152096228Y-83819835D01*
X152203371Y-83855550D01*
X152274800Y-83926978D01*
X152310514Y-83998407D01*
X152346228Y-84141264D01*
X152346228Y-84248407D01*
X152310514Y-84391264D01*
X152274800Y-84462692D01*
X152203371Y-84534121D01*
X152096228Y-84569835D01*
X151917657Y-84569835D01*
X133328371Y-85132335D02*
X133471228Y-85132335D01*
X133542657Y-85168050D01*
X133614085Y-85239478D01*
X133649800Y-85382335D01*
X133649800Y-85632335D01*
X133614085Y-85775192D01*
X133542657Y-85846621D01*
X133471228Y-85882335D01*
X133328371Y-85882335D01*
X133256942Y-85846621D01*
X133185514Y-85775192D01*
X133149800Y-85632335D01*
X133149800Y-85382335D01*
X133185514Y-85239478D01*
X133256942Y-85168050D01*
X133328371Y-85132335D01*
X133971228Y-85882335D02*
X133971228Y-85132335D01*
X133971228Y-85489478D02*
X134399800Y-85489478D01*
X134399800Y-85882335D02*
X134399800Y-85132335D01*
X134685514Y-85132335D02*
X135149800Y-85132335D01*
X134899800Y-85418050D01*
X135006942Y-85418050D01*
X135078371Y-85453764D01*
X135114085Y-85489478D01*
X135149800Y-85560907D01*
X135149800Y-85739478D01*
X135114085Y-85810907D01*
X135078371Y-85846621D01*
X135006942Y-85882335D01*
X134792657Y-85882335D01*
X134721228Y-85846621D01*
X134685514Y-85810907D01*
X135471228Y-85882335D02*
X135471228Y-85132335D01*
X135471228Y-85489478D02*
X135899800Y-85489478D01*
X135899800Y-85882335D02*
X135899800Y-85132335D01*
X136185514Y-85132335D02*
X136685514Y-85132335D01*
X136185514Y-85882335D01*
X136685514Y-85882335D01*
X137221228Y-85489478D02*
X137328371Y-85525192D01*
X137364085Y-85560907D01*
X137399800Y-85632335D01*
X137399800Y-85739478D01*
X137364085Y-85810907D01*
X137328371Y-85846621D01*
X137256942Y-85882335D01*
X136971228Y-85882335D01*
X136971228Y-85132335D01*
X137221228Y-85132335D01*
X137292657Y-85168050D01*
X137328371Y-85203764D01*
X137364085Y-85275192D01*
X137364085Y-85346621D01*
X137328371Y-85418050D01*
X137292657Y-85453764D01*
X137221228Y-85489478D01*
X136971228Y-85489478D01*
X138256942Y-85203764D02*
X138292657Y-85168050D01*
X138364085Y-85132335D01*
X138542657Y-85132335D01*
X138614085Y-85168050D01*
X138649800Y-85203764D01*
X138685514Y-85275192D01*
X138685514Y-85346621D01*
X138649800Y-85453764D01*
X138221228Y-85882335D01*
X138685514Y-85882335D01*
X139149800Y-85132335D02*
X139221228Y-85132335D01*
X139292657Y-85168050D01*
X139328371Y-85203764D01*
X139364085Y-85275192D01*
X139399800Y-85418050D01*
X139399800Y-85596621D01*
X139364085Y-85739478D01*
X139328371Y-85810907D01*
X139292657Y-85846621D01*
X139221228Y-85882335D01*
X139149800Y-85882335D01*
X139078371Y-85846621D01*
X139042657Y-85810907D01*
X139006942Y-85739478D01*
X138971228Y-85596621D01*
X138971228Y-85418050D01*
X139006942Y-85275192D01*
X139042657Y-85203764D01*
X139078371Y-85168050D01*
X139149800Y-85132335D01*
X139685514Y-85203764D02*
X139721228Y-85168050D01*
X139792657Y-85132335D01*
X139971228Y-85132335D01*
X140042657Y-85168050D01*
X140078371Y-85203764D01*
X140114085Y-85275192D01*
X140114085Y-85346621D01*
X140078371Y-85453764D01*
X139649800Y-85882335D01*
X140114085Y-85882335D01*
X140399800Y-85203764D02*
X140435514Y-85168050D01*
X140506942Y-85132335D01*
X140685514Y-85132335D01*
X140756942Y-85168050D01*
X140792657Y-85203764D01*
X140828371Y-85275192D01*
X140828371Y-85346621D01*
X140792657Y-85453764D01*
X140364085Y-85882335D01*
X140828371Y-85882335D01*
D13*
X139130300Y-113745276D02*
X139130300Y-114254724D01*
X138085300Y-113745276D02*
X138085300Y-114254724D01*
X137030500Y-113745276D02*
X137030500Y-114254724D01*
X135985500Y-113745276D02*
X135985500Y-114254724D01*
X144515100Y-110860116D02*
X144515100Y-111369564D01*
X143470100Y-110860116D02*
X143470100Y-111369564D01*
X142335780Y-110885516D02*
X142335780Y-111394964D01*
X141290780Y-110885516D02*
X141290780Y-111394964D01*
X145679900Y-111278124D02*
X145679900Y-110768676D01*
X146724900Y-111278124D02*
X146724900Y-110768676D01*
X133676920Y-113745276D02*
X133676920Y-114254724D01*
X132631920Y-113745276D02*
X132631920Y-114254724D01*
X136817824Y-104154500D02*
X136308376Y-104154500D01*
X136817824Y-103109500D02*
X136308376Y-103109500D01*
X132283924Y-106491300D02*
X131774476Y-106491300D01*
X132283924Y-105446300D02*
X131774476Y-105446300D01*
X140522500Y-106495276D02*
X140522500Y-107004724D01*
X139477500Y-106495276D02*
X139477500Y-107004724D01*
X148001444Y-104281500D02*
X147491996Y-104281500D01*
X148001444Y-103236500D02*
X147491996Y-103236500D01*
X148019224Y-88724000D02*
X147509776Y-88724000D01*
X148019224Y-87679000D02*
X147509776Y-87679000D01*
X137230380Y-98434436D02*
X137230380Y-98943884D01*
X136185380Y-98434436D02*
X136185380Y-98943884D01*
X135132340Y-98414116D02*
X135132340Y-98923564D01*
X134087340Y-98414116D02*
X134087340Y-98923564D01*
X144908800Y-97840076D02*
X144908800Y-98349524D01*
X143863800Y-97840076D02*
X143863800Y-98349524D01*
X142635500Y-97616556D02*
X142635500Y-98126004D01*
X141590500Y-97616556D02*
X141590500Y-98126004D01*
X145936440Y-98113304D02*
X145936440Y-97603856D01*
X146981440Y-98113304D02*
X146981440Y-97603856D01*
X133054620Y-98434436D02*
X133054620Y-98943884D01*
X132009620Y-98434436D02*
X132009620Y-98943884D01*
X136398724Y-88470000D02*
X135889276Y-88470000D01*
X136398724Y-87425000D02*
X135889276Y-87425000D01*
X132329644Y-90535020D02*
X131820196Y-90535020D01*
X132329644Y-89490020D02*
X131820196Y-89490020D01*
X140540000Y-92201276D02*
X140540000Y-92710724D01*
X139495000Y-92201276D02*
X139495000Y-92710724D01*
X148654224Y-91010000D02*
X148144776Y-91010000D01*
X148654224Y-89965000D02*
X148144776Y-89965000D01*
X150610800Y-93980000D02*
G75*
G03*
X150610800Y-93980000I-700000J0D01*
G01*
X149156052Y-100712600D02*
X148633548Y-100712600D01*
X149156052Y-102182600D02*
X148633548Y-102182600D01*
X142085500Y-89098000D02*
X144945500Y-89098000D01*
X142085500Y-87178000D02*
X142085500Y-89098000D01*
X144945500Y-87178000D02*
X142085500Y-87178000D01*
X131833988Y-92921760D02*
X132356492Y-92921760D01*
X131833988Y-91451760D02*
X132356492Y-91451760D01*
X137787500Y-90299000D02*
X137787500Y-91759000D01*
X134627500Y-90299000D02*
X134627500Y-92459000D01*
X134627500Y-90299000D02*
X135557500Y-90299000D01*
X137787500Y-90299000D02*
X136857500Y-90299000D01*
X148620600Y-93042200D02*
X148620600Y-94502200D01*
X145460600Y-93042200D02*
X145460600Y-95202200D01*
X145460600Y-93042200D02*
X146390600Y-93042200D01*
X148620600Y-93042200D02*
X147690600Y-93042200D01*
X144620100Y-93052360D02*
X144620100Y-94512360D01*
X141460100Y-93052360D02*
X141460100Y-95212360D01*
X141460100Y-93052360D02*
X142390100Y-93052360D01*
X144620100Y-93052360D02*
X143690100Y-93052360D01*
X154024640Y-96554600D02*
X152694640Y-96554600D01*
X154024640Y-95224600D02*
X154024640Y-96554600D01*
X154024640Y-93954600D02*
X151364640Y-93954600D01*
X151364640Y-93954600D02*
X151364640Y-91354600D01*
X154024640Y-93954600D02*
X154024640Y-91354600D01*
X154024640Y-91354600D02*
X151364640Y-91354600D01*
X129549200Y-96397120D02*
X128219200Y-96397120D01*
X129549200Y-95067120D02*
X129549200Y-96397120D01*
X129549200Y-93797120D02*
X126889200Y-93797120D01*
X126889200Y-93797120D02*
X126889200Y-91197120D01*
X129549200Y-93797120D02*
X129549200Y-91197120D01*
X129549200Y-91197120D02*
X126889200Y-91197120D01*
X135974188Y-96401560D02*
X136496692Y-96401560D01*
X135974188Y-94931560D02*
X136496692Y-94931560D01*
X149769500Y-98495752D02*
X149769500Y-97973248D01*
X148299500Y-98495752D02*
X148299500Y-97973248D01*
X132417452Y-94215280D02*
X131894948Y-94215280D01*
X132417452Y-95685280D02*
X131894948Y-95685280D01*
X140625500Y-88526252D02*
X140625500Y-88003748D01*
X139155500Y-88526252D02*
X139155500Y-88003748D01*
X154009400Y-102828400D02*
X152679400Y-102828400D01*
X154009400Y-101498400D02*
X154009400Y-102828400D01*
X154009400Y-100228400D02*
X151349400Y-100228400D01*
X151349400Y-100228400D02*
X151349400Y-97628400D01*
X154009400Y-100228400D02*
X154009400Y-97628400D01*
X154009400Y-97628400D02*
X151349400Y-97628400D01*
X149039700Y-105983500D02*
X149039700Y-107443500D01*
X145879700Y-105983500D02*
X145879700Y-108143500D01*
X145879700Y-105983500D02*
X146809700Y-105983500D01*
X149039700Y-105983500D02*
X148109700Y-105983500D01*
X144899500Y-105983500D02*
X144899500Y-107443500D01*
X141739500Y-105983500D02*
X141739500Y-108143500D01*
X141739500Y-105983500D02*
X142669500Y-105983500D01*
X144899500Y-105983500D02*
X143969500Y-105983500D01*
X137978000Y-106224800D02*
X137978000Y-107684800D01*
X134818000Y-106224800D02*
X134818000Y-108384800D01*
X134818000Y-106224800D02*
X135748000Y-106224800D01*
X137978000Y-106224800D02*
X137048000Y-106224800D01*
X149274200Y-111818052D02*
X149274200Y-111295548D01*
X147804200Y-111818052D02*
X147804200Y-111295548D01*
X140709320Y-102648652D02*
X140709320Y-102126148D01*
X139239320Y-102648652D02*
X139239320Y-102126148D01*
X137438408Y-111448520D02*
X137960912Y-111448520D01*
X137438408Y-109978520D02*
X137960912Y-109978520D01*
X131738748Y-108735000D02*
X132261252Y-108735000D01*
X131738748Y-107265000D02*
X132261252Y-107265000D01*
X132468252Y-109348600D02*
X131945748Y-109348600D01*
X132468252Y-110818600D02*
X131945748Y-110818600D01*
X153958600Y-109153000D02*
X152628600Y-109153000D01*
X153958600Y-107823000D02*
X153958600Y-109153000D01*
X153958600Y-106553000D02*
X151298600Y-106553000D01*
X151298600Y-106553000D02*
X151298600Y-103953000D01*
X153958600Y-106553000D02*
X153958600Y-103953000D01*
X153958600Y-103953000D02*
X151298600Y-103953000D01*
X129346000Y-109102200D02*
X128016000Y-109102200D01*
X129346000Y-107772200D02*
X129346000Y-109102200D01*
X129346000Y-106502200D02*
X126686000Y-106502200D01*
X126686000Y-106502200D02*
X126686000Y-103902200D01*
X129346000Y-106502200D02*
X129346000Y-103902200D01*
X129346000Y-103902200D02*
X126686000Y-103902200D01*
D11*
X140673080Y-114828557D02*
X140196890Y-115161890D01*
X140673080Y-115399985D02*
X139673080Y-115399985D01*
X139673080Y-115019033D01*
X139720700Y-114923795D01*
X139768319Y-114876176D01*
X139863557Y-114828557D01*
X140006414Y-114828557D01*
X140101652Y-114876176D01*
X140149271Y-114923795D01*
X140196890Y-115019033D01*
X140196890Y-115399985D01*
X139768319Y-114447604D02*
X139720700Y-114399985D01*
X139673080Y-114304747D01*
X139673080Y-114066652D01*
X139720700Y-113971414D01*
X139768319Y-113923795D01*
X139863557Y-113876176D01*
X139958795Y-113876176D01*
X140101652Y-113923795D01*
X140673080Y-114495223D01*
X140673080Y-113876176D01*
X140673080Y-112923795D02*
X140673080Y-113495223D01*
X140673080Y-113209509D02*
X139673080Y-113209509D01*
X139815938Y-113304747D01*
X139911176Y-113399985D01*
X139958795Y-113495223D01*
X135478780Y-114066557D02*
X135002590Y-114399890D01*
X135478780Y-114637985D02*
X134478780Y-114637985D01*
X134478780Y-114257033D01*
X134526400Y-114161795D01*
X134574019Y-114114176D01*
X134669257Y-114066557D01*
X134812114Y-114066557D01*
X134907352Y-114114176D01*
X134954971Y-114161795D01*
X135002590Y-114257033D01*
X135002590Y-114637985D01*
X134574019Y-113685604D02*
X134526400Y-113637985D01*
X134478780Y-113542747D01*
X134478780Y-113304652D01*
X134526400Y-113209414D01*
X134574019Y-113161795D01*
X134669257Y-113114176D01*
X134764495Y-113114176D01*
X134907352Y-113161795D01*
X135478780Y-113733223D01*
X135478780Y-113114176D01*
X134478780Y-112495128D02*
X134478780Y-112399890D01*
X134526400Y-112304652D01*
X134574019Y-112257033D01*
X134669257Y-112209414D01*
X134859733Y-112161795D01*
X135097828Y-112161795D01*
X135288304Y-112209414D01*
X135383542Y-112257033D01*
X135431161Y-112304652D01*
X135478780Y-112399890D01*
X135478780Y-112495128D01*
X135431161Y-112590366D01*
X135383542Y-112637985D01*
X135288304Y-112685604D01*
X135097828Y-112733223D01*
X134859733Y-112733223D01*
X134669257Y-112685604D01*
X134574019Y-112637985D01*
X134526400Y-112590366D01*
X134478780Y-112495128D01*
X144698980Y-115196857D02*
X144222790Y-115530190D01*
X144698980Y-115768285D02*
X143698980Y-115768285D01*
X143698980Y-115387333D01*
X143746600Y-115292095D01*
X143794219Y-115244476D01*
X143889457Y-115196857D01*
X144032314Y-115196857D01*
X144127552Y-115244476D01*
X144175171Y-115292095D01*
X144222790Y-115387333D01*
X144222790Y-115768285D01*
X144698980Y-114244476D02*
X144698980Y-114815904D01*
X144698980Y-114530190D02*
X143698980Y-114530190D01*
X143841838Y-114625428D01*
X143937076Y-114720666D01*
X143984695Y-114815904D01*
X144698980Y-113768285D02*
X144698980Y-113577809D01*
X144651361Y-113482571D01*
X144603742Y-113434952D01*
X144460885Y-113339714D01*
X144270409Y-113292095D01*
X143889457Y-113292095D01*
X143794219Y-113339714D01*
X143746600Y-113387333D01*
X143698980Y-113482571D01*
X143698980Y-113673047D01*
X143746600Y-113768285D01*
X143794219Y-113815904D01*
X143889457Y-113863523D01*
X144127552Y-113863523D01*
X144222790Y-113815904D01*
X144270409Y-113768285D01*
X144318028Y-113673047D01*
X144318028Y-113482571D01*
X144270409Y-113387333D01*
X144222790Y-113339714D01*
X144127552Y-113292095D01*
X142641580Y-115146057D02*
X142165390Y-115479390D01*
X142641580Y-115717485D02*
X141641580Y-115717485D01*
X141641580Y-115336533D01*
X141689200Y-115241295D01*
X141736819Y-115193676D01*
X141832057Y-115146057D01*
X141974914Y-115146057D01*
X142070152Y-115193676D01*
X142117771Y-115241295D01*
X142165390Y-115336533D01*
X142165390Y-115717485D01*
X142641580Y-114193676D02*
X142641580Y-114765104D01*
X142641580Y-114479390D02*
X141641580Y-114479390D01*
X141784438Y-114574628D01*
X141879676Y-114669866D01*
X141927295Y-114765104D01*
X142070152Y-113622247D02*
X142022533Y-113717485D01*
X141974914Y-113765104D01*
X141879676Y-113812723D01*
X141832057Y-113812723D01*
X141736819Y-113765104D01*
X141689200Y-113717485D01*
X141641580Y-113622247D01*
X141641580Y-113431771D01*
X141689200Y-113336533D01*
X141736819Y-113288914D01*
X141832057Y-113241295D01*
X141879676Y-113241295D01*
X141974914Y-113288914D01*
X142022533Y-113336533D01*
X142070152Y-113431771D01*
X142070152Y-113622247D01*
X142117771Y-113717485D01*
X142165390Y-113765104D01*
X142260628Y-113812723D01*
X142451104Y-113812723D01*
X142546342Y-113765104D01*
X142593961Y-113717485D01*
X142641580Y-113622247D01*
X142641580Y-113431771D01*
X142593961Y-113336533D01*
X142546342Y-113288914D01*
X142451104Y-113241295D01*
X142260628Y-113241295D01*
X142165390Y-113288914D01*
X142117771Y-113336533D01*
X142070152Y-113431771D01*
X146756380Y-114968257D02*
X146280190Y-115301590D01*
X146756380Y-115539685D02*
X145756380Y-115539685D01*
X145756380Y-115158733D01*
X145804000Y-115063495D01*
X145851619Y-115015876D01*
X145946857Y-114968257D01*
X146089714Y-114968257D01*
X146184952Y-115015876D01*
X146232571Y-115063495D01*
X146280190Y-115158733D01*
X146280190Y-115539685D01*
X146756380Y-114015876D02*
X146756380Y-114587304D01*
X146756380Y-114301590D02*
X145756380Y-114301590D01*
X145899238Y-114396828D01*
X145994476Y-114492066D01*
X146042095Y-114587304D01*
X145756380Y-113682542D02*
X145756380Y-113015876D01*
X146756380Y-113444447D01*
X132049780Y-114434857D02*
X131573590Y-114768190D01*
X132049780Y-115006285D02*
X131049780Y-115006285D01*
X131049780Y-114625333D01*
X131097400Y-114530095D01*
X131145019Y-114482476D01*
X131240257Y-114434857D01*
X131383114Y-114434857D01*
X131478352Y-114482476D01*
X131525971Y-114530095D01*
X131573590Y-114625333D01*
X131573590Y-115006285D01*
X132049780Y-113482476D02*
X132049780Y-114053904D01*
X132049780Y-113768190D02*
X131049780Y-113768190D01*
X131192638Y-113863428D01*
X131287876Y-113958666D01*
X131335495Y-114053904D01*
X131049780Y-112625333D02*
X131049780Y-112815809D01*
X131097400Y-112911047D01*
X131145019Y-112958666D01*
X131287876Y-113053904D01*
X131478352Y-113101523D01*
X131859304Y-113101523D01*
X131954542Y-113053904D01*
X132002161Y-113006285D01*
X132049780Y-112911047D01*
X132049780Y-112720571D01*
X132002161Y-112625333D01*
X131954542Y-112577714D01*
X131859304Y-112530095D01*
X131621209Y-112530095D01*
X131525971Y-112577714D01*
X131478352Y-112625333D01*
X131430733Y-112720571D01*
X131430733Y-112911047D01*
X131478352Y-113006285D01*
X131525971Y-113053904D01*
X131621209Y-113101523D01*
X136618742Y-102725480D02*
X136285409Y-102249290D01*
X136047314Y-102725480D02*
X136047314Y-101725480D01*
X136428266Y-101725480D01*
X136523504Y-101773100D01*
X136571123Y-101820719D01*
X136618742Y-101915957D01*
X136618742Y-102058814D01*
X136571123Y-102154052D01*
X136523504Y-102201671D01*
X136428266Y-102249290D01*
X136047314Y-102249290D01*
X137571123Y-102725480D02*
X136999695Y-102725480D01*
X137285409Y-102725480D02*
X137285409Y-101725480D01*
X137190171Y-101868338D01*
X137094933Y-101963576D01*
X136999695Y-102011195D01*
X138475885Y-101725480D02*
X137999695Y-101725480D01*
X137952076Y-102201671D01*
X137999695Y-102154052D01*
X138094933Y-102106433D01*
X138333028Y-102106433D01*
X138428266Y-102154052D01*
X138475885Y-102201671D01*
X138523504Y-102296909D01*
X138523504Y-102535004D01*
X138475885Y-102630242D01*
X138428266Y-102677861D01*
X138333028Y-102725480D01*
X138094933Y-102725480D01*
X137999695Y-102677861D01*
X137952076Y-102630242D01*
X131030742Y-104935280D02*
X130697409Y-104459090D01*
X130459314Y-104935280D02*
X130459314Y-103935280D01*
X130840266Y-103935280D01*
X130935504Y-103982900D01*
X130983123Y-104030519D01*
X131030742Y-104125757D01*
X131030742Y-104268614D01*
X130983123Y-104363852D01*
X130935504Y-104411471D01*
X130840266Y-104459090D01*
X130459314Y-104459090D01*
X131983123Y-104935280D02*
X131411695Y-104935280D01*
X131697409Y-104935280D02*
X131697409Y-103935280D01*
X131602171Y-104078138D01*
X131506933Y-104173376D01*
X131411695Y-104220995D01*
X132840266Y-104268614D02*
X132840266Y-104935280D01*
X132602171Y-103887661D02*
X132364076Y-104601947D01*
X132983123Y-104601947D01*
X139149080Y-106573557D02*
X138672890Y-106906890D01*
X139149080Y-107144985D02*
X138149080Y-107144985D01*
X138149080Y-106764033D01*
X138196700Y-106668795D01*
X138244319Y-106621176D01*
X138339557Y-106573557D01*
X138482414Y-106573557D01*
X138577652Y-106621176D01*
X138625271Y-106668795D01*
X138672890Y-106764033D01*
X138672890Y-107144985D01*
X139149080Y-105621176D02*
X139149080Y-106192604D01*
X139149080Y-105906890D02*
X138149080Y-105906890D01*
X138291938Y-106002128D01*
X138387176Y-106097366D01*
X138434795Y-106192604D01*
X138149080Y-105287842D02*
X138149080Y-104668795D01*
X138530033Y-105002128D01*
X138530033Y-104859271D01*
X138577652Y-104764033D01*
X138625271Y-104716414D01*
X138720509Y-104668795D01*
X138958604Y-104668795D01*
X139053842Y-104716414D01*
X139101461Y-104764033D01*
X139149080Y-104859271D01*
X139149080Y-105144985D01*
X139101461Y-105240223D01*
X139053842Y-105287842D01*
X144073642Y-104249480D02*
X143740309Y-103773290D01*
X143502214Y-104249480D02*
X143502214Y-103249480D01*
X143883166Y-103249480D01*
X143978404Y-103297100D01*
X144026023Y-103344719D01*
X144073642Y-103439957D01*
X144073642Y-103582814D01*
X144026023Y-103678052D01*
X143978404Y-103725671D01*
X143883166Y-103773290D01*
X143502214Y-103773290D01*
X145026023Y-104249480D02*
X144454595Y-104249480D01*
X144740309Y-104249480D02*
X144740309Y-103249480D01*
X144645071Y-103392338D01*
X144549833Y-103487576D01*
X144454595Y-103535195D01*
X145406976Y-103344719D02*
X145454595Y-103297100D01*
X145549833Y-103249480D01*
X145787928Y-103249480D01*
X145883166Y-103297100D01*
X145930785Y-103344719D01*
X145978404Y-103439957D01*
X145978404Y-103535195D01*
X145930785Y-103678052D01*
X145359357Y-104249480D01*
X145978404Y-104249480D01*
X147159742Y-87269580D02*
X146826409Y-86793390D01*
X146588314Y-87269580D02*
X146588314Y-86269580D01*
X146969266Y-86269580D01*
X147064504Y-86317200D01*
X147112123Y-86364819D01*
X147159742Y-86460057D01*
X147159742Y-86602914D01*
X147112123Y-86698152D01*
X147064504Y-86745771D01*
X146969266Y-86793390D01*
X146588314Y-86793390D01*
X148112123Y-87269580D02*
X147540695Y-87269580D01*
X147826409Y-87269580D02*
X147826409Y-86269580D01*
X147731171Y-86412438D01*
X147635933Y-86507676D01*
X147540695Y-86555295D01*
X149064504Y-87269580D02*
X148493076Y-87269580D01*
X148778790Y-87269580D02*
X148778790Y-86269580D01*
X148683552Y-86412438D01*
X148588314Y-86507676D01*
X148493076Y-86555295D01*
X138590260Y-99332017D02*
X138114070Y-99665350D01*
X138590260Y-99903445D02*
X137590260Y-99903445D01*
X137590260Y-99522493D01*
X137637880Y-99427255D01*
X137685499Y-99379636D01*
X137780737Y-99332017D01*
X137923594Y-99332017D01*
X138018832Y-99379636D01*
X138066451Y-99427255D01*
X138114070Y-99522493D01*
X138114070Y-99903445D01*
X138590260Y-98379636D02*
X138590260Y-98951064D01*
X138590260Y-98665350D02*
X137590260Y-98665350D01*
X137733118Y-98760588D01*
X137828356Y-98855826D01*
X137875975Y-98951064D01*
X137590260Y-97760588D02*
X137590260Y-97665350D01*
X137637880Y-97570112D01*
X137685499Y-97522493D01*
X137780737Y-97474874D01*
X137971213Y-97427255D01*
X138209308Y-97427255D01*
X138399784Y-97474874D01*
X138495022Y-97522493D01*
X138542641Y-97570112D01*
X138590260Y-97665350D01*
X138590260Y-97760588D01*
X138542641Y-97855826D01*
X138495022Y-97903445D01*
X138399784Y-97951064D01*
X138209308Y-97998683D01*
X137971213Y-97998683D01*
X137780737Y-97951064D01*
X137685499Y-97903445D01*
X137637880Y-97855826D01*
X137590260Y-97760588D01*
X134297680Y-101512666D02*
X133821490Y-101846000D01*
X134297680Y-102084095D02*
X133297680Y-102084095D01*
X133297680Y-101703142D01*
X133345300Y-101607904D01*
X133392919Y-101560285D01*
X133488157Y-101512666D01*
X133631014Y-101512666D01*
X133726252Y-101560285D01*
X133773871Y-101607904D01*
X133821490Y-101703142D01*
X133821490Y-102084095D01*
X134297680Y-101036476D02*
X134297680Y-100846000D01*
X134250061Y-100750761D01*
X134202442Y-100703142D01*
X134059585Y-100607904D01*
X133869109Y-100560285D01*
X133488157Y-100560285D01*
X133392919Y-100607904D01*
X133345300Y-100655523D01*
X133297680Y-100750761D01*
X133297680Y-100941238D01*
X133345300Y-101036476D01*
X133392919Y-101084095D01*
X133488157Y-101131714D01*
X133726252Y-101131714D01*
X133821490Y-101084095D01*
X133869109Y-101036476D01*
X133916728Y-100941238D01*
X133916728Y-100750761D01*
X133869109Y-100655523D01*
X133821490Y-100607904D01*
X133726252Y-100560285D01*
X144775180Y-100903066D02*
X144298990Y-101236400D01*
X144775180Y-101474495D02*
X143775180Y-101474495D01*
X143775180Y-101093542D01*
X143822800Y-100998304D01*
X143870419Y-100950685D01*
X143965657Y-100903066D01*
X144108514Y-100903066D01*
X144203752Y-100950685D01*
X144251371Y-100998304D01*
X144298990Y-101093542D01*
X144298990Y-101474495D01*
X144203752Y-100331638D02*
X144156133Y-100426876D01*
X144108514Y-100474495D01*
X144013276Y-100522114D01*
X143965657Y-100522114D01*
X143870419Y-100474495D01*
X143822800Y-100426876D01*
X143775180Y-100331638D01*
X143775180Y-100141161D01*
X143822800Y-100045923D01*
X143870419Y-99998304D01*
X143965657Y-99950685D01*
X144013276Y-99950685D01*
X144108514Y-99998304D01*
X144156133Y-100045923D01*
X144203752Y-100141161D01*
X144203752Y-100331638D01*
X144251371Y-100426876D01*
X144298990Y-100474495D01*
X144394228Y-100522114D01*
X144584704Y-100522114D01*
X144679942Y-100474495D01*
X144727561Y-100426876D01*
X144775180Y-100331638D01*
X144775180Y-100141161D01*
X144727561Y-100045923D01*
X144679942Y-99998304D01*
X144584704Y-99950685D01*
X144394228Y-99950685D01*
X144298990Y-99998304D01*
X144251371Y-100045923D01*
X144203752Y-100141161D01*
X143289280Y-100776066D02*
X142813090Y-101109400D01*
X143289280Y-101347495D02*
X142289280Y-101347495D01*
X142289280Y-100966542D01*
X142336900Y-100871304D01*
X142384519Y-100823685D01*
X142479757Y-100776066D01*
X142622614Y-100776066D01*
X142717852Y-100823685D01*
X142765471Y-100871304D01*
X142813090Y-100966542D01*
X142813090Y-101347495D01*
X142289280Y-100442733D02*
X142289280Y-99776066D01*
X143289280Y-100204638D01*
X146273780Y-100623666D02*
X145797590Y-100957000D01*
X146273780Y-101195095D02*
X145273780Y-101195095D01*
X145273780Y-100814142D01*
X145321400Y-100718904D01*
X145369019Y-100671285D01*
X145464257Y-100623666D01*
X145607114Y-100623666D01*
X145702352Y-100671285D01*
X145749971Y-100718904D01*
X145797590Y-100814142D01*
X145797590Y-101195095D01*
X145273780Y-99766523D02*
X145273780Y-99957000D01*
X145321400Y-100052238D01*
X145369019Y-100099857D01*
X145511876Y-100195095D01*
X145702352Y-100242714D01*
X146083304Y-100242714D01*
X146178542Y-100195095D01*
X146226161Y-100147476D01*
X146273780Y-100052238D01*
X146273780Y-99861761D01*
X146226161Y-99766523D01*
X146178542Y-99718904D01*
X146083304Y-99671285D01*
X145845209Y-99671285D01*
X145749971Y-99718904D01*
X145702352Y-99766523D01*
X145654733Y-99861761D01*
X145654733Y-100052238D01*
X145702352Y-100147476D01*
X145749971Y-100195095D01*
X145845209Y-100242714D01*
X131567180Y-98972666D02*
X131090990Y-99306000D01*
X131567180Y-99544095D02*
X130567180Y-99544095D01*
X130567180Y-99163142D01*
X130614800Y-99067904D01*
X130662419Y-99020285D01*
X130757657Y-98972666D01*
X130900514Y-98972666D01*
X130995752Y-99020285D01*
X131043371Y-99067904D01*
X131090990Y-99163142D01*
X131090990Y-99544095D01*
X130567180Y-98067904D02*
X130567180Y-98544095D01*
X131043371Y-98591714D01*
X130995752Y-98544095D01*
X130948133Y-98448857D01*
X130948133Y-98210761D01*
X130995752Y-98115523D01*
X131043371Y-98067904D01*
X131138609Y-98020285D01*
X131376704Y-98020285D01*
X131471942Y-98067904D01*
X131519561Y-98115523D01*
X131567180Y-98210761D01*
X131567180Y-98448857D01*
X131519561Y-98544095D01*
X131471942Y-98591714D01*
X133119833Y-88349080D02*
X132786500Y-87872890D01*
X132548404Y-88349080D02*
X132548404Y-87349080D01*
X132929357Y-87349080D01*
X133024595Y-87396700D01*
X133072214Y-87444319D01*
X133119833Y-87539557D01*
X133119833Y-87682414D01*
X133072214Y-87777652D01*
X133024595Y-87825271D01*
X132929357Y-87872890D01*
X132548404Y-87872890D01*
X133976976Y-87682414D02*
X133976976Y-88349080D01*
X133738880Y-87301461D02*
X133500785Y-88015747D01*
X134119833Y-88015747D01*
X131908253Y-91894900D02*
X131574920Y-91418710D01*
X131336824Y-91894900D02*
X131336824Y-90894900D01*
X131717777Y-90894900D01*
X131813015Y-90942520D01*
X131860634Y-90990139D01*
X131908253Y-91085377D01*
X131908253Y-91228234D01*
X131860634Y-91323472D01*
X131813015Y-91371091D01*
X131717777Y-91418710D01*
X131336824Y-91418710D01*
X132241586Y-90894900D02*
X132860634Y-90894900D01*
X132527300Y-91275853D01*
X132670158Y-91275853D01*
X132765396Y-91323472D01*
X132813015Y-91371091D01*
X132860634Y-91466329D01*
X132860634Y-91704424D01*
X132813015Y-91799662D01*
X132765396Y-91847281D01*
X132670158Y-91894900D01*
X132384443Y-91894900D01*
X132289205Y-91847281D01*
X132241586Y-91799662D01*
X139085580Y-92546466D02*
X138609390Y-92879800D01*
X139085580Y-93117895D02*
X138085580Y-93117895D01*
X138085580Y-92736942D01*
X138133200Y-92641704D01*
X138180819Y-92594085D01*
X138276057Y-92546466D01*
X138418914Y-92546466D01*
X138514152Y-92594085D01*
X138561771Y-92641704D01*
X138609390Y-92736942D01*
X138609390Y-93117895D01*
X138180819Y-92165514D02*
X138133200Y-92117895D01*
X138085580Y-92022657D01*
X138085580Y-91784561D01*
X138133200Y-91689323D01*
X138180819Y-91641704D01*
X138276057Y-91594085D01*
X138371295Y-91594085D01*
X138514152Y-91641704D01*
X139085580Y-92213133D01*
X139085580Y-91594085D01*
X150836333Y-91079580D02*
X150503000Y-90603390D01*
X150264904Y-91079580D02*
X150264904Y-90079580D01*
X150645857Y-90079580D01*
X150741095Y-90127200D01*
X150788714Y-90174819D01*
X150836333Y-90270057D01*
X150836333Y-90412914D01*
X150788714Y-90508152D01*
X150741095Y-90555771D01*
X150645857Y-90603390D01*
X150264904Y-90603390D01*
X151788714Y-91079580D02*
X151217285Y-91079580D01*
X151503000Y-91079580D02*
X151503000Y-90079580D01*
X151407761Y-90222438D01*
X151312523Y-90317676D01*
X151217285Y-90365295D01*
X143070342Y-102668342D02*
X143022723Y-102715961D01*
X142879866Y-102763580D01*
X142784628Y-102763580D01*
X142641771Y-102715961D01*
X142546533Y-102620723D01*
X142498914Y-102525485D01*
X142451295Y-102335009D01*
X142451295Y-102192152D01*
X142498914Y-102001676D01*
X142546533Y-101906438D01*
X142641771Y-101811200D01*
X142784628Y-101763580D01*
X142879866Y-101763580D01*
X143022723Y-101811200D01*
X143070342Y-101858819D01*
X144022723Y-102763580D02*
X143451295Y-102763580D01*
X143737009Y-102763580D02*
X143737009Y-101763580D01*
X143641771Y-101906438D01*
X143546533Y-102001676D01*
X143451295Y-102049295D01*
X144975104Y-102763580D02*
X144403676Y-102763580D01*
X144689390Y-102763580D02*
X144689390Y-101763580D01*
X144594152Y-101906438D01*
X144498914Y-102001676D01*
X144403676Y-102049295D01*
X143953004Y-90330280D02*
X143953004Y-89330280D01*
X144191100Y-89330280D01*
X144333957Y-89377900D01*
X144429195Y-89473138D01*
X144476814Y-89568376D01*
X144524433Y-89758852D01*
X144524433Y-89901709D01*
X144476814Y-90092185D01*
X144429195Y-90187423D01*
X144333957Y-90282661D01*
X144191100Y-90330280D01*
X143953004Y-90330280D01*
X145476814Y-90330280D02*
X144905385Y-90330280D01*
X145191100Y-90330280D02*
X145191100Y-89330280D01*
X145095861Y-89473138D01*
X145000623Y-89568376D01*
X144905385Y-89615995D01*
X130734773Y-93925662D02*
X130687154Y-93973281D01*
X130544297Y-94020900D01*
X130449059Y-94020900D01*
X130306201Y-93973281D01*
X130210963Y-93878043D01*
X130163344Y-93782805D01*
X130115725Y-93592329D01*
X130115725Y-93449472D01*
X130163344Y-93258996D01*
X130210963Y-93163758D01*
X130306201Y-93068520D01*
X130449059Y-93020900D01*
X130544297Y-93020900D01*
X130687154Y-93068520D01*
X130734773Y-93116139D01*
X131115725Y-93116139D02*
X131163344Y-93068520D01*
X131258582Y-93020900D01*
X131496678Y-93020900D01*
X131591916Y-93068520D01*
X131639535Y-93116139D01*
X131687154Y-93211377D01*
X131687154Y-93306615D01*
X131639535Y-93449472D01*
X131068106Y-94020900D01*
X131687154Y-94020900D01*
X134854961Y-89777819D02*
X134759723Y-89730200D01*
X134664485Y-89634961D01*
X134521628Y-89492104D01*
X134426390Y-89444485D01*
X134331152Y-89444485D01*
X134378771Y-89682580D02*
X134283533Y-89634961D01*
X134188295Y-89539723D01*
X134140676Y-89349247D01*
X134140676Y-89015914D01*
X134188295Y-88825438D01*
X134283533Y-88730200D01*
X134378771Y-88682580D01*
X134569247Y-88682580D01*
X134664485Y-88730200D01*
X134759723Y-88825438D01*
X134807342Y-89015914D01*
X134807342Y-89349247D01*
X134759723Y-89539723D01*
X134664485Y-89634961D01*
X134569247Y-89682580D01*
X134378771Y-89682580D01*
X135664485Y-88682580D02*
X135474009Y-88682580D01*
X135378771Y-88730200D01*
X135331152Y-88777819D01*
X135235914Y-88920676D01*
X135188295Y-89111152D01*
X135188295Y-89492104D01*
X135235914Y-89587342D01*
X135283533Y-89634961D01*
X135378771Y-89682580D01*
X135569247Y-89682580D01*
X135664485Y-89634961D01*
X135712104Y-89587342D01*
X135759723Y-89492104D01*
X135759723Y-89254009D01*
X135712104Y-89158771D01*
X135664485Y-89111152D01*
X135569247Y-89063533D01*
X135378771Y-89063533D01*
X135283533Y-89111152D01*
X135235914Y-89158771D01*
X135188295Y-89254009D01*
X145484861Y-92409259D02*
X145389623Y-92361640D01*
X145294385Y-92266401D01*
X145151528Y-92123544D01*
X145056290Y-92075925D01*
X144961052Y-92075925D01*
X145008671Y-92314020D02*
X144913433Y-92266401D01*
X144818195Y-92171163D01*
X144770576Y-91980687D01*
X144770576Y-91647354D01*
X144818195Y-91456878D01*
X144913433Y-91361640D01*
X145008671Y-91314020D01*
X145199147Y-91314020D01*
X145294385Y-91361640D01*
X145389623Y-91456878D01*
X145437242Y-91647354D01*
X145437242Y-91980687D01*
X145389623Y-92171163D01*
X145294385Y-92266401D01*
X145199147Y-92314020D01*
X145008671Y-92314020D01*
X146342004Y-91314020D02*
X145865814Y-91314020D01*
X145818195Y-91790211D01*
X145865814Y-91742592D01*
X145961052Y-91694973D01*
X146199147Y-91694973D01*
X146294385Y-91742592D01*
X146342004Y-91790211D01*
X146389623Y-91885449D01*
X146389623Y-92123544D01*
X146342004Y-92218782D01*
X146294385Y-92266401D01*
X146199147Y-92314020D01*
X145961052Y-92314020D01*
X145865814Y-92266401D01*
X145818195Y-92218782D01*
X142525761Y-92114619D02*
X142430523Y-92067000D01*
X142335285Y-91971761D01*
X142192428Y-91828904D01*
X142097190Y-91781285D01*
X142001952Y-91781285D01*
X142049571Y-92019380D02*
X141954333Y-91971761D01*
X141859095Y-91876523D01*
X141811476Y-91686047D01*
X141811476Y-91352714D01*
X141859095Y-91162238D01*
X141954333Y-91067000D01*
X142049571Y-91019380D01*
X142240047Y-91019380D01*
X142335285Y-91067000D01*
X142430523Y-91162238D01*
X142478142Y-91352714D01*
X142478142Y-91686047D01*
X142430523Y-91876523D01*
X142335285Y-91971761D01*
X142240047Y-92019380D01*
X142049571Y-92019380D01*
X143335285Y-91352714D02*
X143335285Y-92019380D01*
X143097190Y-90971761D02*
X142859095Y-91686047D01*
X143478142Y-91686047D01*
X135870653Y-94393022D02*
X135823034Y-94440641D01*
X135680177Y-94488260D01*
X135584939Y-94488260D01*
X135442081Y-94440641D01*
X135346843Y-94345403D01*
X135299224Y-94250165D01*
X135251605Y-94059689D01*
X135251605Y-93916832D01*
X135299224Y-93726356D01*
X135346843Y-93631118D01*
X135442081Y-93535880D01*
X135584939Y-93488260D01*
X135680177Y-93488260D01*
X135823034Y-93535880D01*
X135870653Y-93583499D01*
X136775415Y-93488260D02*
X136299224Y-93488260D01*
X136251605Y-93964451D01*
X136299224Y-93916832D01*
X136394462Y-93869213D01*
X136632558Y-93869213D01*
X136727796Y-93916832D01*
X136775415Y-93964451D01*
X136823034Y-94059689D01*
X136823034Y-94297784D01*
X136775415Y-94393022D01*
X136727796Y-94440641D01*
X136632558Y-94488260D01*
X136394462Y-94488260D01*
X136299224Y-94440641D01*
X136251605Y-94393022D01*
X150966442Y-98451966D02*
X151014061Y-98499585D01*
X151061680Y-98642442D01*
X151061680Y-98737680D01*
X151014061Y-98880538D01*
X150918823Y-98975776D01*
X150823585Y-99023395D01*
X150633109Y-99071014D01*
X150490252Y-99071014D01*
X150299776Y-99023395D01*
X150204538Y-98975776D01*
X150109300Y-98880538D01*
X150061680Y-98737680D01*
X150061680Y-98642442D01*
X150109300Y-98499585D01*
X150156919Y-98451966D01*
X150395014Y-97594823D02*
X151061680Y-97594823D01*
X150014061Y-97832919D02*
X150728347Y-98071014D01*
X150728347Y-97451966D01*
X130506173Y-97009222D02*
X130458554Y-97056841D01*
X130315697Y-97104460D01*
X130220459Y-97104460D01*
X130077601Y-97056841D01*
X129982363Y-96961603D01*
X129934744Y-96866365D01*
X129887125Y-96675889D01*
X129887125Y-96533032D01*
X129934744Y-96342556D01*
X129982363Y-96247318D01*
X130077601Y-96152080D01*
X130220459Y-96104460D01*
X130315697Y-96104460D01*
X130458554Y-96152080D01*
X130506173Y-96199699D01*
X130839506Y-96104460D02*
X131458554Y-96104460D01*
X131125220Y-96485413D01*
X131268078Y-96485413D01*
X131363316Y-96533032D01*
X131410935Y-96580651D01*
X131458554Y-96675889D01*
X131458554Y-96913984D01*
X131410935Y-97009222D01*
X131363316Y-97056841D01*
X131268078Y-97104460D01*
X130982363Y-97104460D01*
X130887125Y-97056841D01*
X130839506Y-97009222D01*
X138749042Y-88393566D02*
X138796661Y-88441185D01*
X138844280Y-88584042D01*
X138844280Y-88679280D01*
X138796661Y-88822138D01*
X138701423Y-88917376D01*
X138606185Y-88964995D01*
X138415709Y-89012614D01*
X138272852Y-89012614D01*
X138082376Y-88964995D01*
X137987138Y-88917376D01*
X137891900Y-88822138D01*
X137844280Y-88679280D01*
X137844280Y-88584042D01*
X137891900Y-88441185D01*
X137939519Y-88393566D01*
X138844280Y-87441185D02*
X138844280Y-88012614D01*
X138844280Y-87726900D02*
X137844280Y-87726900D01*
X137987138Y-87822138D01*
X138082376Y-87917376D01*
X138129995Y-88012614D01*
X145365481Y-105871259D02*
X145270243Y-105823640D01*
X145175005Y-105728401D01*
X145032148Y-105585544D01*
X144936910Y-105537925D01*
X144841672Y-105537925D01*
X144889291Y-105776020D02*
X144794053Y-105728401D01*
X144698815Y-105633163D01*
X144651196Y-105442687D01*
X144651196Y-105109354D01*
X144698815Y-104918878D01*
X144794053Y-104823640D01*
X144889291Y-104776020D01*
X145079767Y-104776020D01*
X145175005Y-104823640D01*
X145270243Y-104918878D01*
X145317862Y-105109354D01*
X145317862Y-105442687D01*
X145270243Y-105633163D01*
X145175005Y-105728401D01*
X145079767Y-105776020D01*
X144889291Y-105776020D01*
X145651196Y-104776020D02*
X146270243Y-104776020D01*
X145936910Y-105156973D01*
X146079767Y-105156973D01*
X146175005Y-105204592D01*
X146222624Y-105252211D01*
X146270243Y-105347449D01*
X146270243Y-105585544D01*
X146222624Y-105680782D01*
X146175005Y-105728401D01*
X146079767Y-105776020D01*
X145794053Y-105776020D01*
X145698815Y-105728401D01*
X145651196Y-105680782D01*
X141725661Y-105779819D02*
X141630423Y-105732200D01*
X141535185Y-105636961D01*
X141392328Y-105494104D01*
X141297090Y-105446485D01*
X141201852Y-105446485D01*
X141249471Y-105684580D02*
X141154233Y-105636961D01*
X141058995Y-105541723D01*
X141011376Y-105351247D01*
X141011376Y-105017914D01*
X141058995Y-104827438D01*
X141154233Y-104732200D01*
X141249471Y-104684580D01*
X141439947Y-104684580D01*
X141535185Y-104732200D01*
X141630423Y-104827438D01*
X141678042Y-105017914D01*
X141678042Y-105351247D01*
X141630423Y-105541723D01*
X141535185Y-105636961D01*
X141439947Y-105684580D01*
X141249471Y-105684580D01*
X142058995Y-104779819D02*
X142106614Y-104732200D01*
X142201852Y-104684580D01*
X142439947Y-104684580D01*
X142535185Y-104732200D01*
X142582804Y-104779819D01*
X142630423Y-104875057D01*
X142630423Y-104970295D01*
X142582804Y-105113152D01*
X142011376Y-105684580D01*
X142630423Y-105684580D01*
X134854961Y-105995719D02*
X134759723Y-105948100D01*
X134664485Y-105852861D01*
X134521628Y-105710004D01*
X134426390Y-105662385D01*
X134331152Y-105662385D01*
X134378771Y-105900480D02*
X134283533Y-105852861D01*
X134188295Y-105757623D01*
X134140676Y-105567147D01*
X134140676Y-105233814D01*
X134188295Y-105043338D01*
X134283533Y-104948100D01*
X134378771Y-104900480D01*
X134569247Y-104900480D01*
X134664485Y-104948100D01*
X134759723Y-105043338D01*
X134807342Y-105233814D01*
X134807342Y-105567147D01*
X134759723Y-105757623D01*
X134664485Y-105852861D01*
X134569247Y-105900480D01*
X134378771Y-105900480D01*
X135759723Y-105900480D02*
X135188295Y-105900480D01*
X135474009Y-105900480D02*
X135474009Y-104900480D01*
X135378771Y-105043338D01*
X135283533Y-105138576D01*
X135188295Y-105186195D01*
X148983102Y-114726286D02*
X149030721Y-114773905D01*
X149078340Y-114916762D01*
X149078340Y-115012000D01*
X149030721Y-115154858D01*
X148935483Y-115250096D01*
X148840245Y-115297715D01*
X148649769Y-115345334D01*
X148506912Y-115345334D01*
X148316436Y-115297715D01*
X148221198Y-115250096D01*
X148125960Y-115154858D01*
X148078340Y-115012000D01*
X148078340Y-114916762D01*
X148125960Y-114773905D01*
X148173579Y-114726286D01*
X149078340Y-114250096D02*
X149078340Y-114059620D01*
X149030721Y-113964381D01*
X148983102Y-113916762D01*
X148840245Y-113821524D01*
X148649769Y-113773905D01*
X148268817Y-113773905D01*
X148173579Y-113821524D01*
X148125960Y-113869143D01*
X148078340Y-113964381D01*
X148078340Y-114154858D01*
X148125960Y-114250096D01*
X148173579Y-114297715D01*
X148268817Y-114345334D01*
X148506912Y-114345334D01*
X148602150Y-114297715D01*
X148649769Y-114250096D01*
X148697388Y-114154858D01*
X148697388Y-113964381D01*
X148649769Y-113869143D01*
X148602150Y-113821524D01*
X148506912Y-113773905D01*
X141962142Y-103087466D02*
X142009761Y-103135085D01*
X142057380Y-103277942D01*
X142057380Y-103373180D01*
X142009761Y-103516038D01*
X141914523Y-103611276D01*
X141819285Y-103658895D01*
X141628809Y-103706514D01*
X141485952Y-103706514D01*
X141295476Y-103658895D01*
X141200238Y-103611276D01*
X141105000Y-103516038D01*
X141057380Y-103373180D01*
X141057380Y-103277942D01*
X141105000Y-103135085D01*
X141152619Y-103087466D01*
X141057380Y-102230323D02*
X141057380Y-102420800D01*
X141105000Y-102516038D01*
X141152619Y-102563657D01*
X141295476Y-102658895D01*
X141485952Y-102706514D01*
X141866904Y-102706514D01*
X141962142Y-102658895D01*
X142009761Y-102611276D01*
X142057380Y-102516038D01*
X142057380Y-102325561D01*
X142009761Y-102230323D01*
X141962142Y-102182704D01*
X141866904Y-102135085D01*
X141628809Y-102135085D01*
X141533571Y-102182704D01*
X141485952Y-102230323D01*
X141438333Y-102325561D01*
X141438333Y-102516038D01*
X141485952Y-102611276D01*
X141533571Y-102658895D01*
X141628809Y-102706514D01*
X137304542Y-109546662D02*
X137256923Y-109594281D01*
X137114066Y-109641900D01*
X137018828Y-109641900D01*
X136875971Y-109594281D01*
X136780733Y-109499043D01*
X136733114Y-109403805D01*
X136685495Y-109213329D01*
X136685495Y-109070472D01*
X136733114Y-108879996D01*
X136780733Y-108784758D01*
X136875971Y-108689520D01*
X137018828Y-108641900D01*
X137114066Y-108641900D01*
X137256923Y-108689520D01*
X137304542Y-108737139D01*
X138256923Y-109641900D02*
X137685495Y-109641900D01*
X137971209Y-109641900D02*
X137971209Y-108641900D01*
X137875971Y-108784758D01*
X137780733Y-108879996D01*
X137685495Y-108927615D01*
X138875971Y-108641900D02*
X138971209Y-108641900D01*
X139066447Y-108689520D01*
X139114066Y-108737139D01*
X139161685Y-108832377D01*
X139209304Y-109022853D01*
X139209304Y-109260948D01*
X139161685Y-109451424D01*
X139114066Y-109546662D01*
X139066447Y-109594281D01*
X138971209Y-109641900D01*
X138875971Y-109641900D01*
X138780733Y-109594281D01*
X138733114Y-109546662D01*
X138685495Y-109451424D01*
X138637876Y-109260948D01*
X138637876Y-109022853D01*
X138685495Y-108832377D01*
X138733114Y-108737139D01*
X138780733Y-108689520D01*
X138875971Y-108641900D01*
X129170133Y-103506542D02*
X129122514Y-103554161D01*
X128979657Y-103601780D01*
X128884419Y-103601780D01*
X128741561Y-103554161D01*
X128646323Y-103458923D01*
X128598704Y-103363685D01*
X128551085Y-103173209D01*
X128551085Y-103030352D01*
X128598704Y-102839876D01*
X128646323Y-102744638D01*
X128741561Y-102649400D01*
X128884419Y-102601780D01*
X128979657Y-102601780D01*
X129122514Y-102649400D01*
X129170133Y-102697019D01*
X129503466Y-102601780D02*
X130170133Y-102601780D01*
X129741561Y-103601780D01*
X131760933Y-112117142D02*
X131713314Y-112164761D01*
X131570457Y-112212380D01*
X131475219Y-112212380D01*
X131332361Y-112164761D01*
X131237123Y-112069523D01*
X131189504Y-111974285D01*
X131141885Y-111783809D01*
X131141885Y-111640952D01*
X131189504Y-111450476D01*
X131237123Y-111355238D01*
X131332361Y-111260000D01*
X131475219Y-111212380D01*
X131570457Y-111212380D01*
X131713314Y-111260000D01*
X131760933Y-111307619D01*
X132332361Y-111640952D02*
X132237123Y-111593333D01*
X132189504Y-111545714D01*
X132141885Y-111450476D01*
X132141885Y-111402857D01*
X132189504Y-111307619D01*
X132237123Y-111260000D01*
X132332361Y-111212380D01*
X132522838Y-111212380D01*
X132618076Y-111260000D01*
X132665695Y-111307619D01*
X132713314Y-111402857D01*
X132713314Y-111450476D01*
X132665695Y-111545714D01*
X132618076Y-111593333D01*
X132522838Y-111640952D01*
X132332361Y-111640952D01*
X132237123Y-111688571D01*
X132189504Y-111736190D01*
X132141885Y-111831428D01*
X132141885Y-112021904D01*
X132189504Y-112117142D01*
X132237123Y-112164761D01*
X132332361Y-112212380D01*
X132522838Y-112212380D01*
X132618076Y-112164761D01*
X132665695Y-112117142D01*
X132713314Y-112021904D01*
X132713314Y-111831428D01*
X132665695Y-111736190D01*
X132618076Y-111688571D01*
X132522838Y-111640952D01*
%LPC*%
G36*
G01*
X138270300Y-114225000D02*
X138945300Y-114225000D01*
G75*
G02*
X139282800Y-114562500I0J-337500D01*
G01*
X139282800Y-115262500D01*
G75*
G02*
X138945300Y-115600000I-337500J0D01*
G01*
X138270300Y-115600000D01*
G75*
G02*
X137932800Y-115262500I0J337500D01*
G01*
X137932800Y-114562500D01*
G75*
G02*
X138270300Y-114225000I337500J0D01*
G01*
G37*
G36*
G01*
X138270300Y-112400000D02*
X138945300Y-112400000D01*
G75*
G02*
X139282800Y-112737500I0J-337500D01*
G01*
X139282800Y-113437500D01*
G75*
G02*
X138945300Y-113775000I-337500J0D01*
G01*
X138270300Y-113775000D01*
G75*
G02*
X137932800Y-113437500I0J337500D01*
G01*
X137932800Y-112737500D01*
G75*
G02*
X138270300Y-112400000I337500J0D01*
G01*
G37*
G36*
G01*
X136170500Y-114225000D02*
X136845500Y-114225000D01*
G75*
G02*
X137183000Y-114562500I0J-337500D01*
G01*
X137183000Y-115262500D01*
G75*
G02*
X136845500Y-115600000I-337500J0D01*
G01*
X136170500Y-115600000D01*
G75*
G02*
X135833000Y-115262500I0J337500D01*
G01*
X135833000Y-114562500D01*
G75*
G02*
X136170500Y-114225000I337500J0D01*
G01*
G37*
G36*
G01*
X136170500Y-112400000D02*
X136845500Y-112400000D01*
G75*
G02*
X137183000Y-112737500I0J-337500D01*
G01*
X137183000Y-113437500D01*
G75*
G02*
X136845500Y-113775000I-337500J0D01*
G01*
X136170500Y-113775000D01*
G75*
G02*
X135833000Y-113437500I0J337500D01*
G01*
X135833000Y-112737500D01*
G75*
G02*
X136170500Y-112400000I337500J0D01*
G01*
G37*
G36*
G01*
X143655100Y-111339840D02*
X144330100Y-111339840D01*
G75*
G02*
X144667600Y-111677340I0J-337500D01*
G01*
X144667600Y-112377340D01*
G75*
G02*
X144330100Y-112714840I-337500J0D01*
G01*
X143655100Y-112714840D01*
G75*
G02*
X143317600Y-112377340I0J337500D01*
G01*
X143317600Y-111677340D01*
G75*
G02*
X143655100Y-111339840I337500J0D01*
G01*
G37*
G36*
G01*
X143655100Y-109514840D02*
X144330100Y-109514840D01*
G75*
G02*
X144667600Y-109852340I0J-337500D01*
G01*
X144667600Y-110552340D01*
G75*
G02*
X144330100Y-110889840I-337500J0D01*
G01*
X143655100Y-110889840D01*
G75*
G02*
X143317600Y-110552340I0J337500D01*
G01*
X143317600Y-109852340D01*
G75*
G02*
X143655100Y-109514840I337500J0D01*
G01*
G37*
G36*
G01*
X141475780Y-111365240D02*
X142150780Y-111365240D01*
G75*
G02*
X142488280Y-111702740I0J-337500D01*
G01*
X142488280Y-112402740D01*
G75*
G02*
X142150780Y-112740240I-337500J0D01*
G01*
X141475780Y-112740240D01*
G75*
G02*
X141138280Y-112402740I0J337500D01*
G01*
X141138280Y-111702740D01*
G75*
G02*
X141475780Y-111365240I337500J0D01*
G01*
G37*
G36*
G01*
X141475780Y-109540240D02*
X142150780Y-109540240D01*
G75*
G02*
X142488280Y-109877740I0J-337500D01*
G01*
X142488280Y-110577740D01*
G75*
G02*
X142150780Y-110915240I-337500J0D01*
G01*
X141475780Y-110915240D01*
G75*
G02*
X141138280Y-110577740I0J337500D01*
G01*
X141138280Y-109877740D01*
G75*
G02*
X141475780Y-109540240I337500J0D01*
G01*
G37*
G36*
G01*
X146539900Y-110798400D02*
X145864900Y-110798400D01*
G75*
G02*
X145527400Y-110460900I0J337500D01*
G01*
X145527400Y-109760900D01*
G75*
G02*
X145864900Y-109423400I337500J0D01*
G01*
X146539900Y-109423400D01*
G75*
G02*
X146877400Y-109760900I0J-337500D01*
G01*
X146877400Y-110460900D01*
G75*
G02*
X146539900Y-110798400I-337500J0D01*
G01*
G37*
G36*
G01*
X146539900Y-112623400D02*
X145864900Y-112623400D01*
G75*
G02*
X145527400Y-112285900I0J337500D01*
G01*
X145527400Y-111585900D01*
G75*
G02*
X145864900Y-111248400I337500J0D01*
G01*
X146539900Y-111248400D01*
G75*
G02*
X146877400Y-111585900I0J-337500D01*
G01*
X146877400Y-112285900D01*
G75*
G02*
X146539900Y-112623400I-337500J0D01*
G01*
G37*
G36*
G01*
X132816920Y-114225000D02*
X133491920Y-114225000D01*
G75*
G02*
X133829420Y-114562500I0J-337500D01*
G01*
X133829420Y-115262500D01*
G75*
G02*
X133491920Y-115600000I-337500J0D01*
G01*
X132816920Y-115600000D01*
G75*
G02*
X132479420Y-115262500I0J337500D01*
G01*
X132479420Y-114562500D01*
G75*
G02*
X132816920Y-114225000I337500J0D01*
G01*
G37*
G36*
G01*
X132816920Y-112400000D02*
X133491920Y-112400000D01*
G75*
G02*
X133829420Y-112737500I0J-337500D01*
G01*
X133829420Y-113437500D01*
G75*
G02*
X133491920Y-113775000I-337500J0D01*
G01*
X132816920Y-113775000D01*
G75*
G02*
X132479420Y-113437500I0J337500D01*
G01*
X132479420Y-112737500D01*
G75*
G02*
X132816920Y-112400000I337500J0D01*
G01*
G37*
G36*
G01*
X136338100Y-103294500D02*
X136338100Y-103969500D01*
G75*
G02*
X136000600Y-104307000I-337500J0D01*
G01*
X135300600Y-104307000D01*
G75*
G02*
X134963100Y-103969500I0J337500D01*
G01*
X134963100Y-103294500D01*
G75*
G02*
X135300600Y-102957000I337500J0D01*
G01*
X136000600Y-102957000D01*
G75*
G02*
X136338100Y-103294500I0J-337500D01*
G01*
G37*
G36*
G01*
X138163100Y-103294500D02*
X138163100Y-103969500D01*
G75*
G02*
X137825600Y-104307000I-337500J0D01*
G01*
X137125600Y-104307000D01*
G75*
G02*
X136788100Y-103969500I0J337500D01*
G01*
X136788100Y-103294500D01*
G75*
G02*
X137125600Y-102957000I337500J0D01*
G01*
X137825600Y-102957000D01*
G75*
G02*
X138163100Y-103294500I0J-337500D01*
G01*
G37*
G36*
G01*
X131804200Y-105631300D02*
X131804200Y-106306300D01*
G75*
G02*
X131466700Y-106643800I-337500J0D01*
G01*
X130766700Y-106643800D01*
G75*
G02*
X130429200Y-106306300I0J337500D01*
G01*
X130429200Y-105631300D01*
G75*
G02*
X130766700Y-105293800I337500J0D01*
G01*
X131466700Y-105293800D01*
G75*
G02*
X131804200Y-105631300I0J-337500D01*
G01*
G37*
G36*
G01*
X133629200Y-105631300D02*
X133629200Y-106306300D01*
G75*
G02*
X133291700Y-106643800I-337500J0D01*
G01*
X132591700Y-106643800D01*
G75*
G02*
X132254200Y-106306300I0J337500D01*
G01*
X132254200Y-105631300D01*
G75*
G02*
X132591700Y-105293800I337500J0D01*
G01*
X133291700Y-105293800D01*
G75*
G02*
X133629200Y-105631300I0J-337500D01*
G01*
G37*
G36*
G01*
X139662500Y-106975000D02*
X140337500Y-106975000D01*
G75*
G02*
X140675000Y-107312500I0J-337500D01*
G01*
X140675000Y-108012500D01*
G75*
G02*
X140337500Y-108350000I-337500J0D01*
G01*
X139662500Y-108350000D01*
G75*
G02*
X139325000Y-108012500I0J337500D01*
G01*
X139325000Y-107312500D01*
G75*
G02*
X139662500Y-106975000I337500J0D01*
G01*
G37*
G36*
G01*
X139662500Y-105150000D02*
X140337500Y-105150000D01*
G75*
G02*
X140675000Y-105487500I0J-337500D01*
G01*
X140675000Y-106187500D01*
G75*
G02*
X140337500Y-106525000I-337500J0D01*
G01*
X139662500Y-106525000D01*
G75*
G02*
X139325000Y-106187500I0J337500D01*
G01*
X139325000Y-105487500D01*
G75*
G02*
X139662500Y-105150000I337500J0D01*
G01*
G37*
G36*
G01*
X147521720Y-103421500D02*
X147521720Y-104096500D01*
G75*
G02*
X147184220Y-104434000I-337500J0D01*
G01*
X146484220Y-104434000D01*
G75*
G02*
X146146720Y-104096500I0J337500D01*
G01*
X146146720Y-103421500D01*
G75*
G02*
X146484220Y-103084000I337500J0D01*
G01*
X147184220Y-103084000D01*
G75*
G02*
X147521720Y-103421500I0J-337500D01*
G01*
G37*
G36*
G01*
X149346720Y-103421500D02*
X149346720Y-104096500D01*
G75*
G02*
X149009220Y-104434000I-337500J0D01*
G01*
X148309220Y-104434000D01*
G75*
G02*
X147971720Y-104096500I0J337500D01*
G01*
X147971720Y-103421500D01*
G75*
G02*
X148309220Y-103084000I337500J0D01*
G01*
X149009220Y-103084000D01*
G75*
G02*
X149346720Y-103421500I0J-337500D01*
G01*
G37*
G36*
G01*
X147539500Y-87864000D02*
X147539500Y-88539000D01*
G75*
G02*
X147202000Y-88876500I-337500J0D01*
G01*
X146502000Y-88876500D01*
G75*
G02*
X146164500Y-88539000I0J337500D01*
G01*
X146164500Y-87864000D01*
G75*
G02*
X146502000Y-87526500I337500J0D01*
G01*
X147202000Y-87526500D01*
G75*
G02*
X147539500Y-87864000I0J-337500D01*
G01*
G37*
G36*
G01*
X149364500Y-87864000D02*
X149364500Y-88539000D01*
G75*
G02*
X149027000Y-88876500I-337500J0D01*
G01*
X148327000Y-88876500D01*
G75*
G02*
X147989500Y-88539000I0J337500D01*
G01*
X147989500Y-87864000D01*
G75*
G02*
X148327000Y-87526500I337500J0D01*
G01*
X149027000Y-87526500D01*
G75*
G02*
X149364500Y-87864000I0J-337500D01*
G01*
G37*
G36*
G01*
X136370380Y-98914160D02*
X137045380Y-98914160D01*
G75*
G02*
X137382880Y-99251660I0J-337500D01*
G01*
X137382880Y-99951660D01*
G75*
G02*
X137045380Y-100289160I-337500J0D01*
G01*
X136370380Y-100289160D01*
G75*
G02*
X136032880Y-99951660I0J337500D01*
G01*
X136032880Y-99251660D01*
G75*
G02*
X136370380Y-98914160I337500J0D01*
G01*
G37*
G36*
G01*
X136370380Y-97089160D02*
X137045380Y-97089160D01*
G75*
G02*
X137382880Y-97426660I0J-337500D01*
G01*
X137382880Y-98126660D01*
G75*
G02*
X137045380Y-98464160I-337500J0D01*
G01*
X136370380Y-98464160D01*
G75*
G02*
X136032880Y-98126660I0J337500D01*
G01*
X136032880Y-97426660D01*
G75*
G02*
X136370380Y-97089160I337500J0D01*
G01*
G37*
G36*
G01*
X134272340Y-98893840D02*
X134947340Y-98893840D01*
G75*
G02*
X135284840Y-99231340I0J-337500D01*
G01*
X135284840Y-99931340D01*
G75*
G02*
X134947340Y-100268840I-337500J0D01*
G01*
X134272340Y-100268840D01*
G75*
G02*
X133934840Y-99931340I0J337500D01*
G01*
X133934840Y-99231340D01*
G75*
G02*
X134272340Y-98893840I337500J0D01*
G01*
G37*
G36*
G01*
X134272340Y-97068840D02*
X134947340Y-97068840D01*
G75*
G02*
X135284840Y-97406340I0J-337500D01*
G01*
X135284840Y-98106340D01*
G75*
G02*
X134947340Y-98443840I-337500J0D01*
G01*
X134272340Y-98443840D01*
G75*
G02*
X133934840Y-98106340I0J337500D01*
G01*
X133934840Y-97406340D01*
G75*
G02*
X134272340Y-97068840I337500J0D01*
G01*
G37*
G36*
G01*
X144048800Y-98319800D02*
X144723800Y-98319800D01*
G75*
G02*
X145061300Y-98657300I0J-337500D01*
G01*
X145061300Y-99357300D01*
G75*
G02*
X144723800Y-99694800I-337500J0D01*
G01*
X144048800Y-99694800D01*
G75*
G02*
X143711300Y-99357300I0J337500D01*
G01*
X143711300Y-98657300D01*
G75*
G02*
X144048800Y-98319800I337500J0D01*
G01*
G37*
G36*
G01*
X144048800Y-96494800D02*
X144723800Y-96494800D01*
G75*
G02*
X145061300Y-96832300I0J-337500D01*
G01*
X145061300Y-97532300D01*
G75*
G02*
X144723800Y-97869800I-337500J0D01*
G01*
X144048800Y-97869800D01*
G75*
G02*
X143711300Y-97532300I0J337500D01*
G01*
X143711300Y-96832300D01*
G75*
G02*
X144048800Y-96494800I337500J0D01*
G01*
G37*
G36*
G01*
X141775500Y-98096280D02*
X142450500Y-98096280D01*
G75*
G02*
X142788000Y-98433780I0J-337500D01*
G01*
X142788000Y-99133780D01*
G75*
G02*
X142450500Y-99471280I-337500J0D01*
G01*
X141775500Y-99471280D01*
G75*
G02*
X141438000Y-99133780I0J337500D01*
G01*
X141438000Y-98433780D01*
G75*
G02*
X141775500Y-98096280I337500J0D01*
G01*
G37*
G36*
G01*
X141775500Y-96271280D02*
X142450500Y-96271280D01*
G75*
G02*
X142788000Y-96608780I0J-337500D01*
G01*
X142788000Y-97308780D01*
G75*
G02*
X142450500Y-97646280I-337500J0D01*
G01*
X141775500Y-97646280D01*
G75*
G02*
X141438000Y-97308780I0J337500D01*
G01*
X141438000Y-96608780D01*
G75*
G02*
X141775500Y-96271280I337500J0D01*
G01*
G37*
G36*
G01*
X146796440Y-97633580D02*
X146121440Y-97633580D01*
G75*
G02*
X145783940Y-97296080I0J337500D01*
G01*
X145783940Y-96596080D01*
G75*
G02*
X146121440Y-96258580I337500J0D01*
G01*
X146796440Y-96258580D01*
G75*
G02*
X147133940Y-96596080I0J-337500D01*
G01*
X147133940Y-97296080D01*
G75*
G02*
X146796440Y-97633580I-337500J0D01*
G01*
G37*
G36*
G01*
X146796440Y-99458580D02*
X146121440Y-99458580D01*
G75*
G02*
X145783940Y-99121080I0J337500D01*
G01*
X145783940Y-98421080D01*
G75*
G02*
X146121440Y-98083580I337500J0D01*
G01*
X146796440Y-98083580D01*
G75*
G02*
X147133940Y-98421080I0J-337500D01*
G01*
X147133940Y-99121080D01*
G75*
G02*
X146796440Y-99458580I-337500J0D01*
G01*
G37*
G36*
G01*
X132194620Y-98914160D02*
X132869620Y-98914160D01*
G75*
G02*
X133207120Y-99251660I0J-337500D01*
G01*
X133207120Y-99951660D01*
G75*
G02*
X132869620Y-100289160I-337500J0D01*
G01*
X132194620Y-100289160D01*
G75*
G02*
X131857120Y-99951660I0J337500D01*
G01*
X131857120Y-99251660D01*
G75*
G02*
X132194620Y-98914160I337500J0D01*
G01*
G37*
G36*
G01*
X132194620Y-97089160D02*
X132869620Y-97089160D01*
G75*
G02*
X133207120Y-97426660I0J-337500D01*
G01*
X133207120Y-98126660D01*
G75*
G02*
X132869620Y-98464160I-337500J0D01*
G01*
X132194620Y-98464160D01*
G75*
G02*
X131857120Y-98126660I0J337500D01*
G01*
X131857120Y-97426660D01*
G75*
G02*
X132194620Y-97089160I337500J0D01*
G01*
G37*
G36*
G01*
X135919000Y-87610000D02*
X135919000Y-88285000D01*
G75*
G02*
X135581500Y-88622500I-337500J0D01*
G01*
X134881500Y-88622500D01*
G75*
G02*
X134544000Y-88285000I0J337500D01*
G01*
X134544000Y-87610000D01*
G75*
G02*
X134881500Y-87272500I337500J0D01*
G01*
X135581500Y-87272500D01*
G75*
G02*
X135919000Y-87610000I0J-337500D01*
G01*
G37*
G36*
G01*
X137744000Y-87610000D02*
X137744000Y-88285000D01*
G75*
G02*
X137406500Y-88622500I-337500J0D01*
G01*
X136706500Y-88622500D01*
G75*
G02*
X136369000Y-88285000I0J337500D01*
G01*
X136369000Y-87610000D01*
G75*
G02*
X136706500Y-87272500I337500J0D01*
G01*
X137406500Y-87272500D01*
G75*
G02*
X137744000Y-87610000I0J-337500D01*
G01*
G37*
G36*
G01*
X131849920Y-89675020D02*
X131849920Y-90350020D01*
G75*
G02*
X131512420Y-90687520I-337500J0D01*
G01*
X130812420Y-90687520D01*
G75*
G02*
X130474920Y-90350020I0J337500D01*
G01*
X130474920Y-89675020D01*
G75*
G02*
X130812420Y-89337520I337500J0D01*
G01*
X131512420Y-89337520D01*
G75*
G02*
X131849920Y-89675020I0J-337500D01*
G01*
G37*
G36*
G01*
X133674920Y-89675020D02*
X133674920Y-90350020D01*
G75*
G02*
X133337420Y-90687520I-337500J0D01*
G01*
X132637420Y-90687520D01*
G75*
G02*
X132299920Y-90350020I0J337500D01*
G01*
X132299920Y-89675020D01*
G75*
G02*
X132637420Y-89337520I337500J0D01*
G01*
X133337420Y-89337520D01*
G75*
G02*
X133674920Y-89675020I0J-337500D01*
G01*
G37*
G36*
G01*
X139680000Y-92681000D02*
X140355000Y-92681000D01*
G75*
G02*
X140692500Y-93018500I0J-337500D01*
G01*
X140692500Y-93718500D01*
G75*
G02*
X140355000Y-94056000I-337500J0D01*
G01*
X139680000Y-94056000D01*
G75*
G02*
X139342500Y-93718500I0J337500D01*
G01*
X139342500Y-93018500D01*
G75*
G02*
X139680000Y-92681000I337500J0D01*
G01*
G37*
G36*
G01*
X139680000Y-90856000D02*
X140355000Y-90856000D01*
G75*
G02*
X140692500Y-91193500I0J-337500D01*
G01*
X140692500Y-91893500D01*
G75*
G02*
X140355000Y-92231000I-337500J0D01*
G01*
X139680000Y-92231000D01*
G75*
G02*
X139342500Y-91893500I0J337500D01*
G01*
X139342500Y-91193500D01*
G75*
G02*
X139680000Y-90856000I337500J0D01*
G01*
G37*
G36*
G01*
X148174500Y-90150000D02*
X148174500Y-90825000D01*
G75*
G02*
X147837000Y-91162500I-337500J0D01*
G01*
X147137000Y-91162500D01*
G75*
G02*
X146799500Y-90825000I0J337500D01*
G01*
X146799500Y-90150000D01*
G75*
G02*
X147137000Y-89812500I337500J0D01*
G01*
X147837000Y-89812500D01*
G75*
G02*
X148174500Y-90150000I0J-337500D01*
G01*
G37*
G36*
G01*
X149999500Y-90150000D02*
X149999500Y-90825000D01*
G75*
G02*
X149662000Y-91162500I-337500J0D01*
G01*
X148962000Y-91162500D01*
G75*
G02*
X148624500Y-90825000I0J337500D01*
G01*
X148624500Y-90150000D01*
G75*
G02*
X148962000Y-89812500I337500J0D01*
G01*
X149662000Y-89812500D01*
G75*
G02*
X149999500Y-90150000I0J-337500D01*
G01*
G37*
D14*
X149910800Y-93980000D03*
G36*
G01*
X148644800Y-100857706D02*
X148644800Y-102037494D01*
G75*
G02*
X148309694Y-102372600I-335106J0D01*
G01*
X147404906Y-102372600D01*
G75*
G02*
X147069800Y-102037494I0J335106D01*
G01*
X147069800Y-100857706D01*
G75*
G02*
X147404906Y-100522600I335106J0D01*
G01*
X148309694Y-100522600D01*
G75*
G02*
X148644800Y-100857706I0J-335106D01*
G01*
G37*
G36*
G01*
X150719800Y-100857706D02*
X150719800Y-102037494D01*
G75*
G02*
X150384694Y-102372600I-335106J0D01*
G01*
X149479906Y-102372600D01*
G75*
G02*
X149144800Y-102037494I0J335106D01*
G01*
X149144800Y-100857706D01*
G75*
G02*
X149479906Y-100522600I335106J0D01*
G01*
X150384694Y-100522600D01*
G75*
G02*
X150719800Y-100857706I0J-335106D01*
G01*
G37*
D15*
X152848360Y-112457280D03*
X127848360Y-112457280D03*
X152848360Y-87457280D03*
X127848360Y-87457280D03*
G36*
G01*
X144195500Y-88701045D02*
X144195500Y-87574955D01*
G75*
G02*
X144532455Y-87238000I336955J0D01*
G01*
X145408545Y-87238000D01*
G75*
G02*
X145745500Y-87574955I0J-336955D01*
G01*
X145745500Y-88701045D01*
G75*
G02*
X145408545Y-89038000I-336955J0D01*
G01*
X144532455Y-89038000D01*
G75*
G02*
X144195500Y-88701045I0J336955D01*
G01*
G37*
G36*
G01*
X142145500Y-88701045D02*
X142145500Y-87574955D01*
G75*
G02*
X142482455Y-87238000I336955J0D01*
G01*
X143358545Y-87238000D01*
G75*
G02*
X143695500Y-87574955I0J-336955D01*
G01*
X143695500Y-88701045D01*
G75*
G02*
X143358545Y-89038000I-336955J0D01*
G01*
X142482455Y-89038000D01*
G75*
G02*
X142145500Y-88701045I0J336955D01*
G01*
G37*
G36*
G01*
X132345240Y-92776654D02*
X132345240Y-91596866D01*
G75*
G02*
X132680346Y-91261760I335106J0D01*
G01*
X133585134Y-91261760D01*
G75*
G02*
X133920240Y-91596866I0J-335106D01*
G01*
X133920240Y-92776654D01*
G75*
G02*
X133585134Y-93111760I-335106J0D01*
G01*
X132680346Y-93111760D01*
G75*
G02*
X132345240Y-92776654I0J335106D01*
G01*
G37*
G36*
G01*
X130270240Y-92776654D02*
X130270240Y-91596866D01*
G75*
G02*
X130605346Y-91261760I335106J0D01*
G01*
X131510134Y-91261760D01*
G75*
G02*
X131845240Y-91596866I0J-335106D01*
G01*
X131845240Y-92776654D01*
G75*
G02*
X131510134Y-93111760I-335106J0D01*
G01*
X130605346Y-93111760D01*
G75*
G02*
X130270240Y-92776654I0J335106D01*
G01*
G37*
G36*
G01*
X136607500Y-90709000D02*
X135807500Y-90709000D01*
G75*
G02*
X135607500Y-90509000I0J200000D01*
G01*
X135607500Y-89609000D01*
G75*
G02*
X135807500Y-89409000I200000J0D01*
G01*
X136607500Y-89409000D01*
G75*
G02*
X136807500Y-89609000I0J-200000D01*
G01*
X136807500Y-90509000D01*
G75*
G02*
X136607500Y-90709000I-200000J0D01*
G01*
G37*
G36*
G01*
X137557500Y-92709000D02*
X136757500Y-92709000D01*
G75*
G02*
X136557500Y-92509000I0J200000D01*
G01*
X136557500Y-91609000D01*
G75*
G02*
X136757500Y-91409000I200000J0D01*
G01*
X137557500Y-91409000D01*
G75*
G02*
X137757500Y-91609000I0J-200000D01*
G01*
X137757500Y-92509000D01*
G75*
G02*
X137557500Y-92709000I-200000J0D01*
G01*
G37*
G36*
G01*
X135657500Y-92709000D02*
X134857500Y-92709000D01*
G75*
G02*
X134657500Y-92509000I0J200000D01*
G01*
X134657500Y-91609000D01*
G75*
G02*
X134857500Y-91409000I200000J0D01*
G01*
X135657500Y-91409000D01*
G75*
G02*
X135857500Y-91609000I0J-200000D01*
G01*
X135857500Y-92509000D01*
G75*
G02*
X135657500Y-92709000I-200000J0D01*
G01*
G37*
G36*
G01*
X147440600Y-93452200D02*
X146640600Y-93452200D01*
G75*
G02*
X146440600Y-93252200I0J200000D01*
G01*
X146440600Y-92352200D01*
G75*
G02*
X146640600Y-92152200I200000J0D01*
G01*
X147440600Y-92152200D01*
G75*
G02*
X147640600Y-92352200I0J-200000D01*
G01*
X147640600Y-93252200D01*
G75*
G02*
X147440600Y-93452200I-200000J0D01*
G01*
G37*
G36*
G01*
X148390600Y-95452200D02*
X147590600Y-95452200D01*
G75*
G02*
X147390600Y-95252200I0J200000D01*
G01*
X147390600Y-94352200D01*
G75*
G02*
X147590600Y-94152200I200000J0D01*
G01*
X148390600Y-94152200D01*
G75*
G02*
X148590600Y-94352200I0J-200000D01*
G01*
X148590600Y-95252200D01*
G75*
G02*
X148390600Y-95452200I-200000J0D01*
G01*
G37*
G36*
G01*
X146490600Y-95452200D02*
X145690600Y-95452200D01*
G75*
G02*
X145490600Y-95252200I0J200000D01*
G01*
X145490600Y-94352200D01*
G75*
G02*
X145690600Y-94152200I200000J0D01*
G01*
X146490600Y-94152200D01*
G75*
G02*
X146690600Y-94352200I0J-200000D01*
G01*
X146690600Y-95252200D01*
G75*
G02*
X146490600Y-95452200I-200000J0D01*
G01*
G37*
G36*
G01*
X143440100Y-93462360D02*
X142640100Y-93462360D01*
G75*
G02*
X142440100Y-93262360I0J200000D01*
G01*
X142440100Y-92362360D01*
G75*
G02*
X142640100Y-92162360I200000J0D01*
G01*
X143440100Y-92162360D01*
G75*
G02*
X143640100Y-92362360I0J-200000D01*
G01*
X143640100Y-93262360D01*
G75*
G02*
X143440100Y-93462360I-200000J0D01*
G01*
G37*
G36*
G01*
X144390100Y-95462360D02*
X143590100Y-95462360D01*
G75*
G02*
X143390100Y-95262360I0J200000D01*
G01*
X143390100Y-94362360D01*
G75*
G02*
X143590100Y-94162360I200000J0D01*
G01*
X144390100Y-94162360D01*
G75*
G02*
X144590100Y-94362360I0J-200000D01*
G01*
X144590100Y-95262360D01*
G75*
G02*
X144390100Y-95462360I-200000J0D01*
G01*
G37*
G36*
G01*
X142490100Y-95462360D02*
X141690100Y-95462360D01*
G75*
G02*
X141490100Y-95262360I0J200000D01*
G01*
X141490100Y-94362360D01*
G75*
G02*
X141690100Y-94162360I200000J0D01*
G01*
X142490100Y-94162360D01*
G75*
G02*
X142690100Y-94362360I0J-200000D01*
G01*
X142690100Y-95262360D01*
G75*
G02*
X142490100Y-95462360I-200000J0D01*
G01*
G37*
D16*
X152694640Y-92684600D03*
G36*
G01*
X153744640Y-94374600D02*
X153744640Y-96074600D01*
G75*
G02*
X153544640Y-96274600I-200000J0D01*
G01*
X151844640Y-96274600D01*
G75*
G02*
X151644640Y-96074600I0J200000D01*
G01*
X151644640Y-94374600D01*
G75*
G02*
X151844640Y-94174600I200000J0D01*
G01*
X153544640Y-94174600D01*
G75*
G02*
X153744640Y-94374600I0J-200000D01*
G01*
G37*
X128219200Y-92527120D03*
G36*
G01*
X129269200Y-94217120D02*
X129269200Y-95917120D01*
G75*
G02*
X129069200Y-96117120I-200000J0D01*
G01*
X127369200Y-96117120D01*
G75*
G02*
X127169200Y-95917120I0J200000D01*
G01*
X127169200Y-94217120D01*
G75*
G02*
X127369200Y-94017120I200000J0D01*
G01*
X129069200Y-94017120D01*
G75*
G02*
X129269200Y-94217120I0J-200000D01*
G01*
G37*
G36*
G01*
X136485440Y-96256454D02*
X136485440Y-95076666D01*
G75*
G02*
X136820546Y-94741560I335106J0D01*
G01*
X137725334Y-94741560D01*
G75*
G02*
X138060440Y-95076666I0J-335106D01*
G01*
X138060440Y-96256454D01*
G75*
G02*
X137725334Y-96591560I-335106J0D01*
G01*
X136820546Y-96591560D01*
G75*
G02*
X136485440Y-96256454I0J335106D01*
G01*
G37*
G36*
G01*
X134410440Y-96256454D02*
X134410440Y-95076666D01*
G75*
G02*
X134745546Y-94741560I335106J0D01*
G01*
X135650334Y-94741560D01*
G75*
G02*
X135985440Y-95076666I0J-335106D01*
G01*
X135985440Y-96256454D01*
G75*
G02*
X135650334Y-96591560I-335106J0D01*
G01*
X134745546Y-96591560D01*
G75*
G02*
X134410440Y-96256454I0J335106D01*
G01*
G37*
G36*
G01*
X149624394Y-97984500D02*
X148444606Y-97984500D01*
G75*
G02*
X148109500Y-97649394I0J335106D01*
G01*
X148109500Y-96744606D01*
G75*
G02*
X148444606Y-96409500I335106J0D01*
G01*
X149624394Y-96409500D01*
G75*
G02*
X149959500Y-96744606I0J-335106D01*
G01*
X149959500Y-97649394D01*
G75*
G02*
X149624394Y-97984500I-335106J0D01*
G01*
G37*
G36*
G01*
X149624394Y-100059500D02*
X148444606Y-100059500D01*
G75*
G02*
X148109500Y-99724394I0J335106D01*
G01*
X148109500Y-98819606D01*
G75*
G02*
X148444606Y-98484500I335106J0D01*
G01*
X149624394Y-98484500D01*
G75*
G02*
X149959500Y-98819606I0J-335106D01*
G01*
X149959500Y-99724394D01*
G75*
G02*
X149624394Y-100059500I-335106J0D01*
G01*
G37*
G36*
G01*
X131906200Y-94360386D02*
X131906200Y-95540174D01*
G75*
G02*
X131571094Y-95875280I-335106J0D01*
G01*
X130666306Y-95875280D01*
G75*
G02*
X130331200Y-95540174I0J335106D01*
G01*
X130331200Y-94360386D01*
G75*
G02*
X130666306Y-94025280I335106J0D01*
G01*
X131571094Y-94025280D01*
G75*
G02*
X131906200Y-94360386I0J-335106D01*
G01*
G37*
G36*
G01*
X133981200Y-94360386D02*
X133981200Y-95540174D01*
G75*
G02*
X133646094Y-95875280I-335106J0D01*
G01*
X132741306Y-95875280D01*
G75*
G02*
X132406200Y-95540174I0J335106D01*
G01*
X132406200Y-94360386D01*
G75*
G02*
X132741306Y-94025280I335106J0D01*
G01*
X133646094Y-94025280D01*
G75*
G02*
X133981200Y-94360386I0J-335106D01*
G01*
G37*
G36*
G01*
X140480394Y-88015000D02*
X139300606Y-88015000D01*
G75*
G02*
X138965500Y-87679894I0J335106D01*
G01*
X138965500Y-86775106D01*
G75*
G02*
X139300606Y-86440000I335106J0D01*
G01*
X140480394Y-86440000D01*
G75*
G02*
X140815500Y-86775106I0J-335106D01*
G01*
X140815500Y-87679894D01*
G75*
G02*
X140480394Y-88015000I-335106J0D01*
G01*
G37*
G36*
G01*
X140480394Y-90090000D02*
X139300606Y-90090000D01*
G75*
G02*
X138965500Y-89754894I0J335106D01*
G01*
X138965500Y-88850106D01*
G75*
G02*
X139300606Y-88515000I335106J0D01*
G01*
X140480394Y-88515000D01*
G75*
G02*
X140815500Y-88850106I0J-335106D01*
G01*
X140815500Y-89754894D01*
G75*
G02*
X140480394Y-90090000I-335106J0D01*
G01*
G37*
X152679400Y-98958400D03*
G36*
G01*
X153729400Y-100648400D02*
X153729400Y-102348400D01*
G75*
G02*
X153529400Y-102548400I-200000J0D01*
G01*
X151829400Y-102548400D01*
G75*
G02*
X151629400Y-102348400I0J200000D01*
G01*
X151629400Y-100648400D01*
G75*
G02*
X151829400Y-100448400I200000J0D01*
G01*
X153529400Y-100448400D01*
G75*
G02*
X153729400Y-100648400I0J-200000D01*
G01*
G37*
G36*
G01*
X147859700Y-106393500D02*
X147059700Y-106393500D01*
G75*
G02*
X146859700Y-106193500I0J200000D01*
G01*
X146859700Y-105293500D01*
G75*
G02*
X147059700Y-105093500I200000J0D01*
G01*
X147859700Y-105093500D01*
G75*
G02*
X148059700Y-105293500I0J-200000D01*
G01*
X148059700Y-106193500D01*
G75*
G02*
X147859700Y-106393500I-200000J0D01*
G01*
G37*
G36*
G01*
X148809700Y-108393500D02*
X148009700Y-108393500D01*
G75*
G02*
X147809700Y-108193500I0J200000D01*
G01*
X147809700Y-107293500D01*
G75*
G02*
X148009700Y-107093500I200000J0D01*
G01*
X148809700Y-107093500D01*
G75*
G02*
X149009700Y-107293500I0J-200000D01*
G01*
X149009700Y-108193500D01*
G75*
G02*
X148809700Y-108393500I-200000J0D01*
G01*
G37*
G36*
G01*
X146909700Y-108393500D02*
X146109700Y-108393500D01*
G75*
G02*
X145909700Y-108193500I0J200000D01*
G01*
X145909700Y-107293500D01*
G75*
G02*
X146109700Y-107093500I200000J0D01*
G01*
X146909700Y-107093500D01*
G75*
G02*
X147109700Y-107293500I0J-200000D01*
G01*
X147109700Y-108193500D01*
G75*
G02*
X146909700Y-108393500I-200000J0D01*
G01*
G37*
G36*
G01*
X143719500Y-106393500D02*
X142919500Y-106393500D01*
G75*
G02*
X142719500Y-106193500I0J200000D01*
G01*
X142719500Y-105293500D01*
G75*
G02*
X142919500Y-105093500I200000J0D01*
G01*
X143719500Y-105093500D01*
G75*
G02*
X143919500Y-105293500I0J-200000D01*
G01*
X143919500Y-106193500D01*
G75*
G02*
X143719500Y-106393500I-200000J0D01*
G01*
G37*
G36*
G01*
X144669500Y-108393500D02*
X143869500Y-108393500D01*
G75*
G02*
X143669500Y-108193500I0J200000D01*
G01*
X143669500Y-107293500D01*
G75*
G02*
X143869500Y-107093500I200000J0D01*
G01*
X144669500Y-107093500D01*
G75*
G02*
X144869500Y-107293500I0J-200000D01*
G01*
X144869500Y-108193500D01*
G75*
G02*
X144669500Y-108393500I-200000J0D01*
G01*
G37*
G36*
G01*
X142769500Y-108393500D02*
X141969500Y-108393500D01*
G75*
G02*
X141769500Y-108193500I0J200000D01*
G01*
X141769500Y-107293500D01*
G75*
G02*
X141969500Y-107093500I200000J0D01*
G01*
X142769500Y-107093500D01*
G75*
G02*
X142969500Y-107293500I0J-200000D01*
G01*
X142969500Y-108193500D01*
G75*
G02*
X142769500Y-108393500I-200000J0D01*
G01*
G37*
G36*
G01*
X136798000Y-106634800D02*
X135998000Y-106634800D01*
G75*
G02*
X135798000Y-106434800I0J200000D01*
G01*
X135798000Y-105534800D01*
G75*
G02*
X135998000Y-105334800I200000J0D01*
G01*
X136798000Y-105334800D01*
G75*
G02*
X136998000Y-105534800I0J-200000D01*
G01*
X136998000Y-106434800D01*
G75*
G02*
X136798000Y-106634800I-200000J0D01*
G01*
G37*
G36*
G01*
X137748000Y-108634800D02*
X136948000Y-108634800D01*
G75*
G02*
X136748000Y-108434800I0J200000D01*
G01*
X136748000Y-107534800D01*
G75*
G02*
X136948000Y-107334800I200000J0D01*
G01*
X137748000Y-107334800D01*
G75*
G02*
X137948000Y-107534800I0J-200000D01*
G01*
X137948000Y-108434800D01*
G75*
G02*
X137748000Y-108634800I-200000J0D01*
G01*
G37*
G36*
G01*
X135848000Y-108634800D02*
X135048000Y-108634800D01*
G75*
G02*
X134848000Y-108434800I0J200000D01*
G01*
X134848000Y-107534800D01*
G75*
G02*
X135048000Y-107334800I200000J0D01*
G01*
X135848000Y-107334800D01*
G75*
G02*
X136048000Y-107534800I0J-200000D01*
G01*
X136048000Y-108434800D01*
G75*
G02*
X135848000Y-108634800I-200000J0D01*
G01*
G37*
G36*
G01*
X149129094Y-111306800D02*
X147949306Y-111306800D01*
G75*
G02*
X147614200Y-110971694I0J335106D01*
G01*
X147614200Y-110066906D01*
G75*
G02*
X147949306Y-109731800I335106J0D01*
G01*
X149129094Y-109731800D01*
G75*
G02*
X149464200Y-110066906I0J-335106D01*
G01*
X149464200Y-110971694D01*
G75*
G02*
X149129094Y-111306800I-335106J0D01*
G01*
G37*
G36*
G01*
X149129094Y-113381800D02*
X147949306Y-113381800D01*
G75*
G02*
X147614200Y-113046694I0J335106D01*
G01*
X147614200Y-112141906D01*
G75*
G02*
X147949306Y-111806800I335106J0D01*
G01*
X149129094Y-111806800D01*
G75*
G02*
X149464200Y-112141906I0J-335106D01*
G01*
X149464200Y-113046694D01*
G75*
G02*
X149129094Y-113381800I-335106J0D01*
G01*
G37*
G36*
G01*
X140564214Y-102137400D02*
X139384426Y-102137400D01*
G75*
G02*
X139049320Y-101802294I0J335106D01*
G01*
X139049320Y-100897506D01*
G75*
G02*
X139384426Y-100562400I335106J0D01*
G01*
X140564214Y-100562400D01*
G75*
G02*
X140899320Y-100897506I0J-335106D01*
G01*
X140899320Y-101802294D01*
G75*
G02*
X140564214Y-102137400I-335106J0D01*
G01*
G37*
G36*
G01*
X140564214Y-104212400D02*
X139384426Y-104212400D01*
G75*
G02*
X139049320Y-103877294I0J335106D01*
G01*
X139049320Y-102972506D01*
G75*
G02*
X139384426Y-102637400I335106J0D01*
G01*
X140564214Y-102637400D01*
G75*
G02*
X140899320Y-102972506I0J-335106D01*
G01*
X140899320Y-103877294D01*
G75*
G02*
X140564214Y-104212400I-335106J0D01*
G01*
G37*
G36*
G01*
X137949660Y-111303414D02*
X137949660Y-110123626D01*
G75*
G02*
X138284766Y-109788520I335106J0D01*
G01*
X139189554Y-109788520D01*
G75*
G02*
X139524660Y-110123626I0J-335106D01*
G01*
X139524660Y-111303414D01*
G75*
G02*
X139189554Y-111638520I-335106J0D01*
G01*
X138284766Y-111638520D01*
G75*
G02*
X137949660Y-111303414I0J335106D01*
G01*
G37*
G36*
G01*
X135874660Y-111303414D02*
X135874660Y-110123626D01*
G75*
G02*
X136209766Y-109788520I335106J0D01*
G01*
X137114554Y-109788520D01*
G75*
G02*
X137449660Y-110123626I0J-335106D01*
G01*
X137449660Y-111303414D01*
G75*
G02*
X137114554Y-111638520I-335106J0D01*
G01*
X136209766Y-111638520D01*
G75*
G02*
X135874660Y-111303414I0J335106D01*
G01*
G37*
G36*
G01*
X132250000Y-108589894D02*
X132250000Y-107410106D01*
G75*
G02*
X132585106Y-107075000I335106J0D01*
G01*
X133489894Y-107075000D01*
G75*
G02*
X133825000Y-107410106I0J-335106D01*
G01*
X133825000Y-108589894D01*
G75*
G02*
X133489894Y-108925000I-335106J0D01*
G01*
X132585106Y-108925000D01*
G75*
G02*
X132250000Y-108589894I0J335106D01*
G01*
G37*
G36*
G01*
X130175000Y-108589894D02*
X130175000Y-107410106D01*
G75*
G02*
X130510106Y-107075000I335106J0D01*
G01*
X131414894Y-107075000D01*
G75*
G02*
X131750000Y-107410106I0J-335106D01*
G01*
X131750000Y-108589894D01*
G75*
G02*
X131414894Y-108925000I-335106J0D01*
G01*
X130510106Y-108925000D01*
G75*
G02*
X130175000Y-108589894I0J335106D01*
G01*
G37*
G36*
G01*
X131957000Y-109493706D02*
X131957000Y-110673494D01*
G75*
G02*
X131621894Y-111008600I-335106J0D01*
G01*
X130717106Y-111008600D01*
G75*
G02*
X130382000Y-110673494I0J335106D01*
G01*
X130382000Y-109493706D01*
G75*
G02*
X130717106Y-109158600I335106J0D01*
G01*
X131621894Y-109158600D01*
G75*
G02*
X131957000Y-109493706I0J-335106D01*
G01*
G37*
G36*
G01*
X134032000Y-109493706D02*
X134032000Y-110673494D01*
G75*
G02*
X133696894Y-111008600I-335106J0D01*
G01*
X132792106Y-111008600D01*
G75*
G02*
X132457000Y-110673494I0J335106D01*
G01*
X132457000Y-109493706D01*
G75*
G02*
X132792106Y-109158600I335106J0D01*
G01*
X133696894Y-109158600D01*
G75*
G02*
X134032000Y-109493706I0J-335106D01*
G01*
G37*
X152628600Y-105283000D03*
G36*
G01*
X153678600Y-106973000D02*
X153678600Y-108673000D01*
G75*
G02*
X153478600Y-108873000I-200000J0D01*
G01*
X151778600Y-108873000D01*
G75*
G02*
X151578600Y-108673000I0J200000D01*
G01*
X151578600Y-106973000D01*
G75*
G02*
X151778600Y-106773000I200000J0D01*
G01*
X153478600Y-106773000D01*
G75*
G02*
X153678600Y-106973000I0J-200000D01*
G01*
G37*
X128016000Y-105232200D03*
G36*
G01*
X129066000Y-106922200D02*
X129066000Y-108622200D01*
G75*
G02*
X128866000Y-108822200I-200000J0D01*
G01*
X127166000Y-108822200D01*
G75*
G02*
X126966000Y-108622200I0J200000D01*
G01*
X126966000Y-106922200D01*
G75*
G02*
X127166000Y-106722200I200000J0D01*
G01*
X128866000Y-106722200D01*
G75*
G02*
X129066000Y-106922200I0J-200000D01*
G01*
G37*
M02*
