M48
; DRILL file {KiCad 5.99.0+really5.1.10+dfsg1-1} date Sat Jan 15 17:01:45 2022
; FORMAT={-:-/ absolute / metric / decimal}
; #@! TF.CreationDate,2022-01-15T17:01:45+02:00
; #@! TF.GenerationSoftware,Kicad,Pcbnew,5.99.0+really5.1.10+dfsg1-1
; #@! TF.FileFunction,Plated,1,2,PTH
FMAT,2
METRIC
T1C0.400
T2C1.000
T3C2.500
%
G90
G05
T1
X125.832Y-105.207
X126.238Y-92.456
X126.238Y-96.723
X127.991Y-103.403
X129.54Y-90.678
X131.166Y-103.048
X131.318Y-111.735
X131.572Y-115.062
X131.597Y-87.097
X132.334Y-85.293
X132.537Y-101.549
X133.35Y-87.947
X133.96Y-103.632
X134.429Y-93.408
X134.595Y-111.455
X134.62Y-101.549
X134.871Y-109.715
X134.874Y-115.062
X136.677Y-101.6
X138.176Y-101.778
X138.303Y-105.105
X138.43Y-86.741
X138.836Y-96.982
X140.03Y-114.998
X140.183Y-110.084
X140.289Y-112.151
X140.741Y-98.857
X141.541Y-87.122
X141.681Y-101.778
X141.829Y-113.523
X141.91Y-103.988
X143.002Y-89.725
X143.982Y-113.594
X144.45Y-100.228
X145.059Y-86.538
X145.148Y-108.953
X146.101Y-113.594
X146.482Y-101.448
X148.895Y-85.344
X149.415Y-92.075
X150.368Y-105.308
X150.749Y-98.755
X152.59Y-96.977
X152.654Y-90.932
X152.654Y-103.53
X154.356Y-99.187
X154.559Y-105.258
X154.61Y-92.685
T2
X128.016Y-105.232
X128.016Y-107.772
X128.219Y-92.527
X128.219Y-95.067
X152.629Y-105.283
X152.629Y-107.823
X152.679Y-98.958
X152.679Y-101.498
X152.695Y-92.685
X152.695Y-95.225
T3
X127.848Y-87.457
X127.848Y-112.457
X152.848Y-87.457
X152.848Y-112.457
T0
M30
