G04 #@! TF.GenerationSoftware,KiCad,Pcbnew,5.99.0+really5.1.10+dfsg1-1*
G04 #@! TF.CreationDate,2022-01-15T17:01:17+02:00*
G04 #@! TF.ProjectId,tia,7469612e-6b69-4636-9164-5f7063625858,rev?*
G04 #@! TF.SameCoordinates,Original*
G04 #@! TF.FileFunction,Copper,L1,Top*
G04 #@! TF.FilePolarity,Positive*
%FSLAX46Y46*%
G04 Gerber Fmt 4.6, Leading zero omitted, Abs format (unit mm)*
G04 Created by KiCad (PCBNEW 5.99.0+really5.1.10+dfsg1-1) date 2022-01-15 17:01:17*
%MOMM*%
%LPD*%
G01*
G04 APERTURE LIST*
G04 #@! TA.AperFunction,NonConductor*
%ADD10C,0.250000*%
G04 #@! TD*
G04 #@! TA.AperFunction,SMDPad,CuDef*
%ADD11C,1.000000*%
G04 #@! TD*
G04 #@! TA.AperFunction,ComponentPad*
%ADD12C,5.000000*%
G04 #@! TD*
G04 #@! TA.AperFunction,SMDPad,CuDef*
%ADD13R,0.800000X0.900000*%
G04 #@! TD*
G04 #@! TA.AperFunction,ComponentPad*
%ADD14O,1.700000X1.700000*%
G04 #@! TD*
G04 #@! TA.AperFunction,ComponentPad*
%ADD15R,1.700000X1.700000*%
G04 #@! TD*
G04 #@! TA.AperFunction,ViaPad*
%ADD16C,0.800000*%
G04 #@! TD*
G04 #@! TA.AperFunction,Conductor*
%ADD17C,1.000000*%
G04 #@! TD*
G04 #@! TA.AperFunction,Conductor*
%ADD18C,0.500000*%
G04 #@! TD*
G04 #@! TA.AperFunction,Conductor*
%ADD19C,0.250000*%
G04 #@! TD*
G04 #@! TA.AperFunction,Conductor*
%ADD20C,0.254000*%
G04 #@! TD*
G04 #@! TA.AperFunction,Conductor*
%ADD21C,0.100000*%
G04 #@! TD*
G04 APERTURE END LIST*
D10*
X126208636Y-101280980D02*
X126780064Y-101280980D01*
X126494350Y-102280980D02*
X126494350Y-101280980D01*
X127303874Y-101280980D02*
X127494350Y-101280980D01*
X127589588Y-101328600D01*
X127684826Y-101423838D01*
X127732445Y-101614314D01*
X127732445Y-101947647D01*
X127684826Y-102138123D01*
X127589588Y-102233361D01*
X127494350Y-102280980D01*
X127303874Y-102280980D01*
X127208636Y-102233361D01*
X127113398Y-102138123D01*
X127065779Y-101947647D01*
X127065779Y-101614314D01*
X127113398Y-101423838D01*
X127208636Y-101328600D01*
X127303874Y-101280980D01*
X128161017Y-102280980D02*
X128161017Y-101280980D01*
X128541969Y-101280980D01*
X128637207Y-101328600D01*
X128684826Y-101376219D01*
X128732445Y-101471457D01*
X128732445Y-101614314D01*
X128684826Y-101709552D01*
X128637207Y-101757171D01*
X128541969Y-101804790D01*
X128161017Y-101804790D01*
G04 #@! TA.AperFunction,SMDPad,CuDef*
G36*
G01*
X138370300Y-114425000D02*
X138845300Y-114425000D01*
G75*
G02*
X139082800Y-114662500I0J-237500D01*
G01*
X139082800Y-115162500D01*
G75*
G02*
X138845300Y-115400000I-237500J0D01*
G01*
X138370300Y-115400000D01*
G75*
G02*
X138132800Y-115162500I0J237500D01*
G01*
X138132800Y-114662500D01*
G75*
G02*
X138370300Y-114425000I237500J0D01*
G01*
G37*
G04 #@! TD.AperFunction*
G04 #@! TA.AperFunction,SMDPad,CuDef*
G36*
G01*
X138370300Y-112600000D02*
X138845300Y-112600000D01*
G75*
G02*
X139082800Y-112837500I0J-237500D01*
G01*
X139082800Y-113337500D01*
G75*
G02*
X138845300Y-113575000I-237500J0D01*
G01*
X138370300Y-113575000D01*
G75*
G02*
X138132800Y-113337500I0J237500D01*
G01*
X138132800Y-112837500D01*
G75*
G02*
X138370300Y-112600000I237500J0D01*
G01*
G37*
G04 #@! TD.AperFunction*
G04 #@! TA.AperFunction,SMDPad,CuDef*
G36*
G01*
X136270500Y-114425000D02*
X136745500Y-114425000D01*
G75*
G02*
X136983000Y-114662500I0J-237500D01*
G01*
X136983000Y-115162500D01*
G75*
G02*
X136745500Y-115400000I-237500J0D01*
G01*
X136270500Y-115400000D01*
G75*
G02*
X136033000Y-115162500I0J237500D01*
G01*
X136033000Y-114662500D01*
G75*
G02*
X136270500Y-114425000I237500J0D01*
G01*
G37*
G04 #@! TD.AperFunction*
G04 #@! TA.AperFunction,SMDPad,CuDef*
G36*
G01*
X136270500Y-112600000D02*
X136745500Y-112600000D01*
G75*
G02*
X136983000Y-112837500I0J-237500D01*
G01*
X136983000Y-113337500D01*
G75*
G02*
X136745500Y-113575000I-237500J0D01*
G01*
X136270500Y-113575000D01*
G75*
G02*
X136033000Y-113337500I0J237500D01*
G01*
X136033000Y-112837500D01*
G75*
G02*
X136270500Y-112600000I237500J0D01*
G01*
G37*
G04 #@! TD.AperFunction*
G04 #@! TA.AperFunction,SMDPad,CuDef*
G36*
G01*
X143755100Y-111539840D02*
X144230100Y-111539840D01*
G75*
G02*
X144467600Y-111777340I0J-237500D01*
G01*
X144467600Y-112277340D01*
G75*
G02*
X144230100Y-112514840I-237500J0D01*
G01*
X143755100Y-112514840D01*
G75*
G02*
X143517600Y-112277340I0J237500D01*
G01*
X143517600Y-111777340D01*
G75*
G02*
X143755100Y-111539840I237500J0D01*
G01*
G37*
G04 #@! TD.AperFunction*
G04 #@! TA.AperFunction,SMDPad,CuDef*
G36*
G01*
X143755100Y-109714840D02*
X144230100Y-109714840D01*
G75*
G02*
X144467600Y-109952340I0J-237500D01*
G01*
X144467600Y-110452340D01*
G75*
G02*
X144230100Y-110689840I-237500J0D01*
G01*
X143755100Y-110689840D01*
G75*
G02*
X143517600Y-110452340I0J237500D01*
G01*
X143517600Y-109952340D01*
G75*
G02*
X143755100Y-109714840I237500J0D01*
G01*
G37*
G04 #@! TD.AperFunction*
G04 #@! TA.AperFunction,SMDPad,CuDef*
G36*
G01*
X141575780Y-111565240D02*
X142050780Y-111565240D01*
G75*
G02*
X142288280Y-111802740I0J-237500D01*
G01*
X142288280Y-112302740D01*
G75*
G02*
X142050780Y-112540240I-237500J0D01*
G01*
X141575780Y-112540240D01*
G75*
G02*
X141338280Y-112302740I0J237500D01*
G01*
X141338280Y-111802740D01*
G75*
G02*
X141575780Y-111565240I237500J0D01*
G01*
G37*
G04 #@! TD.AperFunction*
G04 #@! TA.AperFunction,SMDPad,CuDef*
G36*
G01*
X141575780Y-109740240D02*
X142050780Y-109740240D01*
G75*
G02*
X142288280Y-109977740I0J-237500D01*
G01*
X142288280Y-110477740D01*
G75*
G02*
X142050780Y-110715240I-237500J0D01*
G01*
X141575780Y-110715240D01*
G75*
G02*
X141338280Y-110477740I0J237500D01*
G01*
X141338280Y-109977740D01*
G75*
G02*
X141575780Y-109740240I237500J0D01*
G01*
G37*
G04 #@! TD.AperFunction*
G04 #@! TA.AperFunction,SMDPad,CuDef*
G36*
G01*
X146439900Y-110598400D02*
X145964900Y-110598400D01*
G75*
G02*
X145727400Y-110360900I0J237500D01*
G01*
X145727400Y-109860900D01*
G75*
G02*
X145964900Y-109623400I237500J0D01*
G01*
X146439900Y-109623400D01*
G75*
G02*
X146677400Y-109860900I0J-237500D01*
G01*
X146677400Y-110360900D01*
G75*
G02*
X146439900Y-110598400I-237500J0D01*
G01*
G37*
G04 #@! TD.AperFunction*
G04 #@! TA.AperFunction,SMDPad,CuDef*
G36*
G01*
X146439900Y-112423400D02*
X145964900Y-112423400D01*
G75*
G02*
X145727400Y-112185900I0J237500D01*
G01*
X145727400Y-111685900D01*
G75*
G02*
X145964900Y-111448400I237500J0D01*
G01*
X146439900Y-111448400D01*
G75*
G02*
X146677400Y-111685900I0J-237500D01*
G01*
X146677400Y-112185900D01*
G75*
G02*
X146439900Y-112423400I-237500J0D01*
G01*
G37*
G04 #@! TD.AperFunction*
G04 #@! TA.AperFunction,SMDPad,CuDef*
G36*
G01*
X132916920Y-114425000D02*
X133391920Y-114425000D01*
G75*
G02*
X133629420Y-114662500I0J-237500D01*
G01*
X133629420Y-115162500D01*
G75*
G02*
X133391920Y-115400000I-237500J0D01*
G01*
X132916920Y-115400000D01*
G75*
G02*
X132679420Y-115162500I0J237500D01*
G01*
X132679420Y-114662500D01*
G75*
G02*
X132916920Y-114425000I237500J0D01*
G01*
G37*
G04 #@! TD.AperFunction*
G04 #@! TA.AperFunction,SMDPad,CuDef*
G36*
G01*
X132916920Y-112600000D02*
X133391920Y-112600000D01*
G75*
G02*
X133629420Y-112837500I0J-237500D01*
G01*
X133629420Y-113337500D01*
G75*
G02*
X133391920Y-113575000I-237500J0D01*
G01*
X132916920Y-113575000D01*
G75*
G02*
X132679420Y-113337500I0J237500D01*
G01*
X132679420Y-112837500D01*
G75*
G02*
X132916920Y-112600000I237500J0D01*
G01*
G37*
G04 #@! TD.AperFunction*
G04 #@! TA.AperFunction,SMDPad,CuDef*
G36*
G01*
X136138100Y-103394500D02*
X136138100Y-103869500D01*
G75*
G02*
X135900600Y-104107000I-237500J0D01*
G01*
X135400600Y-104107000D01*
G75*
G02*
X135163100Y-103869500I0J237500D01*
G01*
X135163100Y-103394500D01*
G75*
G02*
X135400600Y-103157000I237500J0D01*
G01*
X135900600Y-103157000D01*
G75*
G02*
X136138100Y-103394500I0J-237500D01*
G01*
G37*
G04 #@! TD.AperFunction*
G04 #@! TA.AperFunction,SMDPad,CuDef*
G36*
G01*
X137963100Y-103394500D02*
X137963100Y-103869500D01*
G75*
G02*
X137725600Y-104107000I-237500J0D01*
G01*
X137225600Y-104107000D01*
G75*
G02*
X136988100Y-103869500I0J237500D01*
G01*
X136988100Y-103394500D01*
G75*
G02*
X137225600Y-103157000I237500J0D01*
G01*
X137725600Y-103157000D01*
G75*
G02*
X137963100Y-103394500I0J-237500D01*
G01*
G37*
G04 #@! TD.AperFunction*
G04 #@! TA.AperFunction,SMDPad,CuDef*
G36*
G01*
X131604200Y-105731300D02*
X131604200Y-106206300D01*
G75*
G02*
X131366700Y-106443800I-237500J0D01*
G01*
X130866700Y-106443800D01*
G75*
G02*
X130629200Y-106206300I0J237500D01*
G01*
X130629200Y-105731300D01*
G75*
G02*
X130866700Y-105493800I237500J0D01*
G01*
X131366700Y-105493800D01*
G75*
G02*
X131604200Y-105731300I0J-237500D01*
G01*
G37*
G04 #@! TD.AperFunction*
G04 #@! TA.AperFunction,SMDPad,CuDef*
G36*
G01*
X133429200Y-105731300D02*
X133429200Y-106206300D01*
G75*
G02*
X133191700Y-106443800I-237500J0D01*
G01*
X132691700Y-106443800D01*
G75*
G02*
X132454200Y-106206300I0J237500D01*
G01*
X132454200Y-105731300D01*
G75*
G02*
X132691700Y-105493800I237500J0D01*
G01*
X133191700Y-105493800D01*
G75*
G02*
X133429200Y-105731300I0J-237500D01*
G01*
G37*
G04 #@! TD.AperFunction*
G04 #@! TA.AperFunction,SMDPad,CuDef*
G36*
G01*
X139762500Y-107175000D02*
X140237500Y-107175000D01*
G75*
G02*
X140475000Y-107412500I0J-237500D01*
G01*
X140475000Y-107912500D01*
G75*
G02*
X140237500Y-108150000I-237500J0D01*
G01*
X139762500Y-108150000D01*
G75*
G02*
X139525000Y-107912500I0J237500D01*
G01*
X139525000Y-107412500D01*
G75*
G02*
X139762500Y-107175000I237500J0D01*
G01*
G37*
G04 #@! TD.AperFunction*
G04 #@! TA.AperFunction,SMDPad,CuDef*
G36*
G01*
X139762500Y-105350000D02*
X140237500Y-105350000D01*
G75*
G02*
X140475000Y-105587500I0J-237500D01*
G01*
X140475000Y-106087500D01*
G75*
G02*
X140237500Y-106325000I-237500J0D01*
G01*
X139762500Y-106325000D01*
G75*
G02*
X139525000Y-106087500I0J237500D01*
G01*
X139525000Y-105587500D01*
G75*
G02*
X139762500Y-105350000I237500J0D01*
G01*
G37*
G04 #@! TD.AperFunction*
G04 #@! TA.AperFunction,SMDPad,CuDef*
G36*
G01*
X147321720Y-103521500D02*
X147321720Y-103996500D01*
G75*
G02*
X147084220Y-104234000I-237500J0D01*
G01*
X146584220Y-104234000D01*
G75*
G02*
X146346720Y-103996500I0J237500D01*
G01*
X146346720Y-103521500D01*
G75*
G02*
X146584220Y-103284000I237500J0D01*
G01*
X147084220Y-103284000D01*
G75*
G02*
X147321720Y-103521500I0J-237500D01*
G01*
G37*
G04 #@! TD.AperFunction*
G04 #@! TA.AperFunction,SMDPad,CuDef*
G36*
G01*
X149146720Y-103521500D02*
X149146720Y-103996500D01*
G75*
G02*
X148909220Y-104234000I-237500J0D01*
G01*
X148409220Y-104234000D01*
G75*
G02*
X148171720Y-103996500I0J237500D01*
G01*
X148171720Y-103521500D01*
G75*
G02*
X148409220Y-103284000I237500J0D01*
G01*
X148909220Y-103284000D01*
G75*
G02*
X149146720Y-103521500I0J-237500D01*
G01*
G37*
G04 #@! TD.AperFunction*
G04 #@! TA.AperFunction,SMDPad,CuDef*
G36*
G01*
X147339500Y-87964000D02*
X147339500Y-88439000D01*
G75*
G02*
X147102000Y-88676500I-237500J0D01*
G01*
X146602000Y-88676500D01*
G75*
G02*
X146364500Y-88439000I0J237500D01*
G01*
X146364500Y-87964000D01*
G75*
G02*
X146602000Y-87726500I237500J0D01*
G01*
X147102000Y-87726500D01*
G75*
G02*
X147339500Y-87964000I0J-237500D01*
G01*
G37*
G04 #@! TD.AperFunction*
G04 #@! TA.AperFunction,SMDPad,CuDef*
G36*
G01*
X149164500Y-87964000D02*
X149164500Y-88439000D01*
G75*
G02*
X148927000Y-88676500I-237500J0D01*
G01*
X148427000Y-88676500D01*
G75*
G02*
X148189500Y-88439000I0J237500D01*
G01*
X148189500Y-87964000D01*
G75*
G02*
X148427000Y-87726500I237500J0D01*
G01*
X148927000Y-87726500D01*
G75*
G02*
X149164500Y-87964000I0J-237500D01*
G01*
G37*
G04 #@! TD.AperFunction*
G04 #@! TA.AperFunction,SMDPad,CuDef*
G36*
G01*
X136470380Y-99114160D02*
X136945380Y-99114160D01*
G75*
G02*
X137182880Y-99351660I0J-237500D01*
G01*
X137182880Y-99851660D01*
G75*
G02*
X136945380Y-100089160I-237500J0D01*
G01*
X136470380Y-100089160D01*
G75*
G02*
X136232880Y-99851660I0J237500D01*
G01*
X136232880Y-99351660D01*
G75*
G02*
X136470380Y-99114160I237500J0D01*
G01*
G37*
G04 #@! TD.AperFunction*
G04 #@! TA.AperFunction,SMDPad,CuDef*
G36*
G01*
X136470380Y-97289160D02*
X136945380Y-97289160D01*
G75*
G02*
X137182880Y-97526660I0J-237500D01*
G01*
X137182880Y-98026660D01*
G75*
G02*
X136945380Y-98264160I-237500J0D01*
G01*
X136470380Y-98264160D01*
G75*
G02*
X136232880Y-98026660I0J237500D01*
G01*
X136232880Y-97526660D01*
G75*
G02*
X136470380Y-97289160I237500J0D01*
G01*
G37*
G04 #@! TD.AperFunction*
G04 #@! TA.AperFunction,SMDPad,CuDef*
G36*
G01*
X134372340Y-99093840D02*
X134847340Y-99093840D01*
G75*
G02*
X135084840Y-99331340I0J-237500D01*
G01*
X135084840Y-99831340D01*
G75*
G02*
X134847340Y-100068840I-237500J0D01*
G01*
X134372340Y-100068840D01*
G75*
G02*
X134134840Y-99831340I0J237500D01*
G01*
X134134840Y-99331340D01*
G75*
G02*
X134372340Y-99093840I237500J0D01*
G01*
G37*
G04 #@! TD.AperFunction*
G04 #@! TA.AperFunction,SMDPad,CuDef*
G36*
G01*
X134372340Y-97268840D02*
X134847340Y-97268840D01*
G75*
G02*
X135084840Y-97506340I0J-237500D01*
G01*
X135084840Y-98006340D01*
G75*
G02*
X134847340Y-98243840I-237500J0D01*
G01*
X134372340Y-98243840D01*
G75*
G02*
X134134840Y-98006340I0J237500D01*
G01*
X134134840Y-97506340D01*
G75*
G02*
X134372340Y-97268840I237500J0D01*
G01*
G37*
G04 #@! TD.AperFunction*
G04 #@! TA.AperFunction,SMDPad,CuDef*
G36*
G01*
X144148800Y-98519800D02*
X144623800Y-98519800D01*
G75*
G02*
X144861300Y-98757300I0J-237500D01*
G01*
X144861300Y-99257300D01*
G75*
G02*
X144623800Y-99494800I-237500J0D01*
G01*
X144148800Y-99494800D01*
G75*
G02*
X143911300Y-99257300I0J237500D01*
G01*
X143911300Y-98757300D01*
G75*
G02*
X144148800Y-98519800I237500J0D01*
G01*
G37*
G04 #@! TD.AperFunction*
G04 #@! TA.AperFunction,SMDPad,CuDef*
G36*
G01*
X144148800Y-96694800D02*
X144623800Y-96694800D01*
G75*
G02*
X144861300Y-96932300I0J-237500D01*
G01*
X144861300Y-97432300D01*
G75*
G02*
X144623800Y-97669800I-237500J0D01*
G01*
X144148800Y-97669800D01*
G75*
G02*
X143911300Y-97432300I0J237500D01*
G01*
X143911300Y-96932300D01*
G75*
G02*
X144148800Y-96694800I237500J0D01*
G01*
G37*
G04 #@! TD.AperFunction*
G04 #@! TA.AperFunction,SMDPad,CuDef*
G36*
G01*
X141875500Y-98296280D02*
X142350500Y-98296280D01*
G75*
G02*
X142588000Y-98533780I0J-237500D01*
G01*
X142588000Y-99033780D01*
G75*
G02*
X142350500Y-99271280I-237500J0D01*
G01*
X141875500Y-99271280D01*
G75*
G02*
X141638000Y-99033780I0J237500D01*
G01*
X141638000Y-98533780D01*
G75*
G02*
X141875500Y-98296280I237500J0D01*
G01*
G37*
G04 #@! TD.AperFunction*
G04 #@! TA.AperFunction,SMDPad,CuDef*
G36*
G01*
X141875500Y-96471280D02*
X142350500Y-96471280D01*
G75*
G02*
X142588000Y-96708780I0J-237500D01*
G01*
X142588000Y-97208780D01*
G75*
G02*
X142350500Y-97446280I-237500J0D01*
G01*
X141875500Y-97446280D01*
G75*
G02*
X141638000Y-97208780I0J237500D01*
G01*
X141638000Y-96708780D01*
G75*
G02*
X141875500Y-96471280I237500J0D01*
G01*
G37*
G04 #@! TD.AperFunction*
G04 #@! TA.AperFunction,SMDPad,CuDef*
G36*
G01*
X146696440Y-97433580D02*
X146221440Y-97433580D01*
G75*
G02*
X145983940Y-97196080I0J237500D01*
G01*
X145983940Y-96696080D01*
G75*
G02*
X146221440Y-96458580I237500J0D01*
G01*
X146696440Y-96458580D01*
G75*
G02*
X146933940Y-96696080I0J-237500D01*
G01*
X146933940Y-97196080D01*
G75*
G02*
X146696440Y-97433580I-237500J0D01*
G01*
G37*
G04 #@! TD.AperFunction*
G04 #@! TA.AperFunction,SMDPad,CuDef*
G36*
G01*
X146696440Y-99258580D02*
X146221440Y-99258580D01*
G75*
G02*
X145983940Y-99021080I0J237500D01*
G01*
X145983940Y-98521080D01*
G75*
G02*
X146221440Y-98283580I237500J0D01*
G01*
X146696440Y-98283580D01*
G75*
G02*
X146933940Y-98521080I0J-237500D01*
G01*
X146933940Y-99021080D01*
G75*
G02*
X146696440Y-99258580I-237500J0D01*
G01*
G37*
G04 #@! TD.AperFunction*
G04 #@! TA.AperFunction,SMDPad,CuDef*
G36*
G01*
X132294620Y-99114160D02*
X132769620Y-99114160D01*
G75*
G02*
X133007120Y-99351660I0J-237500D01*
G01*
X133007120Y-99851660D01*
G75*
G02*
X132769620Y-100089160I-237500J0D01*
G01*
X132294620Y-100089160D01*
G75*
G02*
X132057120Y-99851660I0J237500D01*
G01*
X132057120Y-99351660D01*
G75*
G02*
X132294620Y-99114160I237500J0D01*
G01*
G37*
G04 #@! TD.AperFunction*
G04 #@! TA.AperFunction,SMDPad,CuDef*
G36*
G01*
X132294620Y-97289160D02*
X132769620Y-97289160D01*
G75*
G02*
X133007120Y-97526660I0J-237500D01*
G01*
X133007120Y-98026660D01*
G75*
G02*
X132769620Y-98264160I-237500J0D01*
G01*
X132294620Y-98264160D01*
G75*
G02*
X132057120Y-98026660I0J237500D01*
G01*
X132057120Y-97526660D01*
G75*
G02*
X132294620Y-97289160I237500J0D01*
G01*
G37*
G04 #@! TD.AperFunction*
G04 #@! TA.AperFunction,SMDPad,CuDef*
G36*
G01*
X135719000Y-87710000D02*
X135719000Y-88185000D01*
G75*
G02*
X135481500Y-88422500I-237500J0D01*
G01*
X134981500Y-88422500D01*
G75*
G02*
X134744000Y-88185000I0J237500D01*
G01*
X134744000Y-87710000D01*
G75*
G02*
X134981500Y-87472500I237500J0D01*
G01*
X135481500Y-87472500D01*
G75*
G02*
X135719000Y-87710000I0J-237500D01*
G01*
G37*
G04 #@! TD.AperFunction*
G04 #@! TA.AperFunction,SMDPad,CuDef*
G36*
G01*
X137544000Y-87710000D02*
X137544000Y-88185000D01*
G75*
G02*
X137306500Y-88422500I-237500J0D01*
G01*
X136806500Y-88422500D01*
G75*
G02*
X136569000Y-88185000I0J237500D01*
G01*
X136569000Y-87710000D01*
G75*
G02*
X136806500Y-87472500I237500J0D01*
G01*
X137306500Y-87472500D01*
G75*
G02*
X137544000Y-87710000I0J-237500D01*
G01*
G37*
G04 #@! TD.AperFunction*
G04 #@! TA.AperFunction,SMDPad,CuDef*
G36*
G01*
X131649920Y-89775020D02*
X131649920Y-90250020D01*
G75*
G02*
X131412420Y-90487520I-237500J0D01*
G01*
X130912420Y-90487520D01*
G75*
G02*
X130674920Y-90250020I0J237500D01*
G01*
X130674920Y-89775020D01*
G75*
G02*
X130912420Y-89537520I237500J0D01*
G01*
X131412420Y-89537520D01*
G75*
G02*
X131649920Y-89775020I0J-237500D01*
G01*
G37*
G04 #@! TD.AperFunction*
G04 #@! TA.AperFunction,SMDPad,CuDef*
G36*
G01*
X133474920Y-89775020D02*
X133474920Y-90250020D01*
G75*
G02*
X133237420Y-90487520I-237500J0D01*
G01*
X132737420Y-90487520D01*
G75*
G02*
X132499920Y-90250020I0J237500D01*
G01*
X132499920Y-89775020D01*
G75*
G02*
X132737420Y-89537520I237500J0D01*
G01*
X133237420Y-89537520D01*
G75*
G02*
X133474920Y-89775020I0J-237500D01*
G01*
G37*
G04 #@! TD.AperFunction*
G04 #@! TA.AperFunction,SMDPad,CuDef*
G36*
G01*
X139780000Y-92881000D02*
X140255000Y-92881000D01*
G75*
G02*
X140492500Y-93118500I0J-237500D01*
G01*
X140492500Y-93618500D01*
G75*
G02*
X140255000Y-93856000I-237500J0D01*
G01*
X139780000Y-93856000D01*
G75*
G02*
X139542500Y-93618500I0J237500D01*
G01*
X139542500Y-93118500D01*
G75*
G02*
X139780000Y-92881000I237500J0D01*
G01*
G37*
G04 #@! TD.AperFunction*
G04 #@! TA.AperFunction,SMDPad,CuDef*
G36*
G01*
X139780000Y-91056000D02*
X140255000Y-91056000D01*
G75*
G02*
X140492500Y-91293500I0J-237500D01*
G01*
X140492500Y-91793500D01*
G75*
G02*
X140255000Y-92031000I-237500J0D01*
G01*
X139780000Y-92031000D01*
G75*
G02*
X139542500Y-91793500I0J237500D01*
G01*
X139542500Y-91293500D01*
G75*
G02*
X139780000Y-91056000I237500J0D01*
G01*
G37*
G04 #@! TD.AperFunction*
G04 #@! TA.AperFunction,SMDPad,CuDef*
G36*
G01*
X147974500Y-90250000D02*
X147974500Y-90725000D01*
G75*
G02*
X147737000Y-90962500I-237500J0D01*
G01*
X147237000Y-90962500D01*
G75*
G02*
X146999500Y-90725000I0J237500D01*
G01*
X146999500Y-90250000D01*
G75*
G02*
X147237000Y-90012500I237500J0D01*
G01*
X147737000Y-90012500D01*
G75*
G02*
X147974500Y-90250000I0J-237500D01*
G01*
G37*
G04 #@! TD.AperFunction*
G04 #@! TA.AperFunction,SMDPad,CuDef*
G36*
G01*
X149799500Y-90250000D02*
X149799500Y-90725000D01*
G75*
G02*
X149562000Y-90962500I-237500J0D01*
G01*
X149062000Y-90962500D01*
G75*
G02*
X148824500Y-90725000I0J237500D01*
G01*
X148824500Y-90250000D01*
G75*
G02*
X149062000Y-90012500I237500J0D01*
G01*
X149562000Y-90012500D01*
G75*
G02*
X149799500Y-90250000I0J-237500D01*
G01*
G37*
G04 #@! TD.AperFunction*
D11*
X149910800Y-93980000D03*
G04 #@! TA.AperFunction,SMDPad,CuDef*
G36*
G01*
X148444800Y-100972600D02*
X148444800Y-101922600D01*
G75*
G02*
X148194800Y-102172600I-250000J0D01*
G01*
X147519800Y-102172600D01*
G75*
G02*
X147269800Y-101922600I0J250000D01*
G01*
X147269800Y-100972600D01*
G75*
G02*
X147519800Y-100722600I250000J0D01*
G01*
X148194800Y-100722600D01*
G75*
G02*
X148444800Y-100972600I0J-250000D01*
G01*
G37*
G04 #@! TD.AperFunction*
G04 #@! TA.AperFunction,SMDPad,CuDef*
G36*
G01*
X150519800Y-100972600D02*
X150519800Y-101922600D01*
G75*
G02*
X150269800Y-102172600I-250000J0D01*
G01*
X149594800Y-102172600D01*
G75*
G02*
X149344800Y-101922600I0J250000D01*
G01*
X149344800Y-100972600D01*
G75*
G02*
X149594800Y-100722600I250000J0D01*
G01*
X150269800Y-100722600D01*
G75*
G02*
X150519800Y-100972600I0J-250000D01*
G01*
G37*
G04 #@! TD.AperFunction*
D12*
X152848360Y-112457280D03*
X127848360Y-112457280D03*
X152848360Y-87457280D03*
X127848360Y-87457280D03*
G04 #@! TA.AperFunction,SMDPad,CuDef*
G36*
G01*
X144395500Y-88588001D02*
X144395500Y-87687999D01*
G75*
G02*
X144645499Y-87438000I249999J0D01*
G01*
X145295501Y-87438000D01*
G75*
G02*
X145545500Y-87687999I0J-249999D01*
G01*
X145545500Y-88588001D01*
G75*
G02*
X145295501Y-88838000I-249999J0D01*
G01*
X144645499Y-88838000D01*
G75*
G02*
X144395500Y-88588001I0J249999D01*
G01*
G37*
G04 #@! TD.AperFunction*
G04 #@! TA.AperFunction,SMDPad,CuDef*
G36*
G01*
X142345500Y-88588001D02*
X142345500Y-87687999D01*
G75*
G02*
X142595499Y-87438000I249999J0D01*
G01*
X143245501Y-87438000D01*
G75*
G02*
X143495500Y-87687999I0J-249999D01*
G01*
X143495500Y-88588001D01*
G75*
G02*
X143245501Y-88838000I-249999J0D01*
G01*
X142595499Y-88838000D01*
G75*
G02*
X142345500Y-88588001I0J249999D01*
G01*
G37*
G04 #@! TD.AperFunction*
G04 #@! TA.AperFunction,SMDPad,CuDef*
G36*
G01*
X132545240Y-92661760D02*
X132545240Y-91711760D01*
G75*
G02*
X132795240Y-91461760I250000J0D01*
G01*
X133470240Y-91461760D01*
G75*
G02*
X133720240Y-91711760I0J-250000D01*
G01*
X133720240Y-92661760D01*
G75*
G02*
X133470240Y-92911760I-250000J0D01*
G01*
X132795240Y-92911760D01*
G75*
G02*
X132545240Y-92661760I0J250000D01*
G01*
G37*
G04 #@! TD.AperFunction*
G04 #@! TA.AperFunction,SMDPad,CuDef*
G36*
G01*
X130470240Y-92661760D02*
X130470240Y-91711760D01*
G75*
G02*
X130720240Y-91461760I250000J0D01*
G01*
X131395240Y-91461760D01*
G75*
G02*
X131645240Y-91711760I0J-250000D01*
G01*
X131645240Y-92661760D01*
G75*
G02*
X131395240Y-92911760I-250000J0D01*
G01*
X130720240Y-92911760D01*
G75*
G02*
X130470240Y-92661760I0J250000D01*
G01*
G37*
G04 #@! TD.AperFunction*
D13*
X136207500Y-90059000D03*
X137157500Y-92059000D03*
X135257500Y-92059000D03*
X147040600Y-92802200D03*
X147990600Y-94802200D03*
X146090600Y-94802200D03*
X143040100Y-92812360D03*
X143990100Y-94812360D03*
X142090100Y-94812360D03*
D14*
X152694640Y-92684600D03*
D15*
X152694640Y-95224600D03*
D14*
X128219200Y-92527120D03*
D15*
X128219200Y-95067120D03*
G04 #@! TA.AperFunction,SMDPad,CuDef*
G36*
G01*
X136685440Y-96141560D02*
X136685440Y-95191560D01*
G75*
G02*
X136935440Y-94941560I250000J0D01*
G01*
X137610440Y-94941560D01*
G75*
G02*
X137860440Y-95191560I0J-250000D01*
G01*
X137860440Y-96141560D01*
G75*
G02*
X137610440Y-96391560I-250000J0D01*
G01*
X136935440Y-96391560D01*
G75*
G02*
X136685440Y-96141560I0J250000D01*
G01*
G37*
G04 #@! TD.AperFunction*
G04 #@! TA.AperFunction,SMDPad,CuDef*
G36*
G01*
X134610440Y-96141560D02*
X134610440Y-95191560D01*
G75*
G02*
X134860440Y-94941560I250000J0D01*
G01*
X135535440Y-94941560D01*
G75*
G02*
X135785440Y-95191560I0J-250000D01*
G01*
X135785440Y-96141560D01*
G75*
G02*
X135535440Y-96391560I-250000J0D01*
G01*
X134860440Y-96391560D01*
G75*
G02*
X134610440Y-96141560I0J250000D01*
G01*
G37*
G04 #@! TD.AperFunction*
G04 #@! TA.AperFunction,SMDPad,CuDef*
G36*
G01*
X149509500Y-97784500D02*
X148559500Y-97784500D01*
G75*
G02*
X148309500Y-97534500I0J250000D01*
G01*
X148309500Y-96859500D01*
G75*
G02*
X148559500Y-96609500I250000J0D01*
G01*
X149509500Y-96609500D01*
G75*
G02*
X149759500Y-96859500I0J-250000D01*
G01*
X149759500Y-97534500D01*
G75*
G02*
X149509500Y-97784500I-250000J0D01*
G01*
G37*
G04 #@! TD.AperFunction*
G04 #@! TA.AperFunction,SMDPad,CuDef*
G36*
G01*
X149509500Y-99859500D02*
X148559500Y-99859500D01*
G75*
G02*
X148309500Y-99609500I0J250000D01*
G01*
X148309500Y-98934500D01*
G75*
G02*
X148559500Y-98684500I250000J0D01*
G01*
X149509500Y-98684500D01*
G75*
G02*
X149759500Y-98934500I0J-250000D01*
G01*
X149759500Y-99609500D01*
G75*
G02*
X149509500Y-99859500I-250000J0D01*
G01*
G37*
G04 #@! TD.AperFunction*
G04 #@! TA.AperFunction,SMDPad,CuDef*
G36*
G01*
X131706200Y-94475280D02*
X131706200Y-95425280D01*
G75*
G02*
X131456200Y-95675280I-250000J0D01*
G01*
X130781200Y-95675280D01*
G75*
G02*
X130531200Y-95425280I0J250000D01*
G01*
X130531200Y-94475280D01*
G75*
G02*
X130781200Y-94225280I250000J0D01*
G01*
X131456200Y-94225280D01*
G75*
G02*
X131706200Y-94475280I0J-250000D01*
G01*
G37*
G04 #@! TD.AperFunction*
G04 #@! TA.AperFunction,SMDPad,CuDef*
G36*
G01*
X133781200Y-94475280D02*
X133781200Y-95425280D01*
G75*
G02*
X133531200Y-95675280I-250000J0D01*
G01*
X132856200Y-95675280D01*
G75*
G02*
X132606200Y-95425280I0J250000D01*
G01*
X132606200Y-94475280D01*
G75*
G02*
X132856200Y-94225280I250000J0D01*
G01*
X133531200Y-94225280D01*
G75*
G02*
X133781200Y-94475280I0J-250000D01*
G01*
G37*
G04 #@! TD.AperFunction*
G04 #@! TA.AperFunction,SMDPad,CuDef*
G36*
G01*
X140365500Y-87815000D02*
X139415500Y-87815000D01*
G75*
G02*
X139165500Y-87565000I0J250000D01*
G01*
X139165500Y-86890000D01*
G75*
G02*
X139415500Y-86640000I250000J0D01*
G01*
X140365500Y-86640000D01*
G75*
G02*
X140615500Y-86890000I0J-250000D01*
G01*
X140615500Y-87565000D01*
G75*
G02*
X140365500Y-87815000I-250000J0D01*
G01*
G37*
G04 #@! TD.AperFunction*
G04 #@! TA.AperFunction,SMDPad,CuDef*
G36*
G01*
X140365500Y-89890000D02*
X139415500Y-89890000D01*
G75*
G02*
X139165500Y-89640000I0J250000D01*
G01*
X139165500Y-88965000D01*
G75*
G02*
X139415500Y-88715000I250000J0D01*
G01*
X140365500Y-88715000D01*
G75*
G02*
X140615500Y-88965000I0J-250000D01*
G01*
X140615500Y-89640000D01*
G75*
G02*
X140365500Y-89890000I-250000J0D01*
G01*
G37*
G04 #@! TD.AperFunction*
D14*
X152679400Y-98958400D03*
D15*
X152679400Y-101498400D03*
D13*
X147459700Y-105743500D03*
X148409700Y-107743500D03*
X146509700Y-107743500D03*
X143319500Y-105743500D03*
X144269500Y-107743500D03*
X142369500Y-107743500D03*
X136398000Y-105984800D03*
X137348000Y-107984800D03*
X135448000Y-107984800D03*
G04 #@! TA.AperFunction,SMDPad,CuDef*
G36*
G01*
X149014200Y-111106800D02*
X148064200Y-111106800D01*
G75*
G02*
X147814200Y-110856800I0J250000D01*
G01*
X147814200Y-110181800D01*
G75*
G02*
X148064200Y-109931800I250000J0D01*
G01*
X149014200Y-109931800D01*
G75*
G02*
X149264200Y-110181800I0J-250000D01*
G01*
X149264200Y-110856800D01*
G75*
G02*
X149014200Y-111106800I-250000J0D01*
G01*
G37*
G04 #@! TD.AperFunction*
G04 #@! TA.AperFunction,SMDPad,CuDef*
G36*
G01*
X149014200Y-113181800D02*
X148064200Y-113181800D01*
G75*
G02*
X147814200Y-112931800I0J250000D01*
G01*
X147814200Y-112256800D01*
G75*
G02*
X148064200Y-112006800I250000J0D01*
G01*
X149014200Y-112006800D01*
G75*
G02*
X149264200Y-112256800I0J-250000D01*
G01*
X149264200Y-112931800D01*
G75*
G02*
X149014200Y-113181800I-250000J0D01*
G01*
G37*
G04 #@! TD.AperFunction*
G04 #@! TA.AperFunction,SMDPad,CuDef*
G36*
G01*
X140449320Y-101937400D02*
X139499320Y-101937400D01*
G75*
G02*
X139249320Y-101687400I0J250000D01*
G01*
X139249320Y-101012400D01*
G75*
G02*
X139499320Y-100762400I250000J0D01*
G01*
X140449320Y-100762400D01*
G75*
G02*
X140699320Y-101012400I0J-250000D01*
G01*
X140699320Y-101687400D01*
G75*
G02*
X140449320Y-101937400I-250000J0D01*
G01*
G37*
G04 #@! TD.AperFunction*
G04 #@! TA.AperFunction,SMDPad,CuDef*
G36*
G01*
X140449320Y-104012400D02*
X139499320Y-104012400D01*
G75*
G02*
X139249320Y-103762400I0J250000D01*
G01*
X139249320Y-103087400D01*
G75*
G02*
X139499320Y-102837400I250000J0D01*
G01*
X140449320Y-102837400D01*
G75*
G02*
X140699320Y-103087400I0J-250000D01*
G01*
X140699320Y-103762400D01*
G75*
G02*
X140449320Y-104012400I-250000J0D01*
G01*
G37*
G04 #@! TD.AperFunction*
G04 #@! TA.AperFunction,SMDPad,CuDef*
G36*
G01*
X138149660Y-111188520D02*
X138149660Y-110238520D01*
G75*
G02*
X138399660Y-109988520I250000J0D01*
G01*
X139074660Y-109988520D01*
G75*
G02*
X139324660Y-110238520I0J-250000D01*
G01*
X139324660Y-111188520D01*
G75*
G02*
X139074660Y-111438520I-250000J0D01*
G01*
X138399660Y-111438520D01*
G75*
G02*
X138149660Y-111188520I0J250000D01*
G01*
G37*
G04 #@! TD.AperFunction*
G04 #@! TA.AperFunction,SMDPad,CuDef*
G36*
G01*
X136074660Y-111188520D02*
X136074660Y-110238520D01*
G75*
G02*
X136324660Y-109988520I250000J0D01*
G01*
X136999660Y-109988520D01*
G75*
G02*
X137249660Y-110238520I0J-250000D01*
G01*
X137249660Y-111188520D01*
G75*
G02*
X136999660Y-111438520I-250000J0D01*
G01*
X136324660Y-111438520D01*
G75*
G02*
X136074660Y-111188520I0J250000D01*
G01*
G37*
G04 #@! TD.AperFunction*
G04 #@! TA.AperFunction,SMDPad,CuDef*
G36*
G01*
X132450000Y-108475000D02*
X132450000Y-107525000D01*
G75*
G02*
X132700000Y-107275000I250000J0D01*
G01*
X133375000Y-107275000D01*
G75*
G02*
X133625000Y-107525000I0J-250000D01*
G01*
X133625000Y-108475000D01*
G75*
G02*
X133375000Y-108725000I-250000J0D01*
G01*
X132700000Y-108725000D01*
G75*
G02*
X132450000Y-108475000I0J250000D01*
G01*
G37*
G04 #@! TD.AperFunction*
G04 #@! TA.AperFunction,SMDPad,CuDef*
G36*
G01*
X130375000Y-108475000D02*
X130375000Y-107525000D01*
G75*
G02*
X130625000Y-107275000I250000J0D01*
G01*
X131300000Y-107275000D01*
G75*
G02*
X131550000Y-107525000I0J-250000D01*
G01*
X131550000Y-108475000D01*
G75*
G02*
X131300000Y-108725000I-250000J0D01*
G01*
X130625000Y-108725000D01*
G75*
G02*
X130375000Y-108475000I0J250000D01*
G01*
G37*
G04 #@! TD.AperFunction*
G04 #@! TA.AperFunction,SMDPad,CuDef*
G36*
G01*
X131757000Y-109608600D02*
X131757000Y-110558600D01*
G75*
G02*
X131507000Y-110808600I-250000J0D01*
G01*
X130832000Y-110808600D01*
G75*
G02*
X130582000Y-110558600I0J250000D01*
G01*
X130582000Y-109608600D01*
G75*
G02*
X130832000Y-109358600I250000J0D01*
G01*
X131507000Y-109358600D01*
G75*
G02*
X131757000Y-109608600I0J-250000D01*
G01*
G37*
G04 #@! TD.AperFunction*
G04 #@! TA.AperFunction,SMDPad,CuDef*
G36*
G01*
X133832000Y-109608600D02*
X133832000Y-110558600D01*
G75*
G02*
X133582000Y-110808600I-250000J0D01*
G01*
X132907000Y-110808600D01*
G75*
G02*
X132657000Y-110558600I0J250000D01*
G01*
X132657000Y-109608600D01*
G75*
G02*
X132907000Y-109358600I250000J0D01*
G01*
X133582000Y-109358600D01*
G75*
G02*
X133832000Y-109608600I0J-250000D01*
G01*
G37*
G04 #@! TD.AperFunction*
D14*
X152628600Y-105283000D03*
D15*
X152628600Y-107823000D03*
D14*
X128016000Y-105232200D03*
D15*
X128016000Y-107772200D03*
D16*
X141681200Y-101777800D03*
X140289280Y-112151160D03*
X141828520Y-113522760D03*
X143982440Y-113593880D03*
X131572000Y-115062000D03*
X140030200Y-114998500D03*
X134594600Y-111455200D03*
X138176000Y-101777800D03*
X132537200Y-101549200D03*
X134620000Y-101549200D03*
X136677400Y-101600000D03*
X140741400Y-98856800D03*
X144449800Y-100228400D03*
X138836400Y-96982280D03*
X138430000Y-86741000D03*
X141541500Y-87122000D03*
X143002000Y-89725500D03*
X134874000Y-115062000D03*
X131318000Y-111734600D03*
X154355800Y-99187000D03*
X150749000Y-98755200D03*
X152654000Y-90932000D03*
X146100800Y-113593880D03*
X146481800Y-101447600D03*
X126238000Y-92456000D03*
X129540000Y-90678000D03*
X127990600Y-103403400D03*
X125831600Y-105206800D03*
X154559000Y-105257600D03*
X152590500Y-96977200D03*
X150368000Y-105308400D03*
X152654000Y-103530400D03*
X138303000Y-105105200D03*
X126238000Y-96723200D03*
X131597400Y-87096600D03*
X145059400Y-86537800D03*
X141909800Y-103987600D03*
X140182600Y-110083600D03*
X154609800Y-92684600D03*
X132334000Y-85293200D03*
X148894800Y-85344000D03*
X131165600Y-103047800D03*
X145148300Y-108953300D03*
X149415500Y-92075000D03*
X133350000Y-87947500D03*
X134429500Y-93408500D03*
X133959600Y-103632000D03*
X134871460Y-109715300D03*
D17*
X149396960Y-92056460D02*
X149415500Y-92075000D01*
X149396960Y-90297000D02*
X149396960Y-92056460D01*
X149479000Y-90360500D02*
X149479000Y-90551000D01*
X149161500Y-90043000D02*
X149479000Y-90360500D01*
X149161500Y-88598500D02*
X149161500Y-90043000D01*
X148764500Y-88201500D02*
X149161500Y-88598500D01*
X150414900Y-101447600D02*
X152603200Y-101447600D01*
X152603200Y-101447600D02*
X152679400Y-101523800D01*
X152425400Y-101904800D02*
X152577800Y-101904800D01*
X148823680Y-103835200D02*
X150495000Y-103835200D01*
X148762720Y-103774240D02*
X148823680Y-103835200D01*
X150495000Y-103835200D02*
X150495000Y-101422200D01*
X148793200Y-88112600D02*
X148844000Y-88163400D01*
X149415500Y-92075000D02*
X149415500Y-93535500D01*
X149415500Y-93535500D02*
X149961600Y-94081600D01*
X133000000Y-106000000D02*
X136378400Y-106000000D01*
X136378400Y-106000000D02*
X136385300Y-106006900D01*
D18*
X137383202Y-106000000D02*
X136378400Y-106000000D01*
X139133202Y-107750000D02*
X137383202Y-106000000D01*
X140000000Y-107750000D02*
X139133202Y-107750000D01*
X140000000Y-107750000D02*
X142389200Y-107750000D01*
X142389200Y-107750000D02*
X142468600Y-107670600D01*
D19*
X142250000Y-109550000D02*
X142250000Y-109650000D01*
D18*
X144269500Y-107743500D02*
X146427700Y-107743500D01*
X146427700Y-107743500D02*
X146456400Y-107772200D01*
X146456400Y-107772200D02*
X146469100Y-107772200D01*
X144269500Y-107743500D02*
X144224500Y-107743500D01*
X144224500Y-107743500D02*
X142227300Y-109740700D01*
X142227300Y-109740700D02*
X142227300Y-110020100D01*
X146456400Y-110109000D02*
X148424900Y-108140500D01*
X148424900Y-108140500D02*
X148424900Y-107810300D01*
X143992600Y-110109000D02*
X146456400Y-110109000D01*
X132542280Y-97708720D02*
X132552440Y-97718880D01*
X132796280Y-97439480D02*
X132481320Y-97754440D01*
X132796280Y-95347700D02*
X132796280Y-97439480D01*
X133193700Y-94950280D02*
X132796280Y-95347700D01*
X133193700Y-92698660D02*
X133243320Y-92649040D01*
X133288280Y-93456000D02*
X133193700Y-93361420D01*
X133193700Y-93361420D02*
X133193700Y-92698660D01*
X133193700Y-94950280D02*
X133193700Y-93361420D01*
D17*
X133259320Y-92013280D02*
X133141720Y-92130880D01*
X133132740Y-92186760D02*
X133132740Y-94849860D01*
X133132740Y-94849860D02*
X133243320Y-94960440D01*
X133239000Y-92059000D02*
X133223000Y-92075000D01*
X135144000Y-87947500D02*
X133350000Y-87947500D01*
X133350000Y-87947500D02*
X133350000Y-87947500D01*
X134572500Y-92059000D02*
X134572500Y-93234090D01*
X135257500Y-92059000D02*
X134572500Y-92059000D01*
X134572500Y-93234090D02*
X134413795Y-93392795D01*
X134572500Y-92059000D02*
X133239000Y-92059000D01*
D18*
X131057740Y-92186760D02*
X131057740Y-90054340D01*
X131057740Y-90054340D02*
X131064000Y-90048080D01*
X128508760Y-95006160D02*
X131048760Y-95006160D01*
X152415240Y-95280480D02*
X151069040Y-95280480D01*
X151069040Y-95280480D02*
X149565360Y-96784160D01*
X147002500Y-98780600D02*
X147599400Y-99377500D01*
X146545300Y-98780600D02*
X147002500Y-98780600D01*
X147599400Y-99377500D02*
X148948140Y-99377500D01*
X146519900Y-98755200D02*
X146545300Y-98780600D01*
X137103860Y-97718880D02*
X136636760Y-97718880D01*
X137241280Y-97581460D02*
X137103860Y-97718880D01*
X137241280Y-95544640D02*
X137241280Y-97581460D01*
X134660640Y-97420980D02*
X134660640Y-97784920D01*
X134609840Y-96326960D02*
X135310880Y-95625920D01*
X134609840Y-97668840D02*
X134609840Y-96326960D01*
D17*
X135214360Y-95286278D02*
X135214360Y-95824040D01*
X135276080Y-95594680D02*
X135173720Y-95697040D01*
X137157500Y-92629002D02*
X135064500Y-94722002D01*
X137157500Y-92059000D02*
X137157500Y-92629002D01*
X135064500Y-94722002D02*
X135064500Y-95821500D01*
D18*
X143990100Y-94812360D02*
X146269200Y-94812360D01*
X146269200Y-94812360D02*
X146291300Y-94790260D01*
X143990100Y-94812360D02*
X143738600Y-95063860D01*
X142240000Y-96583500D02*
X144018000Y-94805500D01*
X142240000Y-96774000D02*
X142240000Y-96583500D01*
X142251940Y-96774000D02*
X142240000Y-96774000D01*
X142349220Y-96871280D02*
X142251940Y-96774000D01*
X133074920Y-90012520D02*
X136113520Y-90012520D01*
X136113520Y-90012520D02*
X136207500Y-90106500D01*
X139960690Y-93472000D02*
X140081000Y-93472000D01*
X138366500Y-91877810D02*
X139960690Y-93472000D01*
X138366500Y-90796359D02*
X138366500Y-91877810D01*
X137629141Y-90059000D02*
X138366500Y-90796359D01*
X136207500Y-90059000D02*
X137629141Y-90059000D01*
X139954000Y-94030800D02*
X139954000Y-93408500D01*
X140735560Y-94812360D02*
X139954000Y-94030800D01*
X142090100Y-94812360D02*
X140735560Y-94812360D01*
X144391380Y-96870520D02*
X146461480Y-96870520D01*
X146461480Y-96870520D02*
X146494500Y-96837500D01*
X146558000Y-96890840D02*
X146606260Y-96939100D01*
X146558000Y-96697800D02*
X146558000Y-96890840D01*
X146634200Y-96621600D02*
X146558000Y-96697800D01*
X147140601Y-95518299D02*
X147140601Y-95772201D01*
X147802600Y-94856300D02*
X147140601Y-95518299D01*
X146634200Y-96278602D02*
X146634200Y-96621600D01*
X147140601Y-95772201D02*
X146634200Y-96278602D01*
X147904200Y-94856300D02*
X147802600Y-94856300D01*
X147998940Y-94761560D02*
X147904200Y-94856300D01*
X148206500Y-94761560D02*
X147998940Y-94761560D01*
D17*
X146764500Y-88201500D02*
X145034000Y-88201500D01*
X133037500Y-108000000D02*
X135432000Y-108000000D01*
X135432000Y-108000000D02*
X135445500Y-108013500D01*
X135563100Y-103632000D02*
X133959600Y-103632000D01*
X133959600Y-103632000D02*
X133959600Y-103632000D01*
X133037500Y-108000000D02*
X133037500Y-110139400D01*
X133037500Y-110139400D02*
X133057900Y-110159800D01*
X133019800Y-110045500D02*
X133350000Y-109715300D01*
X133350000Y-109715300D02*
X134871460Y-109715300D01*
D18*
X133037500Y-112908000D02*
X133220460Y-113090960D01*
X133037500Y-110000000D02*
X133037500Y-112908000D01*
X133154420Y-113000000D02*
X133154420Y-109837220D01*
X133154420Y-109837220D02*
X133096000Y-109778800D01*
D19*
X130750000Y-108000000D02*
X130750000Y-106100000D01*
X130750000Y-106100000D02*
X130650000Y-106000000D01*
D18*
X130962500Y-108000000D02*
X130962500Y-105892700D01*
X130962500Y-105892700D02*
X130962400Y-105892600D01*
D17*
X128143000Y-108127800D02*
X128447800Y-108127800D01*
D18*
X128626200Y-108305600D02*
X127939800Y-108305600D01*
X128397000Y-107899200D02*
X128041400Y-107899200D01*
X130302000Y-109804200D02*
X128397000Y-107899200D01*
X130962400Y-109804200D02*
X130302000Y-109804200D01*
X130991700Y-109833500D02*
X130962400Y-109804200D01*
X130991700Y-110083600D02*
X130991700Y-109833500D01*
X152628600Y-107950000D02*
X152679400Y-107899200D01*
X151371300Y-107950000D02*
X152628600Y-107950000D01*
X148602700Y-110718600D02*
X151371300Y-107950000D01*
X148539200Y-110718600D02*
X148602700Y-110718600D01*
X148285200Y-112445800D02*
X148412200Y-112572800D01*
X148412200Y-112572800D02*
X149047200Y-112572800D01*
X146659600Y-112445800D02*
X148285200Y-112445800D01*
X146253200Y-112039400D02*
X146659600Y-112445800D01*
X138704320Y-112857280D02*
X138704320Y-110754160D01*
X138561600Y-113000000D02*
X138704320Y-112857280D01*
D17*
X137348000Y-109434800D02*
X136718040Y-110064760D01*
X137348000Y-107984800D02*
X137348000Y-109434800D01*
X136718040Y-110064760D02*
X136718040Y-110850680D01*
D18*
X136565640Y-112760760D02*
X136321800Y-113004600D01*
X136565640Y-111431160D02*
X136565640Y-112760760D01*
D17*
X143015460Y-92748860D02*
X143057880Y-92791280D01*
X142553180Y-91456000D02*
X142991840Y-91894660D01*
X140017500Y-91456000D02*
X142553180Y-91456000D01*
X142991840Y-91894660D02*
X142991840Y-92948760D01*
X147256500Y-92761560D02*
X147256500Y-90551000D01*
X147256500Y-90551000D02*
X147383500Y-90424000D01*
X147256500Y-92761560D02*
X143013940Y-92761560D01*
X143013940Y-92761560D02*
X142938500Y-92837000D01*
X140017500Y-91456000D02*
X140017500Y-89344500D01*
X140017500Y-89344500D02*
X139954000Y-89281000D01*
X137144000Y-87947500D02*
X138541000Y-89344500D01*
X138541000Y-89344500D02*
X139890500Y-89344500D01*
X139975500Y-103593900D02*
X139975500Y-105749000D01*
X139975500Y-105749000D02*
X139979400Y-105752900D01*
X140000000Y-105750000D02*
X143271600Y-105750000D01*
X143271600Y-105750000D02*
X143281400Y-105740200D01*
X137563100Y-103632000D02*
X140017500Y-103632000D01*
X140017500Y-103632000D02*
X140093700Y-103555800D01*
X147459700Y-105743500D02*
X146832320Y-105116120D01*
X146832320Y-105116120D02*
X146832320Y-103759000D01*
X143319500Y-105743500D02*
X147348700Y-105743500D01*
X147348700Y-105743500D02*
X147406360Y-105801160D01*
D20*
X138556794Y-108272436D02*
X138581122Y-108302080D01*
X138699436Y-108399177D01*
X138834418Y-108471327D01*
X138980883Y-108515757D01*
X139095036Y-108527000D01*
X139095038Y-108527000D01*
X139133202Y-108530759D01*
X139171365Y-108527000D01*
X139307986Y-108527000D01*
X139336350Y-108550278D01*
X139468963Y-108621161D01*
X139612856Y-108664810D01*
X139762500Y-108679549D01*
X140237500Y-108679549D01*
X140387144Y-108664810D01*
X140531037Y-108621161D01*
X140663650Y-108550278D01*
X140692014Y-108527000D01*
X141561447Y-108527000D01*
X141595052Y-108567948D01*
X141675298Y-108633804D01*
X141766850Y-108682739D01*
X141866190Y-108712874D01*
X141969500Y-108723049D01*
X142146108Y-108723049D01*
X141704869Y-109164288D01*
X141675220Y-109188620D01*
X141657107Y-109210691D01*
X141575780Y-109210691D01*
X141426136Y-109225430D01*
X141282243Y-109269079D01*
X141149630Y-109339962D01*
X141033394Y-109435354D01*
X140938002Y-109551590D01*
X140867119Y-109684203D01*
X140823470Y-109828096D01*
X140808731Y-109977740D01*
X140808731Y-110477740D01*
X140823470Y-110627384D01*
X140867119Y-110771277D01*
X140938002Y-110903890D01*
X141026583Y-111011827D01*
X140983786Y-111034703D01*
X140887095Y-111114055D01*
X140807743Y-111210746D01*
X140748778Y-111321060D01*
X140712468Y-111440758D01*
X140700208Y-111565240D01*
X140703280Y-111766990D01*
X140862030Y-111925740D01*
X141686280Y-111925740D01*
X141686280Y-111905740D01*
X141940280Y-111905740D01*
X141940280Y-111925740D01*
X142764530Y-111925740D01*
X142915640Y-111774630D01*
X143041350Y-111900340D01*
X143865600Y-111900340D01*
X143865600Y-111880340D01*
X144119600Y-111880340D01*
X144119600Y-111900340D01*
X144943850Y-111900340D01*
X145102600Y-111741590D01*
X145105672Y-111539840D01*
X145093412Y-111415358D01*
X145057102Y-111295660D01*
X144998137Y-111185346D01*
X144918785Y-111088655D01*
X144822094Y-111009303D01*
X144779297Y-110986427D01*
X144861715Y-110886000D01*
X145408328Y-110886000D01*
X145422514Y-110903286D01*
X145538750Y-110998678D01*
X145585002Y-111023400D01*
X145538750Y-111048122D01*
X145422514Y-111143514D01*
X145327122Y-111259750D01*
X145256239Y-111392363D01*
X145212590Y-111536256D01*
X145197851Y-111685900D01*
X145197851Y-112185900D01*
X145212590Y-112335544D01*
X145256239Y-112479437D01*
X145327122Y-112612050D01*
X145422514Y-112728286D01*
X145538750Y-112823678D01*
X145671363Y-112894561D01*
X145815256Y-112938210D01*
X145964900Y-112952949D01*
X146067906Y-112952949D01*
X146083187Y-112968230D01*
X146107520Y-112997880D01*
X146225834Y-113094977D01*
X146360816Y-113167127D01*
X146507281Y-113211557D01*
X146621434Y-113222800D01*
X146621443Y-113222800D01*
X146659599Y-113226558D01*
X146697755Y-113222800D01*
X147341770Y-113222800D01*
X147343991Y-113230120D01*
X147416029Y-113364894D01*
X147512976Y-113483024D01*
X147631106Y-113579971D01*
X147765880Y-113652009D01*
X147912118Y-113696370D01*
X148064200Y-113711349D01*
X149014200Y-113711349D01*
X149166282Y-113696370D01*
X149312520Y-113652009D01*
X149447294Y-113579971D01*
X149565424Y-113483024D01*
X149662371Y-113364894D01*
X149734409Y-113230120D01*
X149778770Y-113083882D01*
X149793749Y-112931800D01*
X149793749Y-112788439D01*
X149812957Y-112725119D01*
X149821360Y-112639801D01*
X149821360Y-112755413D01*
X149937686Y-113340223D01*
X150165868Y-113891102D01*
X150497136Y-114386880D01*
X150918760Y-114808504D01*
X151414538Y-115139772D01*
X151965417Y-115367954D01*
X152550227Y-115484280D01*
X153146493Y-115484280D01*
X153731303Y-115367954D01*
X154282182Y-115139772D01*
X154777960Y-114808504D01*
X155199584Y-114386880D01*
X155530852Y-113891102D01*
X155729412Y-113411738D01*
X155730849Y-115204377D01*
X155682028Y-115445069D01*
X155586962Y-115672714D01*
X155449490Y-115877557D01*
X155274847Y-116051800D01*
X155069687Y-116188801D01*
X154841821Y-116283346D01*
X154583894Y-116335045D01*
X154567452Y-116336417D01*
X126304378Y-116364193D01*
X126061419Y-116313986D01*
X125831108Y-116216813D01*
X125624056Y-116076753D01*
X125448149Y-115899146D01*
X125310093Y-115690755D01*
X125215142Y-115459519D01*
X125166684Y-115213077D01*
X125162705Y-113883466D01*
X125165868Y-113891102D01*
X125497136Y-114386880D01*
X125918760Y-114808504D01*
X126414538Y-115139772D01*
X126965417Y-115367954D01*
X127550227Y-115484280D01*
X128146493Y-115484280D01*
X128570196Y-115400000D01*
X132041348Y-115400000D01*
X132053608Y-115524482D01*
X132089918Y-115644180D01*
X132148883Y-115754494D01*
X132228235Y-115851185D01*
X132324926Y-115930537D01*
X132435240Y-115989502D01*
X132554938Y-116025812D01*
X132679420Y-116038072D01*
X132868670Y-116035000D01*
X133027420Y-115876250D01*
X133027420Y-115039500D01*
X133281420Y-115039500D01*
X133281420Y-115876250D01*
X133440170Y-116035000D01*
X133629420Y-116038072D01*
X133753902Y-116025812D01*
X133873600Y-115989502D01*
X133983914Y-115930537D01*
X134080605Y-115851185D01*
X134159957Y-115754494D01*
X134218922Y-115644180D01*
X134255232Y-115524482D01*
X134267492Y-115400000D01*
X135394928Y-115400000D01*
X135407188Y-115524482D01*
X135443498Y-115644180D01*
X135502463Y-115754494D01*
X135581815Y-115851185D01*
X135678506Y-115930537D01*
X135788820Y-115989502D01*
X135908518Y-116025812D01*
X136033000Y-116038072D01*
X136222250Y-116035000D01*
X136381000Y-115876250D01*
X136381000Y-115039500D01*
X136635000Y-115039500D01*
X136635000Y-115876250D01*
X136793750Y-116035000D01*
X136983000Y-116038072D01*
X137107482Y-116025812D01*
X137227180Y-115989502D01*
X137337494Y-115930537D01*
X137434185Y-115851185D01*
X137513537Y-115754494D01*
X137557900Y-115671498D01*
X137602263Y-115754494D01*
X137681615Y-115851185D01*
X137778306Y-115930537D01*
X137888620Y-115989502D01*
X138008318Y-116025812D01*
X138132800Y-116038072D01*
X138322050Y-116035000D01*
X138480800Y-115876250D01*
X138480800Y-115039500D01*
X138734800Y-115039500D01*
X138734800Y-115876250D01*
X138893550Y-116035000D01*
X139082800Y-116038072D01*
X139207282Y-116025812D01*
X139326980Y-115989502D01*
X139437294Y-115930537D01*
X139533985Y-115851185D01*
X139613337Y-115754494D01*
X139672302Y-115644180D01*
X139708612Y-115524482D01*
X139720872Y-115400000D01*
X139717800Y-115198250D01*
X139559050Y-115039500D01*
X138734800Y-115039500D01*
X138480800Y-115039500D01*
X137656550Y-115039500D01*
X137557900Y-115138150D01*
X137459250Y-115039500D01*
X136635000Y-115039500D01*
X136381000Y-115039500D01*
X135556750Y-115039500D01*
X135398000Y-115198250D01*
X135394928Y-115400000D01*
X134267492Y-115400000D01*
X134264420Y-115198250D01*
X134105670Y-115039500D01*
X133281420Y-115039500D01*
X133027420Y-115039500D01*
X132203170Y-115039500D01*
X132044420Y-115198250D01*
X132041348Y-115400000D01*
X128570196Y-115400000D01*
X128731303Y-115367954D01*
X129282182Y-115139772D01*
X129777960Y-114808504D01*
X130199584Y-114386880D01*
X130530852Y-113891102D01*
X130759034Y-113340223D01*
X130875360Y-112755413D01*
X130875360Y-112159147D01*
X130759034Y-111574337D01*
X130651416Y-111314524D01*
X130679918Y-111323170D01*
X130832000Y-111338149D01*
X131507000Y-111338149D01*
X131659082Y-111323170D01*
X131805320Y-111278809D01*
X131940094Y-111206771D01*
X132058224Y-111109824D01*
X132155171Y-110991694D01*
X132207000Y-110894728D01*
X132258829Y-110991694D01*
X132260500Y-110993731D01*
X132260501Y-112446225D01*
X132208259Y-112543963D01*
X132164610Y-112687856D01*
X132149871Y-112837500D01*
X132149871Y-113337500D01*
X132164610Y-113487144D01*
X132208259Y-113631037D01*
X132279142Y-113763650D01*
X132367723Y-113871587D01*
X132324926Y-113894463D01*
X132228235Y-113973815D01*
X132148883Y-114070506D01*
X132089918Y-114180820D01*
X132053608Y-114300518D01*
X132041348Y-114425000D01*
X132044420Y-114626750D01*
X132203170Y-114785500D01*
X133027420Y-114785500D01*
X133027420Y-114765500D01*
X133281420Y-114765500D01*
X133281420Y-114785500D01*
X134105670Y-114785500D01*
X134264420Y-114626750D01*
X134267492Y-114425000D01*
X134255232Y-114300518D01*
X134218922Y-114180820D01*
X134159957Y-114070506D01*
X134080605Y-113973815D01*
X133983914Y-113894463D01*
X133941117Y-113871587D01*
X134029698Y-113763650D01*
X134100581Y-113631037D01*
X134144230Y-113487144D01*
X134158969Y-113337500D01*
X134158969Y-112837500D01*
X134144230Y-112687856D01*
X134100581Y-112543963D01*
X134029698Y-112411350D01*
X133934306Y-112295114D01*
X133931420Y-112292746D01*
X133931420Y-111251496D01*
X134015094Y-111206771D01*
X134133224Y-111109824D01*
X134230171Y-110991694D01*
X134302209Y-110856920D01*
X134336979Y-110742300D01*
X134921911Y-110742300D01*
X135072787Y-110727440D01*
X135266377Y-110668715D01*
X135444791Y-110573351D01*
X135545111Y-110491020D01*
X135545111Y-111188520D01*
X135560090Y-111340602D01*
X135604451Y-111486840D01*
X135676489Y-111621614D01*
X135773436Y-111739744D01*
X135788640Y-111752222D01*
X135788641Y-112245441D01*
X135728114Y-112295114D01*
X135632722Y-112411350D01*
X135561839Y-112543963D01*
X135518190Y-112687856D01*
X135503451Y-112837500D01*
X135503451Y-113337500D01*
X135518190Y-113487144D01*
X135561839Y-113631037D01*
X135632722Y-113763650D01*
X135721303Y-113871587D01*
X135678506Y-113894463D01*
X135581815Y-113973815D01*
X135502463Y-114070506D01*
X135443498Y-114180820D01*
X135407188Y-114300518D01*
X135394928Y-114425000D01*
X135398000Y-114626750D01*
X135556750Y-114785500D01*
X136381000Y-114785500D01*
X136381000Y-114765500D01*
X136635000Y-114765500D01*
X136635000Y-114785500D01*
X137459250Y-114785500D01*
X137557900Y-114686850D01*
X137656550Y-114785500D01*
X138480800Y-114785500D01*
X138480800Y-114765500D01*
X138734800Y-114765500D01*
X138734800Y-114785500D01*
X139559050Y-114785500D01*
X139717800Y-114626750D01*
X139720872Y-114425000D01*
X139708612Y-114300518D01*
X139672302Y-114180820D01*
X139613337Y-114070506D01*
X139533985Y-113973815D01*
X139437294Y-113894463D01*
X139394497Y-113871587D01*
X139483078Y-113763650D01*
X139553961Y-113631037D01*
X139597610Y-113487144D01*
X139612349Y-113337500D01*
X139612349Y-112837500D01*
X139597610Y-112687856D01*
X139553961Y-112543963D01*
X139551972Y-112540240D01*
X140700208Y-112540240D01*
X140712468Y-112664722D01*
X140748778Y-112784420D01*
X140807743Y-112894734D01*
X140887095Y-112991425D01*
X140983786Y-113070777D01*
X141094100Y-113129742D01*
X141213798Y-113166052D01*
X141338280Y-113178312D01*
X141527530Y-113175240D01*
X141686280Y-113016490D01*
X141686280Y-112179740D01*
X141940280Y-112179740D01*
X141940280Y-113016490D01*
X142099030Y-113175240D01*
X142288280Y-113178312D01*
X142412762Y-113166052D01*
X142532460Y-113129742D01*
X142642774Y-113070777D01*
X142739465Y-112991425D01*
X142818817Y-112894734D01*
X142877782Y-112784420D01*
X142906793Y-112688785D01*
X142928098Y-112759020D01*
X142987063Y-112869334D01*
X143066415Y-112966025D01*
X143163106Y-113045377D01*
X143273420Y-113104342D01*
X143393118Y-113140652D01*
X143517600Y-113152912D01*
X143706850Y-113149840D01*
X143865600Y-112991090D01*
X143865600Y-112154340D01*
X144119600Y-112154340D01*
X144119600Y-112991090D01*
X144278350Y-113149840D01*
X144467600Y-113152912D01*
X144592082Y-113140652D01*
X144711780Y-113104342D01*
X144822094Y-113045377D01*
X144918785Y-112966025D01*
X144998137Y-112869334D01*
X145057102Y-112759020D01*
X145093412Y-112639322D01*
X145105672Y-112514840D01*
X145102600Y-112313090D01*
X144943850Y-112154340D01*
X144119600Y-112154340D01*
X143865600Y-112154340D01*
X143041350Y-112154340D01*
X142890240Y-112305450D01*
X142764530Y-112179740D01*
X141940280Y-112179740D01*
X141686280Y-112179740D01*
X140862030Y-112179740D01*
X140703280Y-112338490D01*
X140700208Y-112540240D01*
X139551972Y-112540240D01*
X139483078Y-112411350D01*
X139481320Y-112409208D01*
X139481320Y-111850820D01*
X139507754Y-111836691D01*
X139625884Y-111739744D01*
X139722831Y-111621614D01*
X139794869Y-111486840D01*
X139839230Y-111340602D01*
X139854209Y-111188520D01*
X139854209Y-110238520D01*
X139839230Y-110086438D01*
X139794869Y-109940200D01*
X139722831Y-109805426D01*
X139625884Y-109687296D01*
X139507754Y-109590349D01*
X139372980Y-109518311D01*
X139226742Y-109473950D01*
X139074660Y-109458971D01*
X138399660Y-109458971D01*
X138377371Y-109461166D01*
X138379968Y-109434800D01*
X138375000Y-109384359D01*
X138375000Y-108090642D01*
X138556794Y-108272436D01*
G04 #@! TA.AperFunction,Conductor*
D21*
G36*
X138556794Y-108272436D02*
G01*
X138581122Y-108302080D01*
X138699436Y-108399177D01*
X138834418Y-108471327D01*
X138980883Y-108515757D01*
X139095036Y-108527000D01*
X139095038Y-108527000D01*
X139133202Y-108530759D01*
X139171365Y-108527000D01*
X139307986Y-108527000D01*
X139336350Y-108550278D01*
X139468963Y-108621161D01*
X139612856Y-108664810D01*
X139762500Y-108679549D01*
X140237500Y-108679549D01*
X140387144Y-108664810D01*
X140531037Y-108621161D01*
X140663650Y-108550278D01*
X140692014Y-108527000D01*
X141561447Y-108527000D01*
X141595052Y-108567948D01*
X141675298Y-108633804D01*
X141766850Y-108682739D01*
X141866190Y-108712874D01*
X141969500Y-108723049D01*
X142146108Y-108723049D01*
X141704869Y-109164288D01*
X141675220Y-109188620D01*
X141657107Y-109210691D01*
X141575780Y-109210691D01*
X141426136Y-109225430D01*
X141282243Y-109269079D01*
X141149630Y-109339962D01*
X141033394Y-109435354D01*
X140938002Y-109551590D01*
X140867119Y-109684203D01*
X140823470Y-109828096D01*
X140808731Y-109977740D01*
X140808731Y-110477740D01*
X140823470Y-110627384D01*
X140867119Y-110771277D01*
X140938002Y-110903890D01*
X141026583Y-111011827D01*
X140983786Y-111034703D01*
X140887095Y-111114055D01*
X140807743Y-111210746D01*
X140748778Y-111321060D01*
X140712468Y-111440758D01*
X140700208Y-111565240D01*
X140703280Y-111766990D01*
X140862030Y-111925740D01*
X141686280Y-111925740D01*
X141686280Y-111905740D01*
X141940280Y-111905740D01*
X141940280Y-111925740D01*
X142764530Y-111925740D01*
X142915640Y-111774630D01*
X143041350Y-111900340D01*
X143865600Y-111900340D01*
X143865600Y-111880340D01*
X144119600Y-111880340D01*
X144119600Y-111900340D01*
X144943850Y-111900340D01*
X145102600Y-111741590D01*
X145105672Y-111539840D01*
X145093412Y-111415358D01*
X145057102Y-111295660D01*
X144998137Y-111185346D01*
X144918785Y-111088655D01*
X144822094Y-111009303D01*
X144779297Y-110986427D01*
X144861715Y-110886000D01*
X145408328Y-110886000D01*
X145422514Y-110903286D01*
X145538750Y-110998678D01*
X145585002Y-111023400D01*
X145538750Y-111048122D01*
X145422514Y-111143514D01*
X145327122Y-111259750D01*
X145256239Y-111392363D01*
X145212590Y-111536256D01*
X145197851Y-111685900D01*
X145197851Y-112185900D01*
X145212590Y-112335544D01*
X145256239Y-112479437D01*
X145327122Y-112612050D01*
X145422514Y-112728286D01*
X145538750Y-112823678D01*
X145671363Y-112894561D01*
X145815256Y-112938210D01*
X145964900Y-112952949D01*
X146067906Y-112952949D01*
X146083187Y-112968230D01*
X146107520Y-112997880D01*
X146225834Y-113094977D01*
X146360816Y-113167127D01*
X146507281Y-113211557D01*
X146621434Y-113222800D01*
X146621443Y-113222800D01*
X146659599Y-113226558D01*
X146697755Y-113222800D01*
X147341770Y-113222800D01*
X147343991Y-113230120D01*
X147416029Y-113364894D01*
X147512976Y-113483024D01*
X147631106Y-113579971D01*
X147765880Y-113652009D01*
X147912118Y-113696370D01*
X148064200Y-113711349D01*
X149014200Y-113711349D01*
X149166282Y-113696370D01*
X149312520Y-113652009D01*
X149447294Y-113579971D01*
X149565424Y-113483024D01*
X149662371Y-113364894D01*
X149734409Y-113230120D01*
X149778770Y-113083882D01*
X149793749Y-112931800D01*
X149793749Y-112788439D01*
X149812957Y-112725119D01*
X149821360Y-112639801D01*
X149821360Y-112755413D01*
X149937686Y-113340223D01*
X150165868Y-113891102D01*
X150497136Y-114386880D01*
X150918760Y-114808504D01*
X151414538Y-115139772D01*
X151965417Y-115367954D01*
X152550227Y-115484280D01*
X153146493Y-115484280D01*
X153731303Y-115367954D01*
X154282182Y-115139772D01*
X154777960Y-114808504D01*
X155199584Y-114386880D01*
X155530852Y-113891102D01*
X155729412Y-113411738D01*
X155730849Y-115204377D01*
X155682028Y-115445069D01*
X155586962Y-115672714D01*
X155449490Y-115877557D01*
X155274847Y-116051800D01*
X155069687Y-116188801D01*
X154841821Y-116283346D01*
X154583894Y-116335045D01*
X154567452Y-116336417D01*
X126304378Y-116364193D01*
X126061419Y-116313986D01*
X125831108Y-116216813D01*
X125624056Y-116076753D01*
X125448149Y-115899146D01*
X125310093Y-115690755D01*
X125215142Y-115459519D01*
X125166684Y-115213077D01*
X125162705Y-113883466D01*
X125165868Y-113891102D01*
X125497136Y-114386880D01*
X125918760Y-114808504D01*
X126414538Y-115139772D01*
X126965417Y-115367954D01*
X127550227Y-115484280D01*
X128146493Y-115484280D01*
X128570196Y-115400000D01*
X132041348Y-115400000D01*
X132053608Y-115524482D01*
X132089918Y-115644180D01*
X132148883Y-115754494D01*
X132228235Y-115851185D01*
X132324926Y-115930537D01*
X132435240Y-115989502D01*
X132554938Y-116025812D01*
X132679420Y-116038072D01*
X132868670Y-116035000D01*
X133027420Y-115876250D01*
X133027420Y-115039500D01*
X133281420Y-115039500D01*
X133281420Y-115876250D01*
X133440170Y-116035000D01*
X133629420Y-116038072D01*
X133753902Y-116025812D01*
X133873600Y-115989502D01*
X133983914Y-115930537D01*
X134080605Y-115851185D01*
X134159957Y-115754494D01*
X134218922Y-115644180D01*
X134255232Y-115524482D01*
X134267492Y-115400000D01*
X135394928Y-115400000D01*
X135407188Y-115524482D01*
X135443498Y-115644180D01*
X135502463Y-115754494D01*
X135581815Y-115851185D01*
X135678506Y-115930537D01*
X135788820Y-115989502D01*
X135908518Y-116025812D01*
X136033000Y-116038072D01*
X136222250Y-116035000D01*
X136381000Y-115876250D01*
X136381000Y-115039500D01*
X136635000Y-115039500D01*
X136635000Y-115876250D01*
X136793750Y-116035000D01*
X136983000Y-116038072D01*
X137107482Y-116025812D01*
X137227180Y-115989502D01*
X137337494Y-115930537D01*
X137434185Y-115851185D01*
X137513537Y-115754494D01*
X137557900Y-115671498D01*
X137602263Y-115754494D01*
X137681615Y-115851185D01*
X137778306Y-115930537D01*
X137888620Y-115989502D01*
X138008318Y-116025812D01*
X138132800Y-116038072D01*
X138322050Y-116035000D01*
X138480800Y-115876250D01*
X138480800Y-115039500D01*
X138734800Y-115039500D01*
X138734800Y-115876250D01*
X138893550Y-116035000D01*
X139082800Y-116038072D01*
X139207282Y-116025812D01*
X139326980Y-115989502D01*
X139437294Y-115930537D01*
X139533985Y-115851185D01*
X139613337Y-115754494D01*
X139672302Y-115644180D01*
X139708612Y-115524482D01*
X139720872Y-115400000D01*
X139717800Y-115198250D01*
X139559050Y-115039500D01*
X138734800Y-115039500D01*
X138480800Y-115039500D01*
X137656550Y-115039500D01*
X137557900Y-115138150D01*
X137459250Y-115039500D01*
X136635000Y-115039500D01*
X136381000Y-115039500D01*
X135556750Y-115039500D01*
X135398000Y-115198250D01*
X135394928Y-115400000D01*
X134267492Y-115400000D01*
X134264420Y-115198250D01*
X134105670Y-115039500D01*
X133281420Y-115039500D01*
X133027420Y-115039500D01*
X132203170Y-115039500D01*
X132044420Y-115198250D01*
X132041348Y-115400000D01*
X128570196Y-115400000D01*
X128731303Y-115367954D01*
X129282182Y-115139772D01*
X129777960Y-114808504D01*
X130199584Y-114386880D01*
X130530852Y-113891102D01*
X130759034Y-113340223D01*
X130875360Y-112755413D01*
X130875360Y-112159147D01*
X130759034Y-111574337D01*
X130651416Y-111314524D01*
X130679918Y-111323170D01*
X130832000Y-111338149D01*
X131507000Y-111338149D01*
X131659082Y-111323170D01*
X131805320Y-111278809D01*
X131940094Y-111206771D01*
X132058224Y-111109824D01*
X132155171Y-110991694D01*
X132207000Y-110894728D01*
X132258829Y-110991694D01*
X132260500Y-110993731D01*
X132260501Y-112446225D01*
X132208259Y-112543963D01*
X132164610Y-112687856D01*
X132149871Y-112837500D01*
X132149871Y-113337500D01*
X132164610Y-113487144D01*
X132208259Y-113631037D01*
X132279142Y-113763650D01*
X132367723Y-113871587D01*
X132324926Y-113894463D01*
X132228235Y-113973815D01*
X132148883Y-114070506D01*
X132089918Y-114180820D01*
X132053608Y-114300518D01*
X132041348Y-114425000D01*
X132044420Y-114626750D01*
X132203170Y-114785500D01*
X133027420Y-114785500D01*
X133027420Y-114765500D01*
X133281420Y-114765500D01*
X133281420Y-114785500D01*
X134105670Y-114785500D01*
X134264420Y-114626750D01*
X134267492Y-114425000D01*
X134255232Y-114300518D01*
X134218922Y-114180820D01*
X134159957Y-114070506D01*
X134080605Y-113973815D01*
X133983914Y-113894463D01*
X133941117Y-113871587D01*
X134029698Y-113763650D01*
X134100581Y-113631037D01*
X134144230Y-113487144D01*
X134158969Y-113337500D01*
X134158969Y-112837500D01*
X134144230Y-112687856D01*
X134100581Y-112543963D01*
X134029698Y-112411350D01*
X133934306Y-112295114D01*
X133931420Y-112292746D01*
X133931420Y-111251496D01*
X134015094Y-111206771D01*
X134133224Y-111109824D01*
X134230171Y-110991694D01*
X134302209Y-110856920D01*
X134336979Y-110742300D01*
X134921911Y-110742300D01*
X135072787Y-110727440D01*
X135266377Y-110668715D01*
X135444791Y-110573351D01*
X135545111Y-110491020D01*
X135545111Y-111188520D01*
X135560090Y-111340602D01*
X135604451Y-111486840D01*
X135676489Y-111621614D01*
X135773436Y-111739744D01*
X135788640Y-111752222D01*
X135788641Y-112245441D01*
X135728114Y-112295114D01*
X135632722Y-112411350D01*
X135561839Y-112543963D01*
X135518190Y-112687856D01*
X135503451Y-112837500D01*
X135503451Y-113337500D01*
X135518190Y-113487144D01*
X135561839Y-113631037D01*
X135632722Y-113763650D01*
X135721303Y-113871587D01*
X135678506Y-113894463D01*
X135581815Y-113973815D01*
X135502463Y-114070506D01*
X135443498Y-114180820D01*
X135407188Y-114300518D01*
X135394928Y-114425000D01*
X135398000Y-114626750D01*
X135556750Y-114785500D01*
X136381000Y-114785500D01*
X136381000Y-114765500D01*
X136635000Y-114765500D01*
X136635000Y-114785500D01*
X137459250Y-114785500D01*
X137557900Y-114686850D01*
X137656550Y-114785500D01*
X138480800Y-114785500D01*
X138480800Y-114765500D01*
X138734800Y-114765500D01*
X138734800Y-114785500D01*
X139559050Y-114785500D01*
X139717800Y-114626750D01*
X139720872Y-114425000D01*
X139708612Y-114300518D01*
X139672302Y-114180820D01*
X139613337Y-114070506D01*
X139533985Y-113973815D01*
X139437294Y-113894463D01*
X139394497Y-113871587D01*
X139483078Y-113763650D01*
X139553961Y-113631037D01*
X139597610Y-113487144D01*
X139612349Y-113337500D01*
X139612349Y-112837500D01*
X139597610Y-112687856D01*
X139553961Y-112543963D01*
X139551972Y-112540240D01*
X140700208Y-112540240D01*
X140712468Y-112664722D01*
X140748778Y-112784420D01*
X140807743Y-112894734D01*
X140887095Y-112991425D01*
X140983786Y-113070777D01*
X141094100Y-113129742D01*
X141213798Y-113166052D01*
X141338280Y-113178312D01*
X141527530Y-113175240D01*
X141686280Y-113016490D01*
X141686280Y-112179740D01*
X141940280Y-112179740D01*
X141940280Y-113016490D01*
X142099030Y-113175240D01*
X142288280Y-113178312D01*
X142412762Y-113166052D01*
X142532460Y-113129742D01*
X142642774Y-113070777D01*
X142739465Y-112991425D01*
X142818817Y-112894734D01*
X142877782Y-112784420D01*
X142906793Y-112688785D01*
X142928098Y-112759020D01*
X142987063Y-112869334D01*
X143066415Y-112966025D01*
X143163106Y-113045377D01*
X143273420Y-113104342D01*
X143393118Y-113140652D01*
X143517600Y-113152912D01*
X143706850Y-113149840D01*
X143865600Y-112991090D01*
X143865600Y-112154340D01*
X144119600Y-112154340D01*
X144119600Y-112991090D01*
X144278350Y-113149840D01*
X144467600Y-113152912D01*
X144592082Y-113140652D01*
X144711780Y-113104342D01*
X144822094Y-113045377D01*
X144918785Y-112966025D01*
X144998137Y-112869334D01*
X145057102Y-112759020D01*
X145093412Y-112639322D01*
X145105672Y-112514840D01*
X145102600Y-112313090D01*
X144943850Y-112154340D01*
X144119600Y-112154340D01*
X143865600Y-112154340D01*
X143041350Y-112154340D01*
X142890240Y-112305450D01*
X142764530Y-112179740D01*
X141940280Y-112179740D01*
X141686280Y-112179740D01*
X140862030Y-112179740D01*
X140703280Y-112338490D01*
X140700208Y-112540240D01*
X139551972Y-112540240D01*
X139483078Y-112411350D01*
X139481320Y-112409208D01*
X139481320Y-111850820D01*
X139507754Y-111836691D01*
X139625884Y-111739744D01*
X139722831Y-111621614D01*
X139794869Y-111486840D01*
X139839230Y-111340602D01*
X139854209Y-111188520D01*
X139854209Y-110238520D01*
X139839230Y-110086438D01*
X139794869Y-109940200D01*
X139722831Y-109805426D01*
X139625884Y-109687296D01*
X139507754Y-109590349D01*
X139372980Y-109518311D01*
X139226742Y-109473950D01*
X139074660Y-109458971D01*
X138399660Y-109458971D01*
X138377371Y-109461166D01*
X138379968Y-109434800D01*
X138375000Y-109384359D01*
X138375000Y-108090642D01*
X138556794Y-108272436D01*
G37*
G04 #@! TD.AperFunction*
D20*
X155727878Y-111499120D02*
X155530852Y-111023458D01*
X155199584Y-110527680D01*
X154777960Y-110106056D01*
X154282182Y-109774788D01*
X153731303Y-109546606D01*
X153146493Y-109430280D01*
X152550227Y-109430280D01*
X151965417Y-109546606D01*
X151414538Y-109774788D01*
X150918760Y-110106056D01*
X150497136Y-110527680D01*
X150165868Y-111023458D01*
X149937686Y-111574337D01*
X149821360Y-112159147D01*
X149821360Y-112505799D01*
X149812957Y-112420481D01*
X149793749Y-112357161D01*
X149793749Y-112256800D01*
X149778770Y-112104718D01*
X149734409Y-111958480D01*
X149662371Y-111823706D01*
X149565424Y-111705576D01*
X149447294Y-111608629D01*
X149350328Y-111556800D01*
X149447294Y-111504971D01*
X149565424Y-111408024D01*
X149662371Y-111289894D01*
X149734409Y-111155120D01*
X149778770Y-111008882D01*
X149793749Y-110856800D01*
X149793749Y-110626394D01*
X151389973Y-109030171D01*
X151404152Y-109047448D01*
X151484398Y-109113304D01*
X151575950Y-109162239D01*
X151675290Y-109192374D01*
X151778600Y-109202549D01*
X153478600Y-109202549D01*
X153581910Y-109192374D01*
X153681250Y-109162239D01*
X153772802Y-109113304D01*
X153853048Y-109047448D01*
X153918904Y-108967202D01*
X153967839Y-108875650D01*
X153997974Y-108776310D01*
X154008149Y-108673000D01*
X154008149Y-106973000D01*
X153997974Y-106869690D01*
X153967839Y-106770350D01*
X153918904Y-106678798D01*
X153853048Y-106598552D01*
X153772802Y-106532696D01*
X153681250Y-106483761D01*
X153581910Y-106453626D01*
X153541598Y-106449656D01*
X153726188Y-106283269D01*
X153900241Y-106049920D01*
X154025425Y-105787099D01*
X154070076Y-105639890D01*
X153948755Y-105410000D01*
X152755600Y-105410000D01*
X152755600Y-105430000D01*
X152501600Y-105430000D01*
X152501600Y-105410000D01*
X151308445Y-105410000D01*
X151187124Y-105639890D01*
X151231775Y-105787099D01*
X151356959Y-106049920D01*
X151531012Y-106283269D01*
X151715602Y-106449656D01*
X151675290Y-106453626D01*
X151575950Y-106483761D01*
X151484398Y-106532696D01*
X151404152Y-106598552D01*
X151338296Y-106678798D01*
X151289361Y-106770350D01*
X151259226Y-106869690D01*
X151249051Y-106973000D01*
X151249051Y-107181281D01*
X151218981Y-107184243D01*
X151072516Y-107228673D01*
X150937534Y-107300823D01*
X150819220Y-107397920D01*
X150794892Y-107427564D01*
X148820206Y-109402251D01*
X148261993Y-109402251D01*
X148947337Y-108716907D01*
X148975262Y-108693990D01*
X149012350Y-108682739D01*
X149103902Y-108633804D01*
X149184148Y-108567948D01*
X149250004Y-108487702D01*
X149298939Y-108396150D01*
X149329074Y-108296810D01*
X149339249Y-108193500D01*
X149339249Y-107293500D01*
X149329074Y-107190190D01*
X149298939Y-107090850D01*
X149250004Y-106999298D01*
X149184148Y-106919052D01*
X149103902Y-106853196D01*
X149012350Y-106804261D01*
X148913010Y-106774126D01*
X148809700Y-106763951D01*
X148009700Y-106763951D01*
X147906390Y-106774126D01*
X147807050Y-106804261D01*
X147715498Y-106853196D01*
X147635252Y-106919052D01*
X147569396Y-106999298D01*
X147520461Y-107090850D01*
X147490326Y-107190190D01*
X147480151Y-107293500D01*
X147480151Y-107986405D01*
X147439249Y-108027307D01*
X147439249Y-107293500D01*
X147429074Y-107190190D01*
X147398939Y-107090850D01*
X147350004Y-106999298D01*
X147284148Y-106919052D01*
X147203902Y-106853196D01*
X147112350Y-106804261D01*
X147013010Y-106774126D01*
X146976194Y-106770500D01*
X147063941Y-106770500D01*
X147205033Y-106813300D01*
X147406360Y-106833128D01*
X147607687Y-106813300D01*
X147801278Y-106754575D01*
X147860385Y-106722982D01*
X147963010Y-106712874D01*
X148062350Y-106682739D01*
X148153902Y-106633804D01*
X148234148Y-106567948D01*
X148300004Y-106487702D01*
X148348939Y-106396150D01*
X148379074Y-106296810D01*
X148389249Y-106193500D01*
X148389249Y-106183065D01*
X148413114Y-106138417D01*
X148471839Y-105944827D01*
X148491668Y-105743499D01*
X148471839Y-105542172D01*
X148413114Y-105348582D01*
X148389249Y-105303934D01*
X148389249Y-105293500D01*
X148379074Y-105190190D01*
X148348939Y-105090850D01*
X148300004Y-104999298D01*
X148239941Y-104926110D01*
X151187124Y-104926110D01*
X151308445Y-105156000D01*
X152501600Y-105156000D01*
X152501600Y-103962186D01*
X152755600Y-103962186D01*
X152755600Y-105156000D01*
X153948755Y-105156000D01*
X154070076Y-104926110D01*
X154025425Y-104778901D01*
X153900241Y-104516080D01*
X153726188Y-104282731D01*
X153509955Y-104087822D01*
X153259852Y-103938843D01*
X152985491Y-103841519D01*
X152755600Y-103962186D01*
X152501600Y-103962186D01*
X152271709Y-103841519D01*
X151997348Y-103938843D01*
X151747245Y-104087822D01*
X151531012Y-104282731D01*
X151356959Y-104516080D01*
X151231775Y-104778901D01*
X151187124Y-104926110D01*
X148239941Y-104926110D01*
X148234148Y-104919052D01*
X148153902Y-104853196D01*
X148062350Y-104804261D01*
X147963010Y-104774126D01*
X147940506Y-104771910D01*
X147859320Y-104690724D01*
X147859320Y-104529730D01*
X147866834Y-104538886D01*
X147983070Y-104634278D01*
X148115683Y-104705161D01*
X148259576Y-104748810D01*
X148375689Y-104760246D01*
X148428763Y-104788615D01*
X148622353Y-104847340D01*
X148773229Y-104862200D01*
X148773238Y-104862200D01*
X148823679Y-104867168D01*
X148874120Y-104862200D01*
X150444549Y-104862200D01*
X150495000Y-104867169D01*
X150545451Y-104862200D01*
X150696327Y-104847340D01*
X150889917Y-104788615D01*
X151068331Y-104693251D01*
X151224712Y-104564912D01*
X151353051Y-104408531D01*
X151448415Y-104230117D01*
X151507140Y-104036527D01*
X151526969Y-103835200D01*
X151522000Y-103784749D01*
X151522000Y-102777873D01*
X151535198Y-102788704D01*
X151626750Y-102837639D01*
X151726090Y-102867774D01*
X151829400Y-102877949D01*
X152095537Y-102877949D01*
X152224073Y-102916940D01*
X152374949Y-102931800D01*
X152628251Y-102931800D01*
X152779127Y-102916940D01*
X152907663Y-102877949D01*
X153529400Y-102877949D01*
X153632710Y-102867774D01*
X153732050Y-102837639D01*
X153823602Y-102788704D01*
X153903848Y-102722848D01*
X153969704Y-102642602D01*
X154018639Y-102551050D01*
X154048774Y-102451710D01*
X154058949Y-102348400D01*
X154058949Y-100648400D01*
X154048774Y-100545090D01*
X154018639Y-100445750D01*
X153969704Y-100354198D01*
X153903848Y-100273952D01*
X153823602Y-100208096D01*
X153732050Y-100159161D01*
X153632710Y-100129026D01*
X153592398Y-100125056D01*
X153776988Y-99958669D01*
X153951041Y-99725320D01*
X154076225Y-99462499D01*
X154120876Y-99315290D01*
X153999555Y-99085400D01*
X152806400Y-99085400D01*
X152806400Y-99105400D01*
X152552400Y-99105400D01*
X152552400Y-99085400D01*
X151359245Y-99085400D01*
X151237924Y-99315290D01*
X151282575Y-99462499D01*
X151407759Y-99725320D01*
X151581812Y-99958669D01*
X151766402Y-100125056D01*
X151726090Y-100129026D01*
X151626750Y-100159161D01*
X151535198Y-100208096D01*
X151454952Y-100273952D01*
X151389096Y-100354198D01*
X151353604Y-100420600D01*
X150820078Y-100420600D01*
X150702894Y-100324429D01*
X150568120Y-100252391D01*
X150421882Y-100208030D01*
X150269800Y-100193051D01*
X150021334Y-100193051D01*
X150060724Y-100160724D01*
X150157671Y-100042594D01*
X150229709Y-99907820D01*
X150274070Y-99761582D01*
X150289049Y-99609500D01*
X150289049Y-98934500D01*
X150274070Y-98782418D01*
X150229709Y-98636180D01*
X150211178Y-98601510D01*
X151237924Y-98601510D01*
X151359245Y-98831400D01*
X152552400Y-98831400D01*
X152552400Y-97637586D01*
X152806400Y-97637586D01*
X152806400Y-98831400D01*
X153999555Y-98831400D01*
X154120876Y-98601510D01*
X154076225Y-98454301D01*
X153951041Y-98191480D01*
X153776988Y-97958131D01*
X153560755Y-97763222D01*
X153310652Y-97614243D01*
X153036291Y-97516919D01*
X152806400Y-97637586D01*
X152552400Y-97637586D01*
X152322509Y-97516919D01*
X152048148Y-97614243D01*
X151798045Y-97763222D01*
X151581812Y-97958131D01*
X151407759Y-98191480D01*
X151282575Y-98454301D01*
X151237924Y-98601510D01*
X150211178Y-98601510D01*
X150157671Y-98501406D01*
X150060724Y-98383276D01*
X149942594Y-98286329D01*
X149845628Y-98234500D01*
X149942594Y-98182671D01*
X150060724Y-98085724D01*
X150157671Y-97967594D01*
X150229709Y-97832820D01*
X150274070Y-97686582D01*
X150289049Y-97534500D01*
X150289049Y-97159314D01*
X151320352Y-96128012D01*
X151325266Y-96177910D01*
X151355401Y-96277250D01*
X151404336Y-96368802D01*
X151470192Y-96449048D01*
X151550438Y-96514904D01*
X151641990Y-96563839D01*
X151741330Y-96593974D01*
X151844640Y-96604149D01*
X153544640Y-96604149D01*
X153647950Y-96593974D01*
X153747290Y-96563839D01*
X153838842Y-96514904D01*
X153919088Y-96449048D01*
X153984944Y-96368802D01*
X154033879Y-96277250D01*
X154064014Y-96177910D01*
X154074189Y-96074600D01*
X154074189Y-94374600D01*
X154064014Y-94271290D01*
X154033879Y-94171950D01*
X153984944Y-94080398D01*
X153919088Y-94000152D01*
X153838842Y-93934296D01*
X153747290Y-93885361D01*
X153647950Y-93855226D01*
X153607638Y-93851256D01*
X153792228Y-93684869D01*
X153966281Y-93451520D01*
X154091465Y-93188699D01*
X154136116Y-93041490D01*
X154014795Y-92811600D01*
X152821640Y-92811600D01*
X152821640Y-92831600D01*
X152567640Y-92831600D01*
X152567640Y-92811600D01*
X151374485Y-92811600D01*
X151253164Y-93041490D01*
X151297815Y-93188699D01*
X151422999Y-93451520D01*
X151597052Y-93684869D01*
X151781642Y-93851256D01*
X151741330Y-93855226D01*
X151641990Y-93885361D01*
X151550438Y-93934296D01*
X151470192Y-94000152D01*
X151404336Y-94080398D01*
X151355401Y-94171950D01*
X151325266Y-94271290D01*
X151315091Y-94374600D01*
X151315091Y-94503480D01*
X151107203Y-94503480D01*
X151069040Y-94499721D01*
X151030876Y-94503480D01*
X151030874Y-94503480D01*
X150916721Y-94514723D01*
X150890310Y-94522735D01*
X150915014Y-94476517D01*
X150973739Y-94282927D01*
X150993568Y-94081599D01*
X150973739Y-93880272D01*
X150915014Y-93686682D01*
X150852392Y-93569526D01*
X150820915Y-93493533D01*
X150708523Y-93325326D01*
X150565474Y-93182277D01*
X150442500Y-93100109D01*
X150442500Y-92327710D01*
X151253164Y-92327710D01*
X151374485Y-92557600D01*
X152567640Y-92557600D01*
X152567640Y-91363786D01*
X152821640Y-91363786D01*
X152821640Y-92557600D01*
X154014795Y-92557600D01*
X154136116Y-92327710D01*
X154091465Y-92180501D01*
X153966281Y-91917680D01*
X153792228Y-91684331D01*
X153575995Y-91489422D01*
X153325892Y-91340443D01*
X153051531Y-91243119D01*
X152821640Y-91363786D01*
X152567640Y-91363786D01*
X152337749Y-91243119D01*
X152063388Y-91340443D01*
X151813285Y-91489422D01*
X151597052Y-91684331D01*
X151422999Y-91917680D01*
X151297815Y-92180501D01*
X151253164Y-92327710D01*
X150442500Y-92327710D01*
X150442500Y-92125443D01*
X150447468Y-92075000D01*
X150442500Y-92024557D01*
X150442500Y-92024549D01*
X150427640Y-91873673D01*
X150423960Y-91861542D01*
X150423960Y-90961734D01*
X150432415Y-90945916D01*
X150491140Y-90752326D01*
X150506000Y-90601450D01*
X150506000Y-90410943D01*
X150510968Y-90360500D01*
X150506000Y-90310056D01*
X150506000Y-90310049D01*
X150491140Y-90159173D01*
X150432415Y-89965583D01*
X150337051Y-89787169D01*
X150208712Y-89630788D01*
X150188500Y-89614200D01*
X150188500Y-88924973D01*
X150497136Y-89386880D01*
X150918760Y-89808504D01*
X151414538Y-90139772D01*
X151965417Y-90367954D01*
X152550227Y-90484280D01*
X153146493Y-90484280D01*
X153731303Y-90367954D01*
X154282182Y-90139772D01*
X154777960Y-89808504D01*
X155199584Y-89386880D01*
X155530852Y-88891102D01*
X155709408Y-88460031D01*
X155727878Y-111499120D01*
G04 #@! TA.AperFunction,Conductor*
D21*
G36*
X155727878Y-111499120D02*
G01*
X155530852Y-111023458D01*
X155199584Y-110527680D01*
X154777960Y-110106056D01*
X154282182Y-109774788D01*
X153731303Y-109546606D01*
X153146493Y-109430280D01*
X152550227Y-109430280D01*
X151965417Y-109546606D01*
X151414538Y-109774788D01*
X150918760Y-110106056D01*
X150497136Y-110527680D01*
X150165868Y-111023458D01*
X149937686Y-111574337D01*
X149821360Y-112159147D01*
X149821360Y-112505799D01*
X149812957Y-112420481D01*
X149793749Y-112357161D01*
X149793749Y-112256800D01*
X149778770Y-112104718D01*
X149734409Y-111958480D01*
X149662371Y-111823706D01*
X149565424Y-111705576D01*
X149447294Y-111608629D01*
X149350328Y-111556800D01*
X149447294Y-111504971D01*
X149565424Y-111408024D01*
X149662371Y-111289894D01*
X149734409Y-111155120D01*
X149778770Y-111008882D01*
X149793749Y-110856800D01*
X149793749Y-110626394D01*
X151389973Y-109030171D01*
X151404152Y-109047448D01*
X151484398Y-109113304D01*
X151575950Y-109162239D01*
X151675290Y-109192374D01*
X151778600Y-109202549D01*
X153478600Y-109202549D01*
X153581910Y-109192374D01*
X153681250Y-109162239D01*
X153772802Y-109113304D01*
X153853048Y-109047448D01*
X153918904Y-108967202D01*
X153967839Y-108875650D01*
X153997974Y-108776310D01*
X154008149Y-108673000D01*
X154008149Y-106973000D01*
X153997974Y-106869690D01*
X153967839Y-106770350D01*
X153918904Y-106678798D01*
X153853048Y-106598552D01*
X153772802Y-106532696D01*
X153681250Y-106483761D01*
X153581910Y-106453626D01*
X153541598Y-106449656D01*
X153726188Y-106283269D01*
X153900241Y-106049920D01*
X154025425Y-105787099D01*
X154070076Y-105639890D01*
X153948755Y-105410000D01*
X152755600Y-105410000D01*
X152755600Y-105430000D01*
X152501600Y-105430000D01*
X152501600Y-105410000D01*
X151308445Y-105410000D01*
X151187124Y-105639890D01*
X151231775Y-105787099D01*
X151356959Y-106049920D01*
X151531012Y-106283269D01*
X151715602Y-106449656D01*
X151675290Y-106453626D01*
X151575950Y-106483761D01*
X151484398Y-106532696D01*
X151404152Y-106598552D01*
X151338296Y-106678798D01*
X151289361Y-106770350D01*
X151259226Y-106869690D01*
X151249051Y-106973000D01*
X151249051Y-107181281D01*
X151218981Y-107184243D01*
X151072516Y-107228673D01*
X150937534Y-107300823D01*
X150819220Y-107397920D01*
X150794892Y-107427564D01*
X148820206Y-109402251D01*
X148261993Y-109402251D01*
X148947337Y-108716907D01*
X148975262Y-108693990D01*
X149012350Y-108682739D01*
X149103902Y-108633804D01*
X149184148Y-108567948D01*
X149250004Y-108487702D01*
X149298939Y-108396150D01*
X149329074Y-108296810D01*
X149339249Y-108193500D01*
X149339249Y-107293500D01*
X149329074Y-107190190D01*
X149298939Y-107090850D01*
X149250004Y-106999298D01*
X149184148Y-106919052D01*
X149103902Y-106853196D01*
X149012350Y-106804261D01*
X148913010Y-106774126D01*
X148809700Y-106763951D01*
X148009700Y-106763951D01*
X147906390Y-106774126D01*
X147807050Y-106804261D01*
X147715498Y-106853196D01*
X147635252Y-106919052D01*
X147569396Y-106999298D01*
X147520461Y-107090850D01*
X147490326Y-107190190D01*
X147480151Y-107293500D01*
X147480151Y-107986405D01*
X147439249Y-108027307D01*
X147439249Y-107293500D01*
X147429074Y-107190190D01*
X147398939Y-107090850D01*
X147350004Y-106999298D01*
X147284148Y-106919052D01*
X147203902Y-106853196D01*
X147112350Y-106804261D01*
X147013010Y-106774126D01*
X146976194Y-106770500D01*
X147063941Y-106770500D01*
X147205033Y-106813300D01*
X147406360Y-106833128D01*
X147607687Y-106813300D01*
X147801278Y-106754575D01*
X147860385Y-106722982D01*
X147963010Y-106712874D01*
X148062350Y-106682739D01*
X148153902Y-106633804D01*
X148234148Y-106567948D01*
X148300004Y-106487702D01*
X148348939Y-106396150D01*
X148379074Y-106296810D01*
X148389249Y-106193500D01*
X148389249Y-106183065D01*
X148413114Y-106138417D01*
X148471839Y-105944827D01*
X148491668Y-105743499D01*
X148471839Y-105542172D01*
X148413114Y-105348582D01*
X148389249Y-105303934D01*
X148389249Y-105293500D01*
X148379074Y-105190190D01*
X148348939Y-105090850D01*
X148300004Y-104999298D01*
X148239941Y-104926110D01*
X151187124Y-104926110D01*
X151308445Y-105156000D01*
X152501600Y-105156000D01*
X152501600Y-103962186D01*
X152755600Y-103962186D01*
X152755600Y-105156000D01*
X153948755Y-105156000D01*
X154070076Y-104926110D01*
X154025425Y-104778901D01*
X153900241Y-104516080D01*
X153726188Y-104282731D01*
X153509955Y-104087822D01*
X153259852Y-103938843D01*
X152985491Y-103841519D01*
X152755600Y-103962186D01*
X152501600Y-103962186D01*
X152271709Y-103841519D01*
X151997348Y-103938843D01*
X151747245Y-104087822D01*
X151531012Y-104282731D01*
X151356959Y-104516080D01*
X151231775Y-104778901D01*
X151187124Y-104926110D01*
X148239941Y-104926110D01*
X148234148Y-104919052D01*
X148153902Y-104853196D01*
X148062350Y-104804261D01*
X147963010Y-104774126D01*
X147940506Y-104771910D01*
X147859320Y-104690724D01*
X147859320Y-104529730D01*
X147866834Y-104538886D01*
X147983070Y-104634278D01*
X148115683Y-104705161D01*
X148259576Y-104748810D01*
X148375689Y-104760246D01*
X148428763Y-104788615D01*
X148622353Y-104847340D01*
X148773229Y-104862200D01*
X148773238Y-104862200D01*
X148823679Y-104867168D01*
X148874120Y-104862200D01*
X150444549Y-104862200D01*
X150495000Y-104867169D01*
X150545451Y-104862200D01*
X150696327Y-104847340D01*
X150889917Y-104788615D01*
X151068331Y-104693251D01*
X151224712Y-104564912D01*
X151353051Y-104408531D01*
X151448415Y-104230117D01*
X151507140Y-104036527D01*
X151526969Y-103835200D01*
X151522000Y-103784749D01*
X151522000Y-102777873D01*
X151535198Y-102788704D01*
X151626750Y-102837639D01*
X151726090Y-102867774D01*
X151829400Y-102877949D01*
X152095537Y-102877949D01*
X152224073Y-102916940D01*
X152374949Y-102931800D01*
X152628251Y-102931800D01*
X152779127Y-102916940D01*
X152907663Y-102877949D01*
X153529400Y-102877949D01*
X153632710Y-102867774D01*
X153732050Y-102837639D01*
X153823602Y-102788704D01*
X153903848Y-102722848D01*
X153969704Y-102642602D01*
X154018639Y-102551050D01*
X154048774Y-102451710D01*
X154058949Y-102348400D01*
X154058949Y-100648400D01*
X154048774Y-100545090D01*
X154018639Y-100445750D01*
X153969704Y-100354198D01*
X153903848Y-100273952D01*
X153823602Y-100208096D01*
X153732050Y-100159161D01*
X153632710Y-100129026D01*
X153592398Y-100125056D01*
X153776988Y-99958669D01*
X153951041Y-99725320D01*
X154076225Y-99462499D01*
X154120876Y-99315290D01*
X153999555Y-99085400D01*
X152806400Y-99085400D01*
X152806400Y-99105400D01*
X152552400Y-99105400D01*
X152552400Y-99085400D01*
X151359245Y-99085400D01*
X151237924Y-99315290D01*
X151282575Y-99462499D01*
X151407759Y-99725320D01*
X151581812Y-99958669D01*
X151766402Y-100125056D01*
X151726090Y-100129026D01*
X151626750Y-100159161D01*
X151535198Y-100208096D01*
X151454952Y-100273952D01*
X151389096Y-100354198D01*
X151353604Y-100420600D01*
X150820078Y-100420600D01*
X150702894Y-100324429D01*
X150568120Y-100252391D01*
X150421882Y-100208030D01*
X150269800Y-100193051D01*
X150021334Y-100193051D01*
X150060724Y-100160724D01*
X150157671Y-100042594D01*
X150229709Y-99907820D01*
X150274070Y-99761582D01*
X150289049Y-99609500D01*
X150289049Y-98934500D01*
X150274070Y-98782418D01*
X150229709Y-98636180D01*
X150211178Y-98601510D01*
X151237924Y-98601510D01*
X151359245Y-98831400D01*
X152552400Y-98831400D01*
X152552400Y-97637586D01*
X152806400Y-97637586D01*
X152806400Y-98831400D01*
X153999555Y-98831400D01*
X154120876Y-98601510D01*
X154076225Y-98454301D01*
X153951041Y-98191480D01*
X153776988Y-97958131D01*
X153560755Y-97763222D01*
X153310652Y-97614243D01*
X153036291Y-97516919D01*
X152806400Y-97637586D01*
X152552400Y-97637586D01*
X152322509Y-97516919D01*
X152048148Y-97614243D01*
X151798045Y-97763222D01*
X151581812Y-97958131D01*
X151407759Y-98191480D01*
X151282575Y-98454301D01*
X151237924Y-98601510D01*
X150211178Y-98601510D01*
X150157671Y-98501406D01*
X150060724Y-98383276D01*
X149942594Y-98286329D01*
X149845628Y-98234500D01*
X149942594Y-98182671D01*
X150060724Y-98085724D01*
X150157671Y-97967594D01*
X150229709Y-97832820D01*
X150274070Y-97686582D01*
X150289049Y-97534500D01*
X150289049Y-97159314D01*
X151320352Y-96128012D01*
X151325266Y-96177910D01*
X151355401Y-96277250D01*
X151404336Y-96368802D01*
X151470192Y-96449048D01*
X151550438Y-96514904D01*
X151641990Y-96563839D01*
X151741330Y-96593974D01*
X151844640Y-96604149D01*
X153544640Y-96604149D01*
X153647950Y-96593974D01*
X153747290Y-96563839D01*
X153838842Y-96514904D01*
X153919088Y-96449048D01*
X153984944Y-96368802D01*
X154033879Y-96277250D01*
X154064014Y-96177910D01*
X154074189Y-96074600D01*
X154074189Y-94374600D01*
X154064014Y-94271290D01*
X154033879Y-94171950D01*
X153984944Y-94080398D01*
X153919088Y-94000152D01*
X153838842Y-93934296D01*
X153747290Y-93885361D01*
X153647950Y-93855226D01*
X153607638Y-93851256D01*
X153792228Y-93684869D01*
X153966281Y-93451520D01*
X154091465Y-93188699D01*
X154136116Y-93041490D01*
X154014795Y-92811600D01*
X152821640Y-92811600D01*
X152821640Y-92831600D01*
X152567640Y-92831600D01*
X152567640Y-92811600D01*
X151374485Y-92811600D01*
X151253164Y-93041490D01*
X151297815Y-93188699D01*
X151422999Y-93451520D01*
X151597052Y-93684869D01*
X151781642Y-93851256D01*
X151741330Y-93855226D01*
X151641990Y-93885361D01*
X151550438Y-93934296D01*
X151470192Y-94000152D01*
X151404336Y-94080398D01*
X151355401Y-94171950D01*
X151325266Y-94271290D01*
X151315091Y-94374600D01*
X151315091Y-94503480D01*
X151107203Y-94503480D01*
X151069040Y-94499721D01*
X151030876Y-94503480D01*
X151030874Y-94503480D01*
X150916721Y-94514723D01*
X150890310Y-94522735D01*
X150915014Y-94476517D01*
X150973739Y-94282927D01*
X150993568Y-94081599D01*
X150973739Y-93880272D01*
X150915014Y-93686682D01*
X150852392Y-93569526D01*
X150820915Y-93493533D01*
X150708523Y-93325326D01*
X150565474Y-93182277D01*
X150442500Y-93100109D01*
X150442500Y-92327710D01*
X151253164Y-92327710D01*
X151374485Y-92557600D01*
X152567640Y-92557600D01*
X152567640Y-91363786D01*
X152821640Y-91363786D01*
X152821640Y-92557600D01*
X154014795Y-92557600D01*
X154136116Y-92327710D01*
X154091465Y-92180501D01*
X153966281Y-91917680D01*
X153792228Y-91684331D01*
X153575995Y-91489422D01*
X153325892Y-91340443D01*
X153051531Y-91243119D01*
X152821640Y-91363786D01*
X152567640Y-91363786D01*
X152337749Y-91243119D01*
X152063388Y-91340443D01*
X151813285Y-91489422D01*
X151597052Y-91684331D01*
X151422999Y-91917680D01*
X151297815Y-92180501D01*
X151253164Y-92327710D01*
X150442500Y-92327710D01*
X150442500Y-92125443D01*
X150447468Y-92075000D01*
X150442500Y-92024557D01*
X150442500Y-92024549D01*
X150427640Y-91873673D01*
X150423960Y-91861542D01*
X150423960Y-90961734D01*
X150432415Y-90945916D01*
X150491140Y-90752326D01*
X150506000Y-90601450D01*
X150506000Y-90410943D01*
X150510968Y-90360500D01*
X150506000Y-90310056D01*
X150506000Y-90310049D01*
X150491140Y-90159173D01*
X150432415Y-89965583D01*
X150337051Y-89787169D01*
X150208712Y-89630788D01*
X150188500Y-89614200D01*
X150188500Y-88924973D01*
X150497136Y-89386880D01*
X150918760Y-89808504D01*
X151414538Y-90139772D01*
X151965417Y-90367954D01*
X152550227Y-90484280D01*
X153146493Y-90484280D01*
X153731303Y-90367954D01*
X154282182Y-90139772D01*
X154777960Y-89808504D01*
X155199584Y-89386880D01*
X155530852Y-88891102D01*
X155709408Y-88460031D01*
X155727878Y-111499120D01*
G37*
G04 #@! TD.AperFunction*
D20*
X154574208Y-83562517D02*
X154815066Y-83611371D01*
X155042716Y-83706439D01*
X155247560Y-83843912D01*
X155421800Y-84018553D01*
X155558802Y-84223715D01*
X155653346Y-84451579D01*
X155705045Y-84709508D01*
X155706414Y-84725917D01*
X155707797Y-86450640D01*
X155530852Y-86023458D01*
X155199584Y-85527680D01*
X154777960Y-85106056D01*
X154282182Y-84774788D01*
X153731303Y-84546606D01*
X153146493Y-84430280D01*
X152550227Y-84430280D01*
X151965417Y-84546606D01*
X151414538Y-84774788D01*
X150918760Y-85106056D01*
X150497136Y-85527680D01*
X150165868Y-86023458D01*
X149937686Y-86574337D01*
X149821360Y-87159147D01*
X149821360Y-87755413D01*
X149833912Y-87818515D01*
X149803307Y-87787911D01*
X149797414Y-87768483D01*
X149702050Y-87590069D01*
X149605872Y-87472876D01*
X149483724Y-87350728D01*
X149366531Y-87254550D01*
X149188117Y-87159186D01*
X148994527Y-87100461D01*
X148793200Y-87080632D01*
X148591873Y-87100461D01*
X148398283Y-87159186D01*
X148305182Y-87208949D01*
X148277356Y-87211690D01*
X148133463Y-87255339D01*
X148000850Y-87326222D01*
X147884614Y-87421614D01*
X147789222Y-87537850D01*
X147764500Y-87584102D01*
X147739778Y-87537850D01*
X147644386Y-87421614D01*
X147528150Y-87326222D01*
X147395537Y-87255339D01*
X147251644Y-87211690D01*
X147102000Y-87196951D01*
X146990851Y-87196951D01*
X146965827Y-87189360D01*
X146814951Y-87174500D01*
X145877685Y-87174500D01*
X145846725Y-87136775D01*
X145728595Y-87039829D01*
X145593821Y-86967791D01*
X145447583Y-86923430D01*
X145295501Y-86908451D01*
X144645499Y-86908451D01*
X144493417Y-86923430D01*
X144347179Y-86967791D01*
X144212405Y-87039829D01*
X144094275Y-87136775D01*
X144070194Y-87166117D01*
X144026037Y-87083506D01*
X143946685Y-86986815D01*
X143849994Y-86907463D01*
X143739680Y-86848498D01*
X143619982Y-86812188D01*
X143495500Y-86799928D01*
X143206250Y-86803000D01*
X143047500Y-86961750D01*
X143047500Y-88011000D01*
X143067500Y-88011000D01*
X143067500Y-88265000D01*
X143047500Y-88265000D01*
X143047500Y-89314250D01*
X143206250Y-89473000D01*
X143495500Y-89476072D01*
X143619982Y-89463812D01*
X143739680Y-89427502D01*
X143849994Y-89368537D01*
X143946685Y-89289185D01*
X144026037Y-89192494D01*
X144070194Y-89109883D01*
X144094275Y-89139225D01*
X144212405Y-89236171D01*
X144347179Y-89308209D01*
X144493417Y-89352570D01*
X144645499Y-89367549D01*
X145295501Y-89367549D01*
X145447583Y-89352570D01*
X145593821Y-89308209D01*
X145728595Y-89236171D01*
X145737942Y-89228500D01*
X146814951Y-89228500D01*
X146965827Y-89213640D01*
X146990851Y-89206049D01*
X147102000Y-89206049D01*
X147251644Y-89191310D01*
X147395537Y-89147661D01*
X147528150Y-89076778D01*
X147644386Y-88981386D01*
X147739778Y-88865150D01*
X147764500Y-88818898D01*
X147789222Y-88865150D01*
X147884614Y-88981386D01*
X148000850Y-89076778D01*
X148133463Y-89147661D01*
X148134500Y-89147976D01*
X148134501Y-89596909D01*
X148030537Y-89541339D01*
X147886644Y-89497690D01*
X147816132Y-89490745D01*
X147778417Y-89470586D01*
X147584827Y-89411861D01*
X147383499Y-89392032D01*
X147182173Y-89411861D01*
X146988583Y-89470586D01*
X146810169Y-89565950D01*
X146692976Y-89662128D01*
X146565976Y-89789128D01*
X146526789Y-89821288D01*
X146494629Y-89860475D01*
X146494628Y-89860476D01*
X146398450Y-89977669D01*
X146303086Y-90156083D01*
X146244361Y-90349673D01*
X146224532Y-90551000D01*
X146229501Y-90601450D01*
X146229500Y-91734560D01*
X144008041Y-91734560D01*
X144003980Y-91693333D01*
X143945255Y-91499743D01*
X143849891Y-91321329D01*
X143721552Y-91164948D01*
X143682359Y-91132783D01*
X143315057Y-90765481D01*
X143282892Y-90726288D01*
X143126511Y-90597949D01*
X142948097Y-90502585D01*
X142754507Y-90443860D01*
X142603631Y-90429000D01*
X142603621Y-90429000D01*
X142553180Y-90424032D01*
X142502739Y-90429000D01*
X141044500Y-90429000D01*
X141044500Y-90015417D01*
X141085709Y-89938320D01*
X141130070Y-89792082D01*
X141145049Y-89640000D01*
X141145049Y-88965000D01*
X141132541Y-88838000D01*
X141707428Y-88838000D01*
X141719688Y-88962482D01*
X141755998Y-89082180D01*
X141814963Y-89192494D01*
X141894315Y-89289185D01*
X141991006Y-89368537D01*
X142101320Y-89427502D01*
X142221018Y-89463812D01*
X142345500Y-89476072D01*
X142634750Y-89473000D01*
X142793500Y-89314250D01*
X142793500Y-88265000D01*
X141869250Y-88265000D01*
X141710500Y-88423750D01*
X141707428Y-88838000D01*
X141132541Y-88838000D01*
X141130070Y-88812918D01*
X141085709Y-88666680D01*
X141013671Y-88531906D01*
X140916724Y-88413776D01*
X140887381Y-88389695D01*
X140969994Y-88345537D01*
X141066685Y-88266185D01*
X141146037Y-88169494D01*
X141205002Y-88059180D01*
X141241312Y-87939482D01*
X141253572Y-87815000D01*
X141250500Y-87513250D01*
X141175250Y-87438000D01*
X141707428Y-87438000D01*
X141710500Y-87852250D01*
X141869250Y-88011000D01*
X142793500Y-88011000D01*
X142793500Y-86961750D01*
X142634750Y-86803000D01*
X142345500Y-86799928D01*
X142221018Y-86812188D01*
X142101320Y-86848498D01*
X141991006Y-86907463D01*
X141894315Y-86986815D01*
X141814963Y-87083506D01*
X141755998Y-87193820D01*
X141719688Y-87313518D01*
X141707428Y-87438000D01*
X141175250Y-87438000D01*
X141091750Y-87354500D01*
X140017500Y-87354500D01*
X140017500Y-87374500D01*
X139763500Y-87374500D01*
X139763500Y-87354500D01*
X138689250Y-87354500D01*
X138530500Y-87513250D01*
X138527428Y-87815000D01*
X138534369Y-87885472D01*
X137957520Y-87308624D01*
X137944278Y-87283850D01*
X137848886Y-87167614D01*
X137732650Y-87072222D01*
X137600037Y-87001339D01*
X137456144Y-86957690D01*
X137401046Y-86952263D01*
X137345327Y-86935361D01*
X137144000Y-86915532D01*
X136942673Y-86935361D01*
X136917652Y-86942951D01*
X136806500Y-86942951D01*
X136656856Y-86957690D01*
X136512963Y-87001339D01*
X136380350Y-87072222D01*
X136264114Y-87167614D01*
X136168722Y-87283850D01*
X136144000Y-87330102D01*
X136119278Y-87283850D01*
X136023886Y-87167614D01*
X135907650Y-87072222D01*
X135775037Y-87001339D01*
X135631144Y-86957690D01*
X135481500Y-86942951D01*
X135370351Y-86942951D01*
X135345327Y-86935360D01*
X135194451Y-86920500D01*
X133299549Y-86920500D01*
X133148673Y-86935360D01*
X132955083Y-86994085D01*
X132776669Y-87089449D01*
X132620288Y-87217788D01*
X132491949Y-87374169D01*
X132396585Y-87552583D01*
X132337860Y-87746173D01*
X132318031Y-87947500D01*
X132337860Y-88148827D01*
X132396585Y-88342417D01*
X132491949Y-88520831D01*
X132620288Y-88677212D01*
X132776669Y-88805551D01*
X132955083Y-88900915D01*
X133148673Y-88959640D01*
X133299549Y-88974500D01*
X135194451Y-88974500D01*
X135345327Y-88959640D01*
X135370351Y-88952049D01*
X135481500Y-88952049D01*
X135631144Y-88937310D01*
X135775037Y-88893661D01*
X135907650Y-88822778D01*
X136023886Y-88727386D01*
X136119278Y-88611150D01*
X136144000Y-88564898D01*
X136168722Y-88611150D01*
X136264114Y-88727386D01*
X136380350Y-88822778D01*
X136512963Y-88893661D01*
X136656856Y-88937310D01*
X136684097Y-88939993D01*
X136963588Y-89219484D01*
X136901702Y-89168696D01*
X136810150Y-89119761D01*
X136710810Y-89089626D01*
X136607500Y-89079451D01*
X135807500Y-89079451D01*
X135704190Y-89089626D01*
X135604850Y-89119761D01*
X135513298Y-89168696D01*
X135433052Y-89234552D01*
X135432258Y-89235520D01*
X133782174Y-89235520D01*
X133779806Y-89232634D01*
X133663570Y-89137242D01*
X133530957Y-89066359D01*
X133387064Y-89022710D01*
X133237420Y-89007971D01*
X132737420Y-89007971D01*
X132587776Y-89022710D01*
X132443883Y-89066359D01*
X132311270Y-89137242D01*
X132195034Y-89232634D01*
X132099642Y-89348870D01*
X132074920Y-89395122D01*
X132050198Y-89348870D01*
X131954806Y-89232634D01*
X131838570Y-89137242D01*
X131705957Y-89066359D01*
X131562064Y-89022710D01*
X131412420Y-89007971D01*
X130912420Y-89007971D01*
X130762776Y-89022710D01*
X130618883Y-89066359D01*
X130486270Y-89137242D01*
X130370034Y-89232634D01*
X130274642Y-89348870D01*
X130203759Y-89481483D01*
X130160110Y-89625376D01*
X130145371Y-89775020D01*
X130145371Y-90250020D01*
X130160110Y-90399664D01*
X130203759Y-90543557D01*
X130274642Y-90676170D01*
X130280741Y-90683601D01*
X130280741Y-91068846D01*
X130169016Y-91160536D01*
X130072069Y-91278666D01*
X130000031Y-91413440D01*
X129955670Y-91559678D01*
X129940691Y-91711760D01*
X129940691Y-92661760D01*
X129955670Y-92813842D01*
X130000031Y-92960080D01*
X130072069Y-93094854D01*
X130169016Y-93212984D01*
X130287146Y-93309931D01*
X130421920Y-93381969D01*
X130568158Y-93426330D01*
X130720240Y-93441309D01*
X131395240Y-93441309D01*
X131547322Y-93426330D01*
X131693560Y-93381969D01*
X131828334Y-93309931D01*
X131946464Y-93212984D01*
X132043411Y-93094854D01*
X132095240Y-92997888D01*
X132105740Y-93017533D01*
X132105741Y-94044749D01*
X132104371Y-94042186D01*
X132007424Y-93924056D01*
X131889294Y-93827109D01*
X131754520Y-93755071D01*
X131608282Y-93710710D01*
X131456200Y-93695731D01*
X130781200Y-93695731D01*
X130629118Y-93710710D01*
X130482880Y-93755071D01*
X130348106Y-93827109D01*
X130229976Y-93924056D01*
X130133029Y-94042186D01*
X130060991Y-94176960D01*
X130045156Y-94229160D01*
X129598749Y-94229160D01*
X129598749Y-94217120D01*
X129588574Y-94113810D01*
X129558439Y-94014470D01*
X129509504Y-93922918D01*
X129443648Y-93842672D01*
X129363402Y-93776816D01*
X129271850Y-93727881D01*
X129172510Y-93697746D01*
X129132198Y-93693776D01*
X129316788Y-93527389D01*
X129490841Y-93294040D01*
X129616025Y-93031219D01*
X129660676Y-92884010D01*
X129539355Y-92654120D01*
X128346200Y-92654120D01*
X128346200Y-92674120D01*
X128092200Y-92674120D01*
X128092200Y-92654120D01*
X126899045Y-92654120D01*
X126777724Y-92884010D01*
X126822375Y-93031219D01*
X126947559Y-93294040D01*
X127121612Y-93527389D01*
X127306202Y-93693776D01*
X127265890Y-93697746D01*
X127166550Y-93727881D01*
X127074998Y-93776816D01*
X126994752Y-93842672D01*
X126928896Y-93922918D01*
X126879961Y-94014470D01*
X126849826Y-94113810D01*
X126839651Y-94217120D01*
X126839651Y-95917120D01*
X126849826Y-96020430D01*
X126879961Y-96119770D01*
X126928896Y-96211322D01*
X126994752Y-96291568D01*
X127074998Y-96357424D01*
X127166550Y-96406359D01*
X127265890Y-96436494D01*
X127369200Y-96446669D01*
X129069200Y-96446669D01*
X129172510Y-96436494D01*
X129271850Y-96406359D01*
X129363402Y-96357424D01*
X129443648Y-96291568D01*
X129509504Y-96211322D01*
X129558439Y-96119770D01*
X129588574Y-96020430D01*
X129598749Y-95917120D01*
X129598749Y-95783160D01*
X130092826Y-95783160D01*
X130133029Y-95858374D01*
X130229976Y-95976504D01*
X130348106Y-96073451D01*
X130482880Y-96145489D01*
X130629118Y-96189850D01*
X130781200Y-96204829D01*
X131456200Y-96204829D01*
X131608282Y-96189850D01*
X131754520Y-96145489D01*
X131889294Y-96073451D01*
X132007424Y-95976504D01*
X132019280Y-95962057D01*
X132019281Y-96812479D01*
X132001083Y-96817999D01*
X131868470Y-96888882D01*
X131752234Y-96984274D01*
X131656842Y-97100510D01*
X131585959Y-97233123D01*
X131542310Y-97377016D01*
X131527571Y-97526660D01*
X131527571Y-98026660D01*
X131542310Y-98176304D01*
X131585959Y-98320197D01*
X131656842Y-98452810D01*
X131745423Y-98560747D01*
X131702626Y-98583623D01*
X131605935Y-98662975D01*
X131526583Y-98759666D01*
X131467618Y-98869980D01*
X131431308Y-98989678D01*
X131419048Y-99114160D01*
X131422120Y-99315910D01*
X131580870Y-99474660D01*
X132405120Y-99474660D01*
X132405120Y-99454660D01*
X132659120Y-99454660D01*
X132659120Y-99474660D01*
X133483370Y-99474660D01*
X133581140Y-99376890D01*
X133658590Y-99454340D01*
X134482840Y-99454340D01*
X134482840Y-99434340D01*
X134736840Y-99434340D01*
X134736840Y-99454340D01*
X135561090Y-99454340D01*
X135648700Y-99366730D01*
X135756630Y-99474660D01*
X136580880Y-99474660D01*
X136580880Y-99454660D01*
X136834880Y-99454660D01*
X136834880Y-99474660D01*
X137659130Y-99474660D01*
X137817880Y-99315910D01*
X137818559Y-99271280D01*
X140999928Y-99271280D01*
X141012188Y-99395762D01*
X141048498Y-99515460D01*
X141107463Y-99625774D01*
X141186815Y-99722465D01*
X141283506Y-99801817D01*
X141393820Y-99860782D01*
X141513518Y-99897092D01*
X141638000Y-99909352D01*
X141827250Y-99906280D01*
X141986000Y-99747530D01*
X141986000Y-98910780D01*
X142240000Y-98910780D01*
X142240000Y-99747530D01*
X142398750Y-99906280D01*
X142588000Y-99909352D01*
X142712482Y-99897092D01*
X142832180Y-99860782D01*
X142942494Y-99801817D01*
X143039185Y-99722465D01*
X143118537Y-99625774D01*
X143177502Y-99515460D01*
X143183769Y-99494800D01*
X143273228Y-99494800D01*
X143285488Y-99619282D01*
X143321798Y-99738980D01*
X143380763Y-99849294D01*
X143460115Y-99945985D01*
X143556806Y-100025337D01*
X143667120Y-100084302D01*
X143786818Y-100120612D01*
X143911300Y-100132872D01*
X144100550Y-100129800D01*
X144259300Y-99971050D01*
X144259300Y-99134300D01*
X143435050Y-99134300D01*
X143276300Y-99293050D01*
X143273228Y-99494800D01*
X143183769Y-99494800D01*
X143213812Y-99395762D01*
X143226072Y-99271280D01*
X143223000Y-99069530D01*
X143064250Y-98910780D01*
X142240000Y-98910780D01*
X141986000Y-98910780D01*
X141161750Y-98910780D01*
X141003000Y-99069530D01*
X140999928Y-99271280D01*
X137818559Y-99271280D01*
X137820952Y-99114160D01*
X137808692Y-98989678D01*
X137772382Y-98869980D01*
X137713417Y-98759666D01*
X137634065Y-98662975D01*
X137537374Y-98583623D01*
X137494577Y-98560747D01*
X137583158Y-98452810D01*
X137654041Y-98320197D01*
X137676621Y-98245760D01*
X137680273Y-98241310D01*
X137763710Y-98157873D01*
X137793360Y-98133540D01*
X137890457Y-98015226D01*
X137962607Y-97880244D01*
X138007037Y-97733779D01*
X138018280Y-97619626D01*
X138018280Y-97619616D01*
X138022038Y-97581461D01*
X138018280Y-97543305D01*
X138018280Y-96803230D01*
X138043534Y-96789731D01*
X138161664Y-96692784D01*
X138258611Y-96574654D01*
X138330649Y-96439880D01*
X138375010Y-96293642D01*
X138389989Y-96141560D01*
X138389989Y-95191560D01*
X138375010Y-95039478D01*
X138330649Y-94893240D01*
X138258611Y-94758466D01*
X138161664Y-94640336D01*
X138043534Y-94543389D01*
X137908760Y-94471351D01*
X137762522Y-94426990D01*
X137610440Y-94412011D01*
X136935440Y-94412011D01*
X136815028Y-94423871D01*
X137848025Y-93390874D01*
X137887212Y-93358714D01*
X138015551Y-93202333D01*
X138110915Y-93023918D01*
X138169640Y-92830328D01*
X138174171Y-92784324D01*
X139013454Y-93623608D01*
X139027690Y-93768144D01*
X139071339Y-93912037D01*
X139142222Y-94044650D01*
X139179022Y-94089491D01*
X139188243Y-94183118D01*
X139224034Y-94301103D01*
X139232673Y-94329583D01*
X139304823Y-94464566D01*
X139350871Y-94520676D01*
X139401920Y-94582880D01*
X139431569Y-94607212D01*
X140159150Y-95334794D01*
X140183480Y-95364440D01*
X140213124Y-95388768D01*
X140213125Y-95388769D01*
X140255069Y-95423191D01*
X140301794Y-95461537D01*
X140436776Y-95533687D01*
X140583241Y-95578117D01*
X140697394Y-95589360D01*
X140697396Y-95589360D01*
X140735560Y-95593119D01*
X140773723Y-95589360D01*
X141276713Y-95589360D01*
X141315652Y-95636808D01*
X141395898Y-95702664D01*
X141487450Y-95751599D01*
X141586790Y-95781734D01*
X141690100Y-95791909D01*
X141932748Y-95791909D01*
X141772812Y-95951845D01*
X141725856Y-95956470D01*
X141581963Y-96000119D01*
X141449350Y-96071002D01*
X141333114Y-96166394D01*
X141237722Y-96282630D01*
X141166839Y-96415243D01*
X141123190Y-96559136D01*
X141108451Y-96708780D01*
X141108451Y-97208780D01*
X141123190Y-97358424D01*
X141166839Y-97502317D01*
X141237722Y-97634930D01*
X141326303Y-97742867D01*
X141283506Y-97765743D01*
X141186815Y-97845095D01*
X141107463Y-97941786D01*
X141048498Y-98052100D01*
X141012188Y-98171798D01*
X140999928Y-98296280D01*
X141003000Y-98498030D01*
X141161750Y-98656780D01*
X141986000Y-98656780D01*
X141986000Y-98636780D01*
X142240000Y-98636780D01*
X142240000Y-98656780D01*
X143064250Y-98656780D01*
X143223000Y-98498030D01*
X143226072Y-98296280D01*
X143213812Y-98171798D01*
X143177502Y-98052100D01*
X143118537Y-97941786D01*
X143039185Y-97845095D01*
X142942494Y-97765743D01*
X142899697Y-97742867D01*
X142988278Y-97634930D01*
X143059161Y-97502317D01*
X143102810Y-97358424D01*
X143117549Y-97208780D01*
X143117549Y-96997476D01*
X143129979Y-96871280D01*
X143122903Y-96799440D01*
X144130435Y-95791909D01*
X144390100Y-95791909D01*
X144493410Y-95781734D01*
X144592750Y-95751599D01*
X144684302Y-95702664D01*
X144764548Y-95636808D01*
X144803487Y-95589360D01*
X145285551Y-95589360D01*
X145316152Y-95626648D01*
X145396398Y-95692504D01*
X145487950Y-95741439D01*
X145587290Y-95771574D01*
X145690600Y-95781749D01*
X146036797Y-95781749D01*
X145985023Y-95844836D01*
X145932142Y-95943770D01*
X145912873Y-95979819D01*
X145907213Y-95998478D01*
X145795290Y-96058302D01*
X145752377Y-96093520D01*
X144353214Y-96093520D01*
X144239061Y-96104763D01*
X144092596Y-96149193D01*
X144043072Y-96175665D01*
X143999156Y-96179990D01*
X143855263Y-96223639D01*
X143722650Y-96294522D01*
X143606414Y-96389914D01*
X143511022Y-96506150D01*
X143440139Y-96638763D01*
X143396490Y-96782656D01*
X143381751Y-96932300D01*
X143381751Y-97432300D01*
X143396490Y-97581944D01*
X143440139Y-97725837D01*
X143511022Y-97858450D01*
X143599603Y-97966387D01*
X143556806Y-97989263D01*
X143460115Y-98068615D01*
X143380763Y-98165306D01*
X143321798Y-98275620D01*
X143285488Y-98395318D01*
X143273228Y-98519800D01*
X143276300Y-98721550D01*
X143435050Y-98880300D01*
X144259300Y-98880300D01*
X144259300Y-98860300D01*
X144513300Y-98860300D01*
X144513300Y-98880300D01*
X144533300Y-98880300D01*
X144533300Y-99134300D01*
X144513300Y-99134300D01*
X144513300Y-99971050D01*
X144672050Y-100129800D01*
X144861300Y-100132872D01*
X144985782Y-100120612D01*
X145105480Y-100084302D01*
X145215794Y-100025337D01*
X145312485Y-99945985D01*
X145391837Y-99849294D01*
X145450802Y-99738980D01*
X145487112Y-99619282D01*
X145499372Y-99494800D01*
X145496300Y-99293050D01*
X145337552Y-99134302D01*
X145465543Y-99134302D01*
X145469130Y-99170724D01*
X145512779Y-99314617D01*
X145583662Y-99447230D01*
X145679054Y-99563466D01*
X145795290Y-99658858D01*
X145927903Y-99729741D01*
X146071796Y-99773390D01*
X146221440Y-99788129D01*
X146696440Y-99788129D01*
X146846084Y-99773390D01*
X146884725Y-99761669D01*
X147022992Y-99899936D01*
X147047320Y-99929580D01*
X147076964Y-99953908D01*
X147076965Y-99953909D01*
X147165633Y-100026677D01*
X147273943Y-100084570D01*
X147269800Y-100084528D01*
X147145318Y-100096788D01*
X147025620Y-100133098D01*
X146915306Y-100192063D01*
X146818615Y-100271415D01*
X146739263Y-100368106D01*
X146680298Y-100478420D01*
X146643988Y-100598118D01*
X146631728Y-100722600D01*
X146634800Y-101161850D01*
X146793550Y-101320600D01*
X147730300Y-101320600D01*
X147730300Y-101300600D01*
X147984300Y-101300600D01*
X147984300Y-101320600D01*
X148004300Y-101320600D01*
X148004300Y-101574600D01*
X147984300Y-101574600D01*
X147984300Y-102648850D01*
X148140700Y-102805250D01*
X148115683Y-102812839D01*
X147983070Y-102883722D01*
X147866834Y-102979114D01*
X147771442Y-103095350D01*
X147746720Y-103141602D01*
X147721998Y-103095350D01*
X147626606Y-102979114D01*
X147510370Y-102883722D01*
X147377757Y-102812839D01*
X147367340Y-102809679D01*
X147571550Y-102807600D01*
X147730300Y-102648850D01*
X147730300Y-101574600D01*
X146793550Y-101574600D01*
X146634800Y-101733350D01*
X146631728Y-102172600D01*
X146643988Y-102297082D01*
X146680298Y-102416780D01*
X146739263Y-102527094D01*
X146818615Y-102623785D01*
X146915306Y-102703137D01*
X146988850Y-102742448D01*
X146832320Y-102727031D01*
X146630994Y-102746860D01*
X146605970Y-102754451D01*
X146584220Y-102754451D01*
X146434576Y-102769190D01*
X146290683Y-102812839D01*
X146158070Y-102883722D01*
X146041834Y-102979114D01*
X145946442Y-103095350D01*
X145875559Y-103227963D01*
X145831910Y-103371856D01*
X145817171Y-103521500D01*
X145817171Y-103588234D01*
X145805321Y-103708549D01*
X145805320Y-104716500D01*
X143365346Y-104716500D01*
X143281399Y-104708232D01*
X143131458Y-104723000D01*
X141002500Y-104723000D01*
X141002500Y-104311241D01*
X141097491Y-104195494D01*
X141169529Y-104060720D01*
X141213890Y-103914482D01*
X141228869Y-103762400D01*
X141228869Y-103087400D01*
X141213890Y-102935318D01*
X141169529Y-102789080D01*
X141097491Y-102654306D01*
X141000544Y-102536176D01*
X140971201Y-102512095D01*
X141053814Y-102467937D01*
X141150505Y-102388585D01*
X141229857Y-102291894D01*
X141288822Y-102181580D01*
X141325132Y-102061882D01*
X141337392Y-101937400D01*
X141334320Y-101635650D01*
X141175570Y-101476900D01*
X140101320Y-101476900D01*
X140101320Y-101496900D01*
X139847320Y-101496900D01*
X139847320Y-101476900D01*
X138773070Y-101476900D01*
X138614320Y-101635650D01*
X138611248Y-101937400D01*
X138623508Y-102061882D01*
X138659818Y-102181580D01*
X138718783Y-102291894D01*
X138798135Y-102388585D01*
X138894826Y-102467937D01*
X138977439Y-102512095D01*
X138948096Y-102536176D01*
X138891613Y-102605000D01*
X137512649Y-102605000D01*
X137361773Y-102619860D01*
X137336749Y-102627451D01*
X137225600Y-102627451D01*
X137075956Y-102642190D01*
X136932063Y-102685839D01*
X136799450Y-102756722D01*
X136683214Y-102852114D01*
X136587822Y-102968350D01*
X136563100Y-103014602D01*
X136538378Y-102968350D01*
X136442986Y-102852114D01*
X136326750Y-102756722D01*
X136194137Y-102685839D01*
X136050244Y-102642190D01*
X135900600Y-102627451D01*
X135789451Y-102627451D01*
X135764427Y-102619860D01*
X135613551Y-102605000D01*
X133909149Y-102605000D01*
X133758273Y-102619860D01*
X133564683Y-102678585D01*
X133386269Y-102773949D01*
X133229888Y-102902288D01*
X133101549Y-103058669D01*
X133006185Y-103237083D01*
X132947460Y-103430673D01*
X132927631Y-103632000D01*
X132947460Y-103833327D01*
X133006185Y-104026917D01*
X133101549Y-104205331D01*
X133229888Y-104361712D01*
X133386269Y-104490051D01*
X133564683Y-104585415D01*
X133758273Y-104644140D01*
X133909149Y-104659000D01*
X135613551Y-104659000D01*
X135764427Y-104644140D01*
X135789451Y-104636549D01*
X135900600Y-104636549D01*
X136050244Y-104621810D01*
X136194137Y-104578161D01*
X136326750Y-104507278D01*
X136442986Y-104411886D01*
X136538378Y-104295650D01*
X136563100Y-104249398D01*
X136587822Y-104295650D01*
X136683214Y-104411886D01*
X136799450Y-104507278D01*
X136932063Y-104578161D01*
X137075956Y-104621810D01*
X137225600Y-104636549D01*
X137336749Y-104636549D01*
X137361773Y-104644140D01*
X137512649Y-104659000D01*
X138948500Y-104659000D01*
X138948501Y-105698549D01*
X138943532Y-105749000D01*
X138948501Y-105799451D01*
X138963361Y-105950327D01*
X138995451Y-106056113D01*
X138995451Y-106087500D01*
X139010190Y-106237144D01*
X139053839Y-106381037D01*
X139124722Y-106513650D01*
X139220114Y-106629886D01*
X139336350Y-106725278D01*
X139382602Y-106750000D01*
X139336350Y-106774722D01*
X139292640Y-106810594D01*
X137959614Y-105477569D01*
X137935282Y-105447920D01*
X137816968Y-105350823D01*
X137681986Y-105278673D01*
X137535521Y-105234243D01*
X137421368Y-105223000D01*
X137421365Y-105223000D01*
X137383202Y-105219241D01*
X137345039Y-105223000D01*
X137223862Y-105223000D01*
X137172448Y-105160352D01*
X137092202Y-105094496D01*
X137000650Y-105045561D01*
X136901310Y-105015426D01*
X136798000Y-105005251D01*
X136637057Y-105005251D01*
X136579727Y-104987860D01*
X136428851Y-104973000D01*
X136428841Y-104973000D01*
X136378400Y-104968032D01*
X136327959Y-104973000D01*
X133280528Y-104973000D01*
X133191700Y-104964251D01*
X132691700Y-104964251D01*
X132542056Y-104978990D01*
X132398163Y-105022639D01*
X132265550Y-105093522D01*
X132149314Y-105188914D01*
X132053922Y-105305150D01*
X132029200Y-105351402D01*
X132004478Y-105305150D01*
X131909086Y-105188914D01*
X131792850Y-105093522D01*
X131660237Y-105022639D01*
X131516344Y-104978990D01*
X131366700Y-104964251D01*
X130866700Y-104964251D01*
X130717056Y-104978990D01*
X130573163Y-105022639D01*
X130440550Y-105093522D01*
X130324314Y-105188914D01*
X130228922Y-105305150D01*
X130158039Y-105437763D01*
X130114390Y-105581656D01*
X130109551Y-105630789D01*
X130105260Y-105636017D01*
X130044717Y-105749284D01*
X130007435Y-105872186D01*
X129994846Y-106000000D01*
X130007435Y-106127814D01*
X130044717Y-106250716D01*
X130098001Y-106350402D01*
X130098001Y-106953895D01*
X130073776Y-106973776D01*
X129976829Y-107091906D01*
X129904791Y-107226680D01*
X129860430Y-107372918D01*
X129845451Y-107525000D01*
X129845451Y-108248808D01*
X129432431Y-107835788D01*
X129401215Y-107732883D01*
X129395549Y-107722283D01*
X129395549Y-106922200D01*
X129385374Y-106818890D01*
X129355239Y-106719550D01*
X129306304Y-106627998D01*
X129240448Y-106547752D01*
X129160202Y-106481896D01*
X129068650Y-106432961D01*
X128969310Y-106402826D01*
X128928998Y-106398856D01*
X129113588Y-106232469D01*
X129287641Y-105999120D01*
X129412825Y-105736299D01*
X129457476Y-105589090D01*
X129336155Y-105359200D01*
X128143000Y-105359200D01*
X128143000Y-105379200D01*
X127889000Y-105379200D01*
X127889000Y-105359200D01*
X126695845Y-105359200D01*
X126574524Y-105589090D01*
X126619175Y-105736299D01*
X126744359Y-105999120D01*
X126918412Y-106232469D01*
X127103002Y-106398856D01*
X127062690Y-106402826D01*
X126963350Y-106432961D01*
X126871798Y-106481896D01*
X126791552Y-106547752D01*
X126725696Y-106627998D01*
X126676761Y-106719550D01*
X126646626Y-106818890D01*
X126636451Y-106922200D01*
X126636451Y-108622200D01*
X126646626Y-108725510D01*
X126676761Y-108824850D01*
X126725696Y-108916402D01*
X126791552Y-108996648D01*
X126871798Y-109062504D01*
X126963350Y-109111439D01*
X127062690Y-109141574D01*
X127166000Y-109151749D01*
X128061572Y-109151749D01*
X128092549Y-109154800D01*
X128498251Y-109154800D01*
X128529228Y-109151749D01*
X128550706Y-109151749D01*
X129097067Y-109698111D01*
X128731303Y-109546606D01*
X128146493Y-109430280D01*
X127550227Y-109430280D01*
X126965417Y-109546606D01*
X126414538Y-109774788D01*
X125918760Y-110106056D01*
X125497136Y-110527680D01*
X125165868Y-111023458D01*
X125154231Y-111051552D01*
X125135750Y-104875310D01*
X126574524Y-104875310D01*
X126695845Y-105105200D01*
X127889000Y-105105200D01*
X127889000Y-103911386D01*
X128143000Y-103911386D01*
X128143000Y-105105200D01*
X129336155Y-105105200D01*
X129457476Y-104875310D01*
X129412825Y-104728101D01*
X129287641Y-104465280D01*
X129113588Y-104231931D01*
X128897355Y-104037022D01*
X128647252Y-103888043D01*
X128372891Y-103790719D01*
X128143000Y-103911386D01*
X127889000Y-103911386D01*
X127659109Y-103790719D01*
X127384748Y-103888043D01*
X127134645Y-104037022D01*
X126918412Y-104231931D01*
X126744359Y-104465280D01*
X126619175Y-104728101D01*
X126574524Y-104875310D01*
X125135750Y-104875310D01*
X125122715Y-100519100D01*
X125461398Y-100519100D01*
X125461398Y-103323100D01*
X129574922Y-103323100D01*
X129574922Y-100762400D01*
X138611248Y-100762400D01*
X138614320Y-101064150D01*
X138773070Y-101222900D01*
X139847320Y-101222900D01*
X139847320Y-100286150D01*
X140101320Y-100286150D01*
X140101320Y-101222900D01*
X141175570Y-101222900D01*
X141334320Y-101064150D01*
X141337392Y-100762400D01*
X141325132Y-100637918D01*
X141288822Y-100518220D01*
X141229857Y-100407906D01*
X141150505Y-100311215D01*
X141053814Y-100231863D01*
X140943500Y-100172898D01*
X140823802Y-100136588D01*
X140699320Y-100124328D01*
X140260070Y-100127400D01*
X140101320Y-100286150D01*
X139847320Y-100286150D01*
X139688570Y-100127400D01*
X139249320Y-100124328D01*
X139124838Y-100136588D01*
X139005140Y-100172898D01*
X138894826Y-100231863D01*
X138798135Y-100311215D01*
X138718783Y-100407906D01*
X138659818Y-100518220D01*
X138623508Y-100637918D01*
X138611248Y-100762400D01*
X129574922Y-100762400D01*
X129574922Y-100519100D01*
X125461398Y-100519100D01*
X125122715Y-100519100D01*
X125121429Y-100089160D01*
X131419048Y-100089160D01*
X131431308Y-100213642D01*
X131467618Y-100333340D01*
X131526583Y-100443654D01*
X131605935Y-100540345D01*
X131702626Y-100619697D01*
X131812940Y-100678662D01*
X131932638Y-100714972D01*
X132057120Y-100727232D01*
X132246370Y-100724160D01*
X132405120Y-100565410D01*
X132405120Y-99728660D01*
X132659120Y-99728660D01*
X132659120Y-100565410D01*
X132817870Y-100724160D01*
X133007120Y-100727232D01*
X133131602Y-100714972D01*
X133251300Y-100678662D01*
X133361614Y-100619697D01*
X133458305Y-100540345D01*
X133537657Y-100443654D01*
X133576411Y-100371152D01*
X133604303Y-100423334D01*
X133683655Y-100520025D01*
X133780346Y-100599377D01*
X133890660Y-100658342D01*
X134010358Y-100694652D01*
X134134840Y-100706912D01*
X134324090Y-100703840D01*
X134482840Y-100545090D01*
X134482840Y-99708340D01*
X134736840Y-99708340D01*
X134736840Y-100545090D01*
X134895590Y-100703840D01*
X135084840Y-100706912D01*
X135209322Y-100694652D01*
X135329020Y-100658342D01*
X135439334Y-100599377D01*
X135536025Y-100520025D01*
X135615377Y-100423334D01*
X135653429Y-100352144D01*
X135702343Y-100443654D01*
X135781695Y-100540345D01*
X135878386Y-100619697D01*
X135988700Y-100678662D01*
X136108398Y-100714972D01*
X136232880Y-100727232D01*
X136422130Y-100724160D01*
X136580880Y-100565410D01*
X136580880Y-99728660D01*
X136834880Y-99728660D01*
X136834880Y-100565410D01*
X136993630Y-100724160D01*
X137182880Y-100727232D01*
X137307362Y-100714972D01*
X137427060Y-100678662D01*
X137537374Y-100619697D01*
X137634065Y-100540345D01*
X137713417Y-100443654D01*
X137772382Y-100333340D01*
X137808692Y-100213642D01*
X137820952Y-100089160D01*
X137817880Y-99887410D01*
X137659130Y-99728660D01*
X136834880Y-99728660D01*
X136580880Y-99728660D01*
X135756630Y-99728660D01*
X135669020Y-99816270D01*
X135561090Y-99708340D01*
X134736840Y-99708340D01*
X134482840Y-99708340D01*
X133658590Y-99708340D01*
X133560820Y-99806110D01*
X133483370Y-99728660D01*
X132659120Y-99728660D01*
X132405120Y-99728660D01*
X131580870Y-99728660D01*
X131422120Y-99887410D01*
X131419048Y-100089160D01*
X125121429Y-100089160D01*
X125097733Y-92170230D01*
X126777724Y-92170230D01*
X126899045Y-92400120D01*
X128092200Y-92400120D01*
X128092200Y-91206306D01*
X128346200Y-91206306D01*
X128346200Y-92400120D01*
X129539355Y-92400120D01*
X129660676Y-92170230D01*
X129616025Y-92023021D01*
X129490841Y-91760200D01*
X129316788Y-91526851D01*
X129100555Y-91331942D01*
X128850452Y-91182963D01*
X128576091Y-91085639D01*
X128346200Y-91206306D01*
X128092200Y-91206306D01*
X127862309Y-91085639D01*
X127587948Y-91182963D01*
X127337845Y-91331942D01*
X127121612Y-91526851D01*
X126947559Y-91760200D01*
X126822375Y-92023021D01*
X126777724Y-92170230D01*
X125097733Y-92170230D01*
X125087353Y-88701550D01*
X125165868Y-88891102D01*
X125497136Y-89386880D01*
X125918760Y-89808504D01*
X126414538Y-90139772D01*
X126965417Y-90367954D01*
X127550227Y-90484280D01*
X128146493Y-90484280D01*
X128731303Y-90367954D01*
X129282182Y-90139772D01*
X129777960Y-89808504D01*
X130199584Y-89386880D01*
X130530852Y-88891102D01*
X130759034Y-88340223D01*
X130875360Y-87755413D01*
X130875360Y-87159147D01*
X130772096Y-86640000D01*
X138527428Y-86640000D01*
X138530500Y-86941750D01*
X138689250Y-87100500D01*
X139763500Y-87100500D01*
X139763500Y-86163750D01*
X140017500Y-86163750D01*
X140017500Y-87100500D01*
X141091750Y-87100500D01*
X141250500Y-86941750D01*
X141253572Y-86640000D01*
X141241312Y-86515518D01*
X141205002Y-86395820D01*
X141146037Y-86285506D01*
X141066685Y-86188815D01*
X140969994Y-86109463D01*
X140859680Y-86050498D01*
X140739982Y-86014188D01*
X140615500Y-86001928D01*
X140176250Y-86005000D01*
X140017500Y-86163750D01*
X139763500Y-86163750D01*
X139604750Y-86005000D01*
X139165500Y-86001928D01*
X139041018Y-86014188D01*
X138921320Y-86050498D01*
X138811006Y-86109463D01*
X138714315Y-86188815D01*
X138634963Y-86285506D01*
X138575998Y-86395820D01*
X138539688Y-86515518D01*
X138527428Y-86640000D01*
X130772096Y-86640000D01*
X130759034Y-86574337D01*
X130530852Y-86023458D01*
X130199584Y-85527680D01*
X129777960Y-85106056D01*
X129282182Y-84774788D01*
X128731303Y-84546606D01*
X128146493Y-84430280D01*
X127550227Y-84430280D01*
X126965417Y-84546606D01*
X126414538Y-84774788D01*
X125918760Y-85106056D01*
X125497136Y-85527680D01*
X125165868Y-86023458D01*
X125079960Y-86230859D01*
X125075373Y-84697928D01*
X125124174Y-84457129D01*
X125219403Y-84228991D01*
X125357128Y-84023701D01*
X125532110Y-83849064D01*
X125737675Y-83711745D01*
X125965998Y-83616968D01*
X126222086Y-83565595D01*
X126277794Y-83561600D01*
X154574208Y-83562517D01*
G04 #@! TA.AperFunction,Conductor*
D21*
G36*
X154574208Y-83562517D02*
G01*
X154815066Y-83611371D01*
X155042716Y-83706439D01*
X155247560Y-83843912D01*
X155421800Y-84018553D01*
X155558802Y-84223715D01*
X155653346Y-84451579D01*
X155705045Y-84709508D01*
X155706414Y-84725917D01*
X155707797Y-86450640D01*
X155530852Y-86023458D01*
X155199584Y-85527680D01*
X154777960Y-85106056D01*
X154282182Y-84774788D01*
X153731303Y-84546606D01*
X153146493Y-84430280D01*
X152550227Y-84430280D01*
X151965417Y-84546606D01*
X151414538Y-84774788D01*
X150918760Y-85106056D01*
X150497136Y-85527680D01*
X150165868Y-86023458D01*
X149937686Y-86574337D01*
X149821360Y-87159147D01*
X149821360Y-87755413D01*
X149833912Y-87818515D01*
X149803307Y-87787911D01*
X149797414Y-87768483D01*
X149702050Y-87590069D01*
X149605872Y-87472876D01*
X149483724Y-87350728D01*
X149366531Y-87254550D01*
X149188117Y-87159186D01*
X148994527Y-87100461D01*
X148793200Y-87080632D01*
X148591873Y-87100461D01*
X148398283Y-87159186D01*
X148305182Y-87208949D01*
X148277356Y-87211690D01*
X148133463Y-87255339D01*
X148000850Y-87326222D01*
X147884614Y-87421614D01*
X147789222Y-87537850D01*
X147764500Y-87584102D01*
X147739778Y-87537850D01*
X147644386Y-87421614D01*
X147528150Y-87326222D01*
X147395537Y-87255339D01*
X147251644Y-87211690D01*
X147102000Y-87196951D01*
X146990851Y-87196951D01*
X146965827Y-87189360D01*
X146814951Y-87174500D01*
X145877685Y-87174500D01*
X145846725Y-87136775D01*
X145728595Y-87039829D01*
X145593821Y-86967791D01*
X145447583Y-86923430D01*
X145295501Y-86908451D01*
X144645499Y-86908451D01*
X144493417Y-86923430D01*
X144347179Y-86967791D01*
X144212405Y-87039829D01*
X144094275Y-87136775D01*
X144070194Y-87166117D01*
X144026037Y-87083506D01*
X143946685Y-86986815D01*
X143849994Y-86907463D01*
X143739680Y-86848498D01*
X143619982Y-86812188D01*
X143495500Y-86799928D01*
X143206250Y-86803000D01*
X143047500Y-86961750D01*
X143047500Y-88011000D01*
X143067500Y-88011000D01*
X143067500Y-88265000D01*
X143047500Y-88265000D01*
X143047500Y-89314250D01*
X143206250Y-89473000D01*
X143495500Y-89476072D01*
X143619982Y-89463812D01*
X143739680Y-89427502D01*
X143849994Y-89368537D01*
X143946685Y-89289185D01*
X144026037Y-89192494D01*
X144070194Y-89109883D01*
X144094275Y-89139225D01*
X144212405Y-89236171D01*
X144347179Y-89308209D01*
X144493417Y-89352570D01*
X144645499Y-89367549D01*
X145295501Y-89367549D01*
X145447583Y-89352570D01*
X145593821Y-89308209D01*
X145728595Y-89236171D01*
X145737942Y-89228500D01*
X146814951Y-89228500D01*
X146965827Y-89213640D01*
X146990851Y-89206049D01*
X147102000Y-89206049D01*
X147251644Y-89191310D01*
X147395537Y-89147661D01*
X147528150Y-89076778D01*
X147644386Y-88981386D01*
X147739778Y-88865150D01*
X147764500Y-88818898D01*
X147789222Y-88865150D01*
X147884614Y-88981386D01*
X148000850Y-89076778D01*
X148133463Y-89147661D01*
X148134500Y-89147976D01*
X148134501Y-89596909D01*
X148030537Y-89541339D01*
X147886644Y-89497690D01*
X147816132Y-89490745D01*
X147778417Y-89470586D01*
X147584827Y-89411861D01*
X147383499Y-89392032D01*
X147182173Y-89411861D01*
X146988583Y-89470586D01*
X146810169Y-89565950D01*
X146692976Y-89662128D01*
X146565976Y-89789128D01*
X146526789Y-89821288D01*
X146494629Y-89860475D01*
X146494628Y-89860476D01*
X146398450Y-89977669D01*
X146303086Y-90156083D01*
X146244361Y-90349673D01*
X146224532Y-90551000D01*
X146229501Y-90601450D01*
X146229500Y-91734560D01*
X144008041Y-91734560D01*
X144003980Y-91693333D01*
X143945255Y-91499743D01*
X143849891Y-91321329D01*
X143721552Y-91164948D01*
X143682359Y-91132783D01*
X143315057Y-90765481D01*
X143282892Y-90726288D01*
X143126511Y-90597949D01*
X142948097Y-90502585D01*
X142754507Y-90443860D01*
X142603631Y-90429000D01*
X142603621Y-90429000D01*
X142553180Y-90424032D01*
X142502739Y-90429000D01*
X141044500Y-90429000D01*
X141044500Y-90015417D01*
X141085709Y-89938320D01*
X141130070Y-89792082D01*
X141145049Y-89640000D01*
X141145049Y-88965000D01*
X141132541Y-88838000D01*
X141707428Y-88838000D01*
X141719688Y-88962482D01*
X141755998Y-89082180D01*
X141814963Y-89192494D01*
X141894315Y-89289185D01*
X141991006Y-89368537D01*
X142101320Y-89427502D01*
X142221018Y-89463812D01*
X142345500Y-89476072D01*
X142634750Y-89473000D01*
X142793500Y-89314250D01*
X142793500Y-88265000D01*
X141869250Y-88265000D01*
X141710500Y-88423750D01*
X141707428Y-88838000D01*
X141132541Y-88838000D01*
X141130070Y-88812918D01*
X141085709Y-88666680D01*
X141013671Y-88531906D01*
X140916724Y-88413776D01*
X140887381Y-88389695D01*
X140969994Y-88345537D01*
X141066685Y-88266185D01*
X141146037Y-88169494D01*
X141205002Y-88059180D01*
X141241312Y-87939482D01*
X141253572Y-87815000D01*
X141250500Y-87513250D01*
X141175250Y-87438000D01*
X141707428Y-87438000D01*
X141710500Y-87852250D01*
X141869250Y-88011000D01*
X142793500Y-88011000D01*
X142793500Y-86961750D01*
X142634750Y-86803000D01*
X142345500Y-86799928D01*
X142221018Y-86812188D01*
X142101320Y-86848498D01*
X141991006Y-86907463D01*
X141894315Y-86986815D01*
X141814963Y-87083506D01*
X141755998Y-87193820D01*
X141719688Y-87313518D01*
X141707428Y-87438000D01*
X141175250Y-87438000D01*
X141091750Y-87354500D01*
X140017500Y-87354500D01*
X140017500Y-87374500D01*
X139763500Y-87374500D01*
X139763500Y-87354500D01*
X138689250Y-87354500D01*
X138530500Y-87513250D01*
X138527428Y-87815000D01*
X138534369Y-87885472D01*
X137957520Y-87308624D01*
X137944278Y-87283850D01*
X137848886Y-87167614D01*
X137732650Y-87072222D01*
X137600037Y-87001339D01*
X137456144Y-86957690D01*
X137401046Y-86952263D01*
X137345327Y-86935361D01*
X137144000Y-86915532D01*
X136942673Y-86935361D01*
X136917652Y-86942951D01*
X136806500Y-86942951D01*
X136656856Y-86957690D01*
X136512963Y-87001339D01*
X136380350Y-87072222D01*
X136264114Y-87167614D01*
X136168722Y-87283850D01*
X136144000Y-87330102D01*
X136119278Y-87283850D01*
X136023886Y-87167614D01*
X135907650Y-87072222D01*
X135775037Y-87001339D01*
X135631144Y-86957690D01*
X135481500Y-86942951D01*
X135370351Y-86942951D01*
X135345327Y-86935360D01*
X135194451Y-86920500D01*
X133299549Y-86920500D01*
X133148673Y-86935360D01*
X132955083Y-86994085D01*
X132776669Y-87089449D01*
X132620288Y-87217788D01*
X132491949Y-87374169D01*
X132396585Y-87552583D01*
X132337860Y-87746173D01*
X132318031Y-87947500D01*
X132337860Y-88148827D01*
X132396585Y-88342417D01*
X132491949Y-88520831D01*
X132620288Y-88677212D01*
X132776669Y-88805551D01*
X132955083Y-88900915D01*
X133148673Y-88959640D01*
X133299549Y-88974500D01*
X135194451Y-88974500D01*
X135345327Y-88959640D01*
X135370351Y-88952049D01*
X135481500Y-88952049D01*
X135631144Y-88937310D01*
X135775037Y-88893661D01*
X135907650Y-88822778D01*
X136023886Y-88727386D01*
X136119278Y-88611150D01*
X136144000Y-88564898D01*
X136168722Y-88611150D01*
X136264114Y-88727386D01*
X136380350Y-88822778D01*
X136512963Y-88893661D01*
X136656856Y-88937310D01*
X136684097Y-88939993D01*
X136963588Y-89219484D01*
X136901702Y-89168696D01*
X136810150Y-89119761D01*
X136710810Y-89089626D01*
X136607500Y-89079451D01*
X135807500Y-89079451D01*
X135704190Y-89089626D01*
X135604850Y-89119761D01*
X135513298Y-89168696D01*
X135433052Y-89234552D01*
X135432258Y-89235520D01*
X133782174Y-89235520D01*
X133779806Y-89232634D01*
X133663570Y-89137242D01*
X133530957Y-89066359D01*
X133387064Y-89022710D01*
X133237420Y-89007971D01*
X132737420Y-89007971D01*
X132587776Y-89022710D01*
X132443883Y-89066359D01*
X132311270Y-89137242D01*
X132195034Y-89232634D01*
X132099642Y-89348870D01*
X132074920Y-89395122D01*
X132050198Y-89348870D01*
X131954806Y-89232634D01*
X131838570Y-89137242D01*
X131705957Y-89066359D01*
X131562064Y-89022710D01*
X131412420Y-89007971D01*
X130912420Y-89007971D01*
X130762776Y-89022710D01*
X130618883Y-89066359D01*
X130486270Y-89137242D01*
X130370034Y-89232634D01*
X130274642Y-89348870D01*
X130203759Y-89481483D01*
X130160110Y-89625376D01*
X130145371Y-89775020D01*
X130145371Y-90250020D01*
X130160110Y-90399664D01*
X130203759Y-90543557D01*
X130274642Y-90676170D01*
X130280741Y-90683601D01*
X130280741Y-91068846D01*
X130169016Y-91160536D01*
X130072069Y-91278666D01*
X130000031Y-91413440D01*
X129955670Y-91559678D01*
X129940691Y-91711760D01*
X129940691Y-92661760D01*
X129955670Y-92813842D01*
X130000031Y-92960080D01*
X130072069Y-93094854D01*
X130169016Y-93212984D01*
X130287146Y-93309931D01*
X130421920Y-93381969D01*
X130568158Y-93426330D01*
X130720240Y-93441309D01*
X131395240Y-93441309D01*
X131547322Y-93426330D01*
X131693560Y-93381969D01*
X131828334Y-93309931D01*
X131946464Y-93212984D01*
X132043411Y-93094854D01*
X132095240Y-92997888D01*
X132105740Y-93017533D01*
X132105741Y-94044749D01*
X132104371Y-94042186D01*
X132007424Y-93924056D01*
X131889294Y-93827109D01*
X131754520Y-93755071D01*
X131608282Y-93710710D01*
X131456200Y-93695731D01*
X130781200Y-93695731D01*
X130629118Y-93710710D01*
X130482880Y-93755071D01*
X130348106Y-93827109D01*
X130229976Y-93924056D01*
X130133029Y-94042186D01*
X130060991Y-94176960D01*
X130045156Y-94229160D01*
X129598749Y-94229160D01*
X129598749Y-94217120D01*
X129588574Y-94113810D01*
X129558439Y-94014470D01*
X129509504Y-93922918D01*
X129443648Y-93842672D01*
X129363402Y-93776816D01*
X129271850Y-93727881D01*
X129172510Y-93697746D01*
X129132198Y-93693776D01*
X129316788Y-93527389D01*
X129490841Y-93294040D01*
X129616025Y-93031219D01*
X129660676Y-92884010D01*
X129539355Y-92654120D01*
X128346200Y-92654120D01*
X128346200Y-92674120D01*
X128092200Y-92674120D01*
X128092200Y-92654120D01*
X126899045Y-92654120D01*
X126777724Y-92884010D01*
X126822375Y-93031219D01*
X126947559Y-93294040D01*
X127121612Y-93527389D01*
X127306202Y-93693776D01*
X127265890Y-93697746D01*
X127166550Y-93727881D01*
X127074998Y-93776816D01*
X126994752Y-93842672D01*
X126928896Y-93922918D01*
X126879961Y-94014470D01*
X126849826Y-94113810D01*
X126839651Y-94217120D01*
X126839651Y-95917120D01*
X126849826Y-96020430D01*
X126879961Y-96119770D01*
X126928896Y-96211322D01*
X126994752Y-96291568D01*
X127074998Y-96357424D01*
X127166550Y-96406359D01*
X127265890Y-96436494D01*
X127369200Y-96446669D01*
X129069200Y-96446669D01*
X129172510Y-96436494D01*
X129271850Y-96406359D01*
X129363402Y-96357424D01*
X129443648Y-96291568D01*
X129509504Y-96211322D01*
X129558439Y-96119770D01*
X129588574Y-96020430D01*
X129598749Y-95917120D01*
X129598749Y-95783160D01*
X130092826Y-95783160D01*
X130133029Y-95858374D01*
X130229976Y-95976504D01*
X130348106Y-96073451D01*
X130482880Y-96145489D01*
X130629118Y-96189850D01*
X130781200Y-96204829D01*
X131456200Y-96204829D01*
X131608282Y-96189850D01*
X131754520Y-96145489D01*
X131889294Y-96073451D01*
X132007424Y-95976504D01*
X132019280Y-95962057D01*
X132019281Y-96812479D01*
X132001083Y-96817999D01*
X131868470Y-96888882D01*
X131752234Y-96984274D01*
X131656842Y-97100510D01*
X131585959Y-97233123D01*
X131542310Y-97377016D01*
X131527571Y-97526660D01*
X131527571Y-98026660D01*
X131542310Y-98176304D01*
X131585959Y-98320197D01*
X131656842Y-98452810D01*
X131745423Y-98560747D01*
X131702626Y-98583623D01*
X131605935Y-98662975D01*
X131526583Y-98759666D01*
X131467618Y-98869980D01*
X131431308Y-98989678D01*
X131419048Y-99114160D01*
X131422120Y-99315910D01*
X131580870Y-99474660D01*
X132405120Y-99474660D01*
X132405120Y-99454660D01*
X132659120Y-99454660D01*
X132659120Y-99474660D01*
X133483370Y-99474660D01*
X133581140Y-99376890D01*
X133658590Y-99454340D01*
X134482840Y-99454340D01*
X134482840Y-99434340D01*
X134736840Y-99434340D01*
X134736840Y-99454340D01*
X135561090Y-99454340D01*
X135648700Y-99366730D01*
X135756630Y-99474660D01*
X136580880Y-99474660D01*
X136580880Y-99454660D01*
X136834880Y-99454660D01*
X136834880Y-99474660D01*
X137659130Y-99474660D01*
X137817880Y-99315910D01*
X137818559Y-99271280D01*
X140999928Y-99271280D01*
X141012188Y-99395762D01*
X141048498Y-99515460D01*
X141107463Y-99625774D01*
X141186815Y-99722465D01*
X141283506Y-99801817D01*
X141393820Y-99860782D01*
X141513518Y-99897092D01*
X141638000Y-99909352D01*
X141827250Y-99906280D01*
X141986000Y-99747530D01*
X141986000Y-98910780D01*
X142240000Y-98910780D01*
X142240000Y-99747530D01*
X142398750Y-99906280D01*
X142588000Y-99909352D01*
X142712482Y-99897092D01*
X142832180Y-99860782D01*
X142942494Y-99801817D01*
X143039185Y-99722465D01*
X143118537Y-99625774D01*
X143177502Y-99515460D01*
X143183769Y-99494800D01*
X143273228Y-99494800D01*
X143285488Y-99619282D01*
X143321798Y-99738980D01*
X143380763Y-99849294D01*
X143460115Y-99945985D01*
X143556806Y-100025337D01*
X143667120Y-100084302D01*
X143786818Y-100120612D01*
X143911300Y-100132872D01*
X144100550Y-100129800D01*
X144259300Y-99971050D01*
X144259300Y-99134300D01*
X143435050Y-99134300D01*
X143276300Y-99293050D01*
X143273228Y-99494800D01*
X143183769Y-99494800D01*
X143213812Y-99395762D01*
X143226072Y-99271280D01*
X143223000Y-99069530D01*
X143064250Y-98910780D01*
X142240000Y-98910780D01*
X141986000Y-98910780D01*
X141161750Y-98910780D01*
X141003000Y-99069530D01*
X140999928Y-99271280D01*
X137818559Y-99271280D01*
X137820952Y-99114160D01*
X137808692Y-98989678D01*
X137772382Y-98869980D01*
X137713417Y-98759666D01*
X137634065Y-98662975D01*
X137537374Y-98583623D01*
X137494577Y-98560747D01*
X137583158Y-98452810D01*
X137654041Y-98320197D01*
X137676621Y-98245760D01*
X137680273Y-98241310D01*
X137763710Y-98157873D01*
X137793360Y-98133540D01*
X137890457Y-98015226D01*
X137962607Y-97880244D01*
X138007037Y-97733779D01*
X138018280Y-97619626D01*
X138018280Y-97619616D01*
X138022038Y-97581461D01*
X138018280Y-97543305D01*
X138018280Y-96803230D01*
X138043534Y-96789731D01*
X138161664Y-96692784D01*
X138258611Y-96574654D01*
X138330649Y-96439880D01*
X138375010Y-96293642D01*
X138389989Y-96141560D01*
X138389989Y-95191560D01*
X138375010Y-95039478D01*
X138330649Y-94893240D01*
X138258611Y-94758466D01*
X138161664Y-94640336D01*
X138043534Y-94543389D01*
X137908760Y-94471351D01*
X137762522Y-94426990D01*
X137610440Y-94412011D01*
X136935440Y-94412011D01*
X136815028Y-94423871D01*
X137848025Y-93390874D01*
X137887212Y-93358714D01*
X138015551Y-93202333D01*
X138110915Y-93023918D01*
X138169640Y-92830328D01*
X138174171Y-92784324D01*
X139013454Y-93623608D01*
X139027690Y-93768144D01*
X139071339Y-93912037D01*
X139142222Y-94044650D01*
X139179022Y-94089491D01*
X139188243Y-94183118D01*
X139224034Y-94301103D01*
X139232673Y-94329583D01*
X139304823Y-94464566D01*
X139350871Y-94520676D01*
X139401920Y-94582880D01*
X139431569Y-94607212D01*
X140159150Y-95334794D01*
X140183480Y-95364440D01*
X140213124Y-95388768D01*
X140213125Y-95388769D01*
X140255069Y-95423191D01*
X140301794Y-95461537D01*
X140436776Y-95533687D01*
X140583241Y-95578117D01*
X140697394Y-95589360D01*
X140697396Y-95589360D01*
X140735560Y-95593119D01*
X140773723Y-95589360D01*
X141276713Y-95589360D01*
X141315652Y-95636808D01*
X141395898Y-95702664D01*
X141487450Y-95751599D01*
X141586790Y-95781734D01*
X141690100Y-95791909D01*
X141932748Y-95791909D01*
X141772812Y-95951845D01*
X141725856Y-95956470D01*
X141581963Y-96000119D01*
X141449350Y-96071002D01*
X141333114Y-96166394D01*
X141237722Y-96282630D01*
X141166839Y-96415243D01*
X141123190Y-96559136D01*
X141108451Y-96708780D01*
X141108451Y-97208780D01*
X141123190Y-97358424D01*
X141166839Y-97502317D01*
X141237722Y-97634930D01*
X141326303Y-97742867D01*
X141283506Y-97765743D01*
X141186815Y-97845095D01*
X141107463Y-97941786D01*
X141048498Y-98052100D01*
X141012188Y-98171798D01*
X140999928Y-98296280D01*
X141003000Y-98498030D01*
X141161750Y-98656780D01*
X141986000Y-98656780D01*
X141986000Y-98636780D01*
X142240000Y-98636780D01*
X142240000Y-98656780D01*
X143064250Y-98656780D01*
X143223000Y-98498030D01*
X143226072Y-98296280D01*
X143213812Y-98171798D01*
X143177502Y-98052100D01*
X143118537Y-97941786D01*
X143039185Y-97845095D01*
X142942494Y-97765743D01*
X142899697Y-97742867D01*
X142988278Y-97634930D01*
X143059161Y-97502317D01*
X143102810Y-97358424D01*
X143117549Y-97208780D01*
X143117549Y-96997476D01*
X143129979Y-96871280D01*
X143122903Y-96799440D01*
X144130435Y-95791909D01*
X144390100Y-95791909D01*
X144493410Y-95781734D01*
X144592750Y-95751599D01*
X144684302Y-95702664D01*
X144764548Y-95636808D01*
X144803487Y-95589360D01*
X145285551Y-95589360D01*
X145316152Y-95626648D01*
X145396398Y-95692504D01*
X145487950Y-95741439D01*
X145587290Y-95771574D01*
X145690600Y-95781749D01*
X146036797Y-95781749D01*
X145985023Y-95844836D01*
X145932142Y-95943770D01*
X145912873Y-95979819D01*
X145907213Y-95998478D01*
X145795290Y-96058302D01*
X145752377Y-96093520D01*
X144353214Y-96093520D01*
X144239061Y-96104763D01*
X144092596Y-96149193D01*
X144043072Y-96175665D01*
X143999156Y-96179990D01*
X143855263Y-96223639D01*
X143722650Y-96294522D01*
X143606414Y-96389914D01*
X143511022Y-96506150D01*
X143440139Y-96638763D01*
X143396490Y-96782656D01*
X143381751Y-96932300D01*
X143381751Y-97432300D01*
X143396490Y-97581944D01*
X143440139Y-97725837D01*
X143511022Y-97858450D01*
X143599603Y-97966387D01*
X143556806Y-97989263D01*
X143460115Y-98068615D01*
X143380763Y-98165306D01*
X143321798Y-98275620D01*
X143285488Y-98395318D01*
X143273228Y-98519800D01*
X143276300Y-98721550D01*
X143435050Y-98880300D01*
X144259300Y-98880300D01*
X144259300Y-98860300D01*
X144513300Y-98860300D01*
X144513300Y-98880300D01*
X144533300Y-98880300D01*
X144533300Y-99134300D01*
X144513300Y-99134300D01*
X144513300Y-99971050D01*
X144672050Y-100129800D01*
X144861300Y-100132872D01*
X144985782Y-100120612D01*
X145105480Y-100084302D01*
X145215794Y-100025337D01*
X145312485Y-99945985D01*
X145391837Y-99849294D01*
X145450802Y-99738980D01*
X145487112Y-99619282D01*
X145499372Y-99494800D01*
X145496300Y-99293050D01*
X145337552Y-99134302D01*
X145465543Y-99134302D01*
X145469130Y-99170724D01*
X145512779Y-99314617D01*
X145583662Y-99447230D01*
X145679054Y-99563466D01*
X145795290Y-99658858D01*
X145927903Y-99729741D01*
X146071796Y-99773390D01*
X146221440Y-99788129D01*
X146696440Y-99788129D01*
X146846084Y-99773390D01*
X146884725Y-99761669D01*
X147022992Y-99899936D01*
X147047320Y-99929580D01*
X147076964Y-99953908D01*
X147076965Y-99953909D01*
X147165633Y-100026677D01*
X147273943Y-100084570D01*
X147269800Y-100084528D01*
X147145318Y-100096788D01*
X147025620Y-100133098D01*
X146915306Y-100192063D01*
X146818615Y-100271415D01*
X146739263Y-100368106D01*
X146680298Y-100478420D01*
X146643988Y-100598118D01*
X146631728Y-100722600D01*
X146634800Y-101161850D01*
X146793550Y-101320600D01*
X147730300Y-101320600D01*
X147730300Y-101300600D01*
X147984300Y-101300600D01*
X147984300Y-101320600D01*
X148004300Y-101320600D01*
X148004300Y-101574600D01*
X147984300Y-101574600D01*
X147984300Y-102648850D01*
X148140700Y-102805250D01*
X148115683Y-102812839D01*
X147983070Y-102883722D01*
X147866834Y-102979114D01*
X147771442Y-103095350D01*
X147746720Y-103141602D01*
X147721998Y-103095350D01*
X147626606Y-102979114D01*
X147510370Y-102883722D01*
X147377757Y-102812839D01*
X147367340Y-102809679D01*
X147571550Y-102807600D01*
X147730300Y-102648850D01*
X147730300Y-101574600D01*
X146793550Y-101574600D01*
X146634800Y-101733350D01*
X146631728Y-102172600D01*
X146643988Y-102297082D01*
X146680298Y-102416780D01*
X146739263Y-102527094D01*
X146818615Y-102623785D01*
X146915306Y-102703137D01*
X146988850Y-102742448D01*
X146832320Y-102727031D01*
X146630994Y-102746860D01*
X146605970Y-102754451D01*
X146584220Y-102754451D01*
X146434576Y-102769190D01*
X146290683Y-102812839D01*
X146158070Y-102883722D01*
X146041834Y-102979114D01*
X145946442Y-103095350D01*
X145875559Y-103227963D01*
X145831910Y-103371856D01*
X145817171Y-103521500D01*
X145817171Y-103588234D01*
X145805321Y-103708549D01*
X145805320Y-104716500D01*
X143365346Y-104716500D01*
X143281399Y-104708232D01*
X143131458Y-104723000D01*
X141002500Y-104723000D01*
X141002500Y-104311241D01*
X141097491Y-104195494D01*
X141169529Y-104060720D01*
X141213890Y-103914482D01*
X141228869Y-103762400D01*
X141228869Y-103087400D01*
X141213890Y-102935318D01*
X141169529Y-102789080D01*
X141097491Y-102654306D01*
X141000544Y-102536176D01*
X140971201Y-102512095D01*
X141053814Y-102467937D01*
X141150505Y-102388585D01*
X141229857Y-102291894D01*
X141288822Y-102181580D01*
X141325132Y-102061882D01*
X141337392Y-101937400D01*
X141334320Y-101635650D01*
X141175570Y-101476900D01*
X140101320Y-101476900D01*
X140101320Y-101496900D01*
X139847320Y-101496900D01*
X139847320Y-101476900D01*
X138773070Y-101476900D01*
X138614320Y-101635650D01*
X138611248Y-101937400D01*
X138623508Y-102061882D01*
X138659818Y-102181580D01*
X138718783Y-102291894D01*
X138798135Y-102388585D01*
X138894826Y-102467937D01*
X138977439Y-102512095D01*
X138948096Y-102536176D01*
X138891613Y-102605000D01*
X137512649Y-102605000D01*
X137361773Y-102619860D01*
X137336749Y-102627451D01*
X137225600Y-102627451D01*
X137075956Y-102642190D01*
X136932063Y-102685839D01*
X136799450Y-102756722D01*
X136683214Y-102852114D01*
X136587822Y-102968350D01*
X136563100Y-103014602D01*
X136538378Y-102968350D01*
X136442986Y-102852114D01*
X136326750Y-102756722D01*
X136194137Y-102685839D01*
X136050244Y-102642190D01*
X135900600Y-102627451D01*
X135789451Y-102627451D01*
X135764427Y-102619860D01*
X135613551Y-102605000D01*
X133909149Y-102605000D01*
X133758273Y-102619860D01*
X133564683Y-102678585D01*
X133386269Y-102773949D01*
X133229888Y-102902288D01*
X133101549Y-103058669D01*
X133006185Y-103237083D01*
X132947460Y-103430673D01*
X132927631Y-103632000D01*
X132947460Y-103833327D01*
X133006185Y-104026917D01*
X133101549Y-104205331D01*
X133229888Y-104361712D01*
X133386269Y-104490051D01*
X133564683Y-104585415D01*
X133758273Y-104644140D01*
X133909149Y-104659000D01*
X135613551Y-104659000D01*
X135764427Y-104644140D01*
X135789451Y-104636549D01*
X135900600Y-104636549D01*
X136050244Y-104621810D01*
X136194137Y-104578161D01*
X136326750Y-104507278D01*
X136442986Y-104411886D01*
X136538378Y-104295650D01*
X136563100Y-104249398D01*
X136587822Y-104295650D01*
X136683214Y-104411886D01*
X136799450Y-104507278D01*
X136932063Y-104578161D01*
X137075956Y-104621810D01*
X137225600Y-104636549D01*
X137336749Y-104636549D01*
X137361773Y-104644140D01*
X137512649Y-104659000D01*
X138948500Y-104659000D01*
X138948501Y-105698549D01*
X138943532Y-105749000D01*
X138948501Y-105799451D01*
X138963361Y-105950327D01*
X138995451Y-106056113D01*
X138995451Y-106087500D01*
X139010190Y-106237144D01*
X139053839Y-106381037D01*
X139124722Y-106513650D01*
X139220114Y-106629886D01*
X139336350Y-106725278D01*
X139382602Y-106750000D01*
X139336350Y-106774722D01*
X139292640Y-106810594D01*
X137959614Y-105477569D01*
X137935282Y-105447920D01*
X137816968Y-105350823D01*
X137681986Y-105278673D01*
X137535521Y-105234243D01*
X137421368Y-105223000D01*
X137421365Y-105223000D01*
X137383202Y-105219241D01*
X137345039Y-105223000D01*
X137223862Y-105223000D01*
X137172448Y-105160352D01*
X137092202Y-105094496D01*
X137000650Y-105045561D01*
X136901310Y-105015426D01*
X136798000Y-105005251D01*
X136637057Y-105005251D01*
X136579727Y-104987860D01*
X136428851Y-104973000D01*
X136428841Y-104973000D01*
X136378400Y-104968032D01*
X136327959Y-104973000D01*
X133280528Y-104973000D01*
X133191700Y-104964251D01*
X132691700Y-104964251D01*
X132542056Y-104978990D01*
X132398163Y-105022639D01*
X132265550Y-105093522D01*
X132149314Y-105188914D01*
X132053922Y-105305150D01*
X132029200Y-105351402D01*
X132004478Y-105305150D01*
X131909086Y-105188914D01*
X131792850Y-105093522D01*
X131660237Y-105022639D01*
X131516344Y-104978990D01*
X131366700Y-104964251D01*
X130866700Y-104964251D01*
X130717056Y-104978990D01*
X130573163Y-105022639D01*
X130440550Y-105093522D01*
X130324314Y-105188914D01*
X130228922Y-105305150D01*
X130158039Y-105437763D01*
X130114390Y-105581656D01*
X130109551Y-105630789D01*
X130105260Y-105636017D01*
X130044717Y-105749284D01*
X130007435Y-105872186D01*
X129994846Y-106000000D01*
X130007435Y-106127814D01*
X130044717Y-106250716D01*
X130098001Y-106350402D01*
X130098001Y-106953895D01*
X130073776Y-106973776D01*
X129976829Y-107091906D01*
X129904791Y-107226680D01*
X129860430Y-107372918D01*
X129845451Y-107525000D01*
X129845451Y-108248808D01*
X129432431Y-107835788D01*
X129401215Y-107732883D01*
X129395549Y-107722283D01*
X129395549Y-106922200D01*
X129385374Y-106818890D01*
X129355239Y-106719550D01*
X129306304Y-106627998D01*
X129240448Y-106547752D01*
X129160202Y-106481896D01*
X129068650Y-106432961D01*
X128969310Y-106402826D01*
X128928998Y-106398856D01*
X129113588Y-106232469D01*
X129287641Y-105999120D01*
X129412825Y-105736299D01*
X129457476Y-105589090D01*
X129336155Y-105359200D01*
X128143000Y-105359200D01*
X128143000Y-105379200D01*
X127889000Y-105379200D01*
X127889000Y-105359200D01*
X126695845Y-105359200D01*
X126574524Y-105589090D01*
X126619175Y-105736299D01*
X126744359Y-105999120D01*
X126918412Y-106232469D01*
X127103002Y-106398856D01*
X127062690Y-106402826D01*
X126963350Y-106432961D01*
X126871798Y-106481896D01*
X126791552Y-106547752D01*
X126725696Y-106627998D01*
X126676761Y-106719550D01*
X126646626Y-106818890D01*
X126636451Y-106922200D01*
X126636451Y-108622200D01*
X126646626Y-108725510D01*
X126676761Y-108824850D01*
X126725696Y-108916402D01*
X126791552Y-108996648D01*
X126871798Y-109062504D01*
X126963350Y-109111439D01*
X127062690Y-109141574D01*
X127166000Y-109151749D01*
X128061572Y-109151749D01*
X128092549Y-109154800D01*
X128498251Y-109154800D01*
X128529228Y-109151749D01*
X128550706Y-109151749D01*
X129097067Y-109698111D01*
X128731303Y-109546606D01*
X128146493Y-109430280D01*
X127550227Y-109430280D01*
X126965417Y-109546606D01*
X126414538Y-109774788D01*
X125918760Y-110106056D01*
X125497136Y-110527680D01*
X125165868Y-111023458D01*
X125154231Y-111051552D01*
X125135750Y-104875310D01*
X126574524Y-104875310D01*
X126695845Y-105105200D01*
X127889000Y-105105200D01*
X127889000Y-103911386D01*
X128143000Y-103911386D01*
X128143000Y-105105200D01*
X129336155Y-105105200D01*
X129457476Y-104875310D01*
X129412825Y-104728101D01*
X129287641Y-104465280D01*
X129113588Y-104231931D01*
X128897355Y-104037022D01*
X128647252Y-103888043D01*
X128372891Y-103790719D01*
X128143000Y-103911386D01*
X127889000Y-103911386D01*
X127659109Y-103790719D01*
X127384748Y-103888043D01*
X127134645Y-104037022D01*
X126918412Y-104231931D01*
X126744359Y-104465280D01*
X126619175Y-104728101D01*
X126574524Y-104875310D01*
X125135750Y-104875310D01*
X125122715Y-100519100D01*
X125461398Y-100519100D01*
X125461398Y-103323100D01*
X129574922Y-103323100D01*
X129574922Y-100762400D01*
X138611248Y-100762400D01*
X138614320Y-101064150D01*
X138773070Y-101222900D01*
X139847320Y-101222900D01*
X139847320Y-100286150D01*
X140101320Y-100286150D01*
X140101320Y-101222900D01*
X141175570Y-101222900D01*
X141334320Y-101064150D01*
X141337392Y-100762400D01*
X141325132Y-100637918D01*
X141288822Y-100518220D01*
X141229857Y-100407906D01*
X141150505Y-100311215D01*
X141053814Y-100231863D01*
X140943500Y-100172898D01*
X140823802Y-100136588D01*
X140699320Y-100124328D01*
X140260070Y-100127400D01*
X140101320Y-100286150D01*
X139847320Y-100286150D01*
X139688570Y-100127400D01*
X139249320Y-100124328D01*
X139124838Y-100136588D01*
X139005140Y-100172898D01*
X138894826Y-100231863D01*
X138798135Y-100311215D01*
X138718783Y-100407906D01*
X138659818Y-100518220D01*
X138623508Y-100637918D01*
X138611248Y-100762400D01*
X129574922Y-100762400D01*
X129574922Y-100519100D01*
X125461398Y-100519100D01*
X125122715Y-100519100D01*
X125121429Y-100089160D01*
X131419048Y-100089160D01*
X131431308Y-100213642D01*
X131467618Y-100333340D01*
X131526583Y-100443654D01*
X131605935Y-100540345D01*
X131702626Y-100619697D01*
X131812940Y-100678662D01*
X131932638Y-100714972D01*
X132057120Y-100727232D01*
X132246370Y-100724160D01*
X132405120Y-100565410D01*
X132405120Y-99728660D01*
X132659120Y-99728660D01*
X132659120Y-100565410D01*
X132817870Y-100724160D01*
X133007120Y-100727232D01*
X133131602Y-100714972D01*
X133251300Y-100678662D01*
X133361614Y-100619697D01*
X133458305Y-100540345D01*
X133537657Y-100443654D01*
X133576411Y-100371152D01*
X133604303Y-100423334D01*
X133683655Y-100520025D01*
X133780346Y-100599377D01*
X133890660Y-100658342D01*
X134010358Y-100694652D01*
X134134840Y-100706912D01*
X134324090Y-100703840D01*
X134482840Y-100545090D01*
X134482840Y-99708340D01*
X134736840Y-99708340D01*
X134736840Y-100545090D01*
X134895590Y-100703840D01*
X135084840Y-100706912D01*
X135209322Y-100694652D01*
X135329020Y-100658342D01*
X135439334Y-100599377D01*
X135536025Y-100520025D01*
X135615377Y-100423334D01*
X135653429Y-100352144D01*
X135702343Y-100443654D01*
X135781695Y-100540345D01*
X135878386Y-100619697D01*
X135988700Y-100678662D01*
X136108398Y-100714972D01*
X136232880Y-100727232D01*
X136422130Y-100724160D01*
X136580880Y-100565410D01*
X136580880Y-99728660D01*
X136834880Y-99728660D01*
X136834880Y-100565410D01*
X136993630Y-100724160D01*
X137182880Y-100727232D01*
X137307362Y-100714972D01*
X137427060Y-100678662D01*
X137537374Y-100619697D01*
X137634065Y-100540345D01*
X137713417Y-100443654D01*
X137772382Y-100333340D01*
X137808692Y-100213642D01*
X137820952Y-100089160D01*
X137817880Y-99887410D01*
X137659130Y-99728660D01*
X136834880Y-99728660D01*
X136580880Y-99728660D01*
X135756630Y-99728660D01*
X135669020Y-99816270D01*
X135561090Y-99708340D01*
X134736840Y-99708340D01*
X134482840Y-99708340D01*
X133658590Y-99708340D01*
X133560820Y-99806110D01*
X133483370Y-99728660D01*
X132659120Y-99728660D01*
X132405120Y-99728660D01*
X131580870Y-99728660D01*
X131422120Y-99887410D01*
X131419048Y-100089160D01*
X125121429Y-100089160D01*
X125097733Y-92170230D01*
X126777724Y-92170230D01*
X126899045Y-92400120D01*
X128092200Y-92400120D01*
X128092200Y-91206306D01*
X128346200Y-91206306D01*
X128346200Y-92400120D01*
X129539355Y-92400120D01*
X129660676Y-92170230D01*
X129616025Y-92023021D01*
X129490841Y-91760200D01*
X129316788Y-91526851D01*
X129100555Y-91331942D01*
X128850452Y-91182963D01*
X128576091Y-91085639D01*
X128346200Y-91206306D01*
X128092200Y-91206306D01*
X127862309Y-91085639D01*
X127587948Y-91182963D01*
X127337845Y-91331942D01*
X127121612Y-91526851D01*
X126947559Y-91760200D01*
X126822375Y-92023021D01*
X126777724Y-92170230D01*
X125097733Y-92170230D01*
X125087353Y-88701550D01*
X125165868Y-88891102D01*
X125497136Y-89386880D01*
X125918760Y-89808504D01*
X126414538Y-90139772D01*
X126965417Y-90367954D01*
X127550227Y-90484280D01*
X128146493Y-90484280D01*
X128731303Y-90367954D01*
X129282182Y-90139772D01*
X129777960Y-89808504D01*
X130199584Y-89386880D01*
X130530852Y-88891102D01*
X130759034Y-88340223D01*
X130875360Y-87755413D01*
X130875360Y-87159147D01*
X130772096Y-86640000D01*
X138527428Y-86640000D01*
X138530500Y-86941750D01*
X138689250Y-87100500D01*
X139763500Y-87100500D01*
X139763500Y-86163750D01*
X140017500Y-86163750D01*
X140017500Y-87100500D01*
X141091750Y-87100500D01*
X141250500Y-86941750D01*
X141253572Y-86640000D01*
X141241312Y-86515518D01*
X141205002Y-86395820D01*
X141146037Y-86285506D01*
X141066685Y-86188815D01*
X140969994Y-86109463D01*
X140859680Y-86050498D01*
X140739982Y-86014188D01*
X140615500Y-86001928D01*
X140176250Y-86005000D01*
X140017500Y-86163750D01*
X139763500Y-86163750D01*
X139604750Y-86005000D01*
X139165500Y-86001928D01*
X139041018Y-86014188D01*
X138921320Y-86050498D01*
X138811006Y-86109463D01*
X138714315Y-86188815D01*
X138634963Y-86285506D01*
X138575998Y-86395820D01*
X138539688Y-86515518D01*
X138527428Y-86640000D01*
X130772096Y-86640000D01*
X130759034Y-86574337D01*
X130530852Y-86023458D01*
X130199584Y-85527680D01*
X129777960Y-85106056D01*
X129282182Y-84774788D01*
X128731303Y-84546606D01*
X128146493Y-84430280D01*
X127550227Y-84430280D01*
X126965417Y-84546606D01*
X126414538Y-84774788D01*
X125918760Y-85106056D01*
X125497136Y-85527680D01*
X125165868Y-86023458D01*
X125079960Y-86230859D01*
X125075373Y-84697928D01*
X125124174Y-84457129D01*
X125219403Y-84228991D01*
X125357128Y-84023701D01*
X125532110Y-83849064D01*
X125737675Y-83711745D01*
X125965998Y-83616968D01*
X126222086Y-83565595D01*
X126277794Y-83561600D01*
X154574208Y-83562517D01*
G37*
G04 #@! TD.AperFunction*
D20*
X145735252Y-108567948D02*
X145815498Y-108633804D01*
X145907050Y-108682739D01*
X146006390Y-108712874D01*
X146109700Y-108723049D01*
X146743508Y-108723049D01*
X146372706Y-109093851D01*
X145964900Y-109093851D01*
X145815256Y-109108590D01*
X145671363Y-109152239D01*
X145538750Y-109223122D01*
X145422514Y-109318514D01*
X145411446Y-109332000D01*
X144677498Y-109332000D01*
X144656250Y-109314562D01*
X144523637Y-109243679D01*
X144379744Y-109200030D01*
X144230100Y-109185291D01*
X143881553Y-109185291D01*
X144343795Y-108723049D01*
X144669500Y-108723049D01*
X144772810Y-108712874D01*
X144872150Y-108682739D01*
X144963702Y-108633804D01*
X145043948Y-108567948D01*
X145082887Y-108520500D01*
X145696313Y-108520500D01*
X145735252Y-108567948D01*
G04 #@! TA.AperFunction,Conductor*
D21*
G36*
X145735252Y-108567948D02*
G01*
X145815498Y-108633804D01*
X145907050Y-108682739D01*
X146006390Y-108712874D01*
X146109700Y-108723049D01*
X146743508Y-108723049D01*
X146372706Y-109093851D01*
X145964900Y-109093851D01*
X145815256Y-109108590D01*
X145671363Y-109152239D01*
X145538750Y-109223122D01*
X145422514Y-109318514D01*
X145411446Y-109332000D01*
X144677498Y-109332000D01*
X144656250Y-109314562D01*
X144523637Y-109243679D01*
X144379744Y-109200030D01*
X144230100Y-109185291D01*
X143881553Y-109185291D01*
X144343795Y-108723049D01*
X144669500Y-108723049D01*
X144772810Y-108712874D01*
X144872150Y-108682739D01*
X144963702Y-108633804D01*
X145043948Y-108567948D01*
X145082887Y-108520500D01*
X145696313Y-108520500D01*
X145735252Y-108567948D01*
G37*
G04 #@! TD.AperFunction*
M02*
